<?xml version="1.0" encoding="utf-8"?>
<!-- Generator: Adobe Illustrator 22.1.0, SVG Export Plug-In . SVG Version: 6.00 Build 0)  -->
<svg version="1.1" id="Layer_1" xmlns="http://www.w3.org/2000/svg" xmlns:xlink="http://www.w3.org/1999/xlink" x="0px" y="0px"
	 viewBox="0 0 340.1 223.1" style="enable-background:new 0 0 340.1 223.1;" xml:space="preserve">
<style type="text/css">
	.st0{fill:#FFFFFF;stroke:#FFFFFF;stroke-miterlimit:10;}
</style>
<title>jhpiego Tag CMYK</title>
<g>
	<path class="st0" d="M287.7,176.3c-0.1,13.3,11.6,24.4,26,24.4c14.6,0.1,26-10.5,26.3-24.1c0.2-13.4-11.5-24.4-26-24.4
		S287.9,162.8,287.7,176.3z M306.7,169.4c4.1-3.5,10.1-3.5,14.2,0c2,1.8,3,4.4,2.9,7c0.1,2.7-0.9,5.2-2.9,7
		c-4.1,3.4-10.1,3.4-14.2,0c-2-1.8-3.1-4.3-2.9-7C303.7,173.8,304.8,171.2,306.7,169.4L306.7,169.4z"/>
	<path class="st0" d="M152.4,146.3c3.8,3.1,9.3,3.1,13.1,0c1.8-1.6,2.8-4,2.7-6.4c0.1-2.4-0.9-4.8-2.7-6.4c-3.8-3.2-9.3-3.2-13.1,0
		c-1.8,1.6-2.8,4-2.7,6.4C149.6,142.3,150.6,144.7,152.4,146.3z"/>
	<path class="st0" d="M140.1,190.3c5-8.5,5.5-17.2,1.1-26c-3.1-6.5-9.3-11.1-16.4-12c-6.2-1.2-12.6,0.6-17.4,4.8v-3
		c0-0.6-0.5-1-1.1-1h-14c-0.6,0-1,0.4-1.1,1v67.2c0,0.4,0.2,0.8,0.6,1c0,0,4.2,1.9,10.7-0.1c5.4-1.7,4.9-8.2,4.9-8.2v-18.3
		C120.8,205.6,135.1,198.8,140.1,190.3z M117.8,186.2c-6.2,0-10.5-4-10.4-9.8c0.1-6.1,4.1-10,10.2-10c5.9,0,10.1,4.1,10.1,9.8
		C127.7,182.1,123.7,186.2,117.8,186.2z"/>
	<path class="st0" d="M281.6,198.3L281.6,198.3v-44.1c0-0.6-0.5-1-1.1-1h-14.1c-0.6,0-1,0.4-1.1,1v2.9c-4.8-4.2-11.2-5.9-17.4-4.8
		c-7.2,0.9-13.4,5.5-16.5,12c-4.4,8.8-3.9,17.5,1.1,26s19.3,15.3,32.8,5.5v3.1c0,7.2-4.4,10.2-10.7,10.2c-2.4,0.1-4.7-0.8-6.5-2.3
		c-1.1-0.9-1.9-2.1-2.3-3.5c-0.1-0.5-0.7-0.9-1.2-0.8l0,0l-12.4,3.7c-0.5,0.2-0.9,0.7-0.7,1.2c0,0.1,0,0.1,0,0.2l0,0
		c0.1,0.3,0.2,0.7,0.3,1l0,0c2.2,6.4,8.8,12.8,19.9,14c0.4,0,0.9,0.1,1.3,0.1c0.7,0,1.5,0.1,2.2,0.1
		C270.7,223,281.4,213.8,281.6,198.3z M254.9,186.2c-5.9,0-9.9-4.1-9.9-10c0-5.7,4.2-9.8,10.1-9.8c6.1,0,10.2,3.9,10.2,10
		C265.4,182.3,261.1,186.3,254.9,186.2L254.9,186.2z"/>
	<path class="st0" d="M192.5,199.8c1.9,0.5,3.8,0.8,5.8,0.9h1.1c7.7,0,14.7-2.4,19.3-8.1c0.8-1.1,1.6-2.2,2.2-3.4l0.1-0.2
		c0.2-0.6,0-1.2-0.6-1.4l0,0l0,0l-11.6-4.1l0,0c-0.4-0.1-0.8,0-1.1,0.2l-0.1,0.1l-0.4,0.4l0,0c-1.8,2.3-4.5,3.6-7.4,3.6
		c-4.5,0-8.6-2.6-9.4-7.2h31.3c0.5,0,0.9-0.4,1-0.9v-0.1l0,0c0.1-1.3,0.1-2.5,0.1-3.8c0-0.9,0-1.8-0.1-2.7
		c-0.9-9.3-7.3-17.1-16.3-19.8c-2.4-0.7-4.9-1.1-7.4-1.1c-13.5,0-24.8,10.5-24.8,24.2C174.2,187.4,181.7,197.1,192.5,199.8z
		 M199,164.3c4,0,7.1,2,8.2,5.7c0.1,0.5,0.2,0.9,0.3,1.4h-17.3C191.2,167.3,194.8,164.4,199,164.3L199,164.3z"/>
	<path class="st0" d="M167.1,199v-36.7c0,0,0.5-6.5-4.9-8.2c-6.6-2-10.7-0.1-10.7-0.1c-0.4,0.2-0.6,0.6-0.6,1l0,0v43.9
		c0,0.6,0.5,1.1,1.1,1.1l0,0h14C166.5,200,167,199.5,167.1,199z"/>
	<path class="st0" d="M34.3,200.1h14.2c0.5,0,1-0.5,1-1v-23.6c0,0,0,0,0-0.1c0-2.2,0.8-4.3,2.2-5.9c1.3-1.4,3-2.3,4.9-2.5
		c0.4,0,0.8-0.1,1.2-0.1c2.3-0.1,4.5,0.8,6.1,2.5c1.2,1.3,2,3,2.2,4.8c0,0.1,0,0.2,0,0.3c0,0.3,0.1,0.7,0.1,1v23.3
		c0,0.6,0.5,1.1,1.1,1.1h14.1c0.6,0,1-0.4,1.1-1v-25.8c0-11.7-6.2-21.2-20.1-21.2c-4.7-0.1-9.3,1.6-12.8,4.8V141
		c0,0,0.5-6.2-4.9-7.9c-6.6-2-10.7-0.1-10.7-0.1c-0.4,0.2-0.6,0.6-0.6,1l0,0v65.1C33.2,199.6,33.7,200.1,34.3,200.1z"/>
	<path class="st0" d="M9.6,146.3c3.8,3.1,9.3,3.1,13.1,0c1.8-1.6,2.8-4,2.7-6.4c0.1-2.4-0.9-4.8-2.7-6.4c-3.8-3.2-9.3-3.2-13.1,0
		c-1.8,1.6-2.8,4-2.7,6.4C6.8,142.3,7.7,144.7,9.6,146.3z"/>
	<path class="st0" d="M3.7,222.4c1,0.5,2.2,0.7,3.3,0.7c7.3-0.2,13.2-3.9,15.8-9.9c1.1-2.6,1.7-5.4,1.8-8.2c0-1.9,0-42.8,0-42.8
		s0.5-6.5-4.9-8.2l-0.4-0.1l-0.5-0.1c-6-1.6-9.8,0.1-9.8,0.1c-0.4,0.2-0.6,0.6-0.6,1l0,0v46.5c0,5.6-0.8,6.5-6.8,7.4H1.3
		c-0.9,0-1.2,1.7-1.3,2.9c0,0.2,0,0.5,0,0.8v0.1l0,0c0,0.6,0,1.2,0,1.6c0,1.1,0.1,2.1,0.3,3.1c0,0.1,0,0.1,0,0.2
		c0.1,0.4,0.2,0.8,0.3,1.2c0.2,0.5,0.4,0.9,0.7,1.4c0,0.1,0.1,0.2,0.2,0.2C2,221.2,2.8,221.9,3.7,222.4z"/>
	<path class="st0" d="M319.6,52.2c4.9,4.1,12.1,4.1,17,0c2.4-2.1,3.6-5.2,3.5-8.3c0.1-3.2-1.1-6.2-3.5-8.4c-4.9-4.2-12.1-4.2-17,0
		c-2.3,2.1-3.6,5.2-3.5,8.4C316,47.1,317.2,50.1,319.6,52.2z"/>
	<path class="st0" d="M321.2,80.1c-2.1,2.9-3.2,6.4-3.1,10c0,2.2,0.2,4.4,0.6,6.5c0.2,0.5,0.7,0.8,1.2,0.7
		c12.3-5.4,19.6-13.6,19.6-23.9c0-9.1-5.3-14.1-11.9-14.1s-11.9,4.7-11.9,11.1C315.6,74.3,317.7,78.1,321.2,80.1z"/>
	<path class="st0" d="M286.4,22.7c5.6,4.7,13.8,4.7,19.4,0c2.7-2.4,4.2-5.9,4-9.5c0.2-3.6-1.3-7.1-4-9.6c-5.6-4.8-13.8-4.8-19.4,0
		c-2.7,2.4-4.2,5.9-4,9.6C282.2,16.8,283.7,20.3,286.4,22.7z"/>
	<path class="st0" d="M282.6,132.4c2.4-0.1,4.7-0.4,7-1c2.8-0.7,5.5-1.8,8-3.3c2.7-1.6,5.2-3.7,7.2-6.1c2.2-2.7,3.9-5.9,4.7-9.4
		c0.7-2.7,1.1-5.4,1.2-8.2c0.2-3,0.3-5.6,0.3-7.6c0-3.1,0-40.7,0-47.9c0-0.6,0-1,0-1.1c0-0.3,0-2.4,0-2.7c-0.3-3.5-1.7-9.2-8.4-11.3
		c-11.2-3.5-18.3-0.2-18.3-0.2c-0.7,0.3-1.1,1-1.1,1.7v63.3c0,1.9-0.2,3.8-0.6,5.7c-0.3,1.7-1.1,3.2-2.1,4.5
		c-1.2,1.4-2.6,2.5-4.3,3.2c-2.6,1-5.3,1.6-8.1,1.8c-0.7,0.1-1.3,0.7-1.3,1.4c0,0-0.5,8.8,0,11.7C267,132.6,282.6,132.4,282.6,132.4
		z"/>
</g>
</svg>
