<?xml version="1.0" standalone="no"?>
<!DOCTYPE svg
  PUBLIC '-//W3C//DTD SVG 1.1//EN'
  'http://www.w3.org/Graphics/SVG/1.1/DTD/svg11.dtd'><svg version="1.1" xmlns="http://www.w3.org/2000/svg"><defs><font horiz-adv-x="0" id="font"><font-face ascent="750" bbox="-241 -316 1209 1038" cap-height="700" descent="-250" font-family="WEB Boing Semibold" font-stretch="normal" font-style="normal" font-weight="700" units-per-em="1000" x-height="487" /><missing-glyph d="" horiz-adv-x="134" /><glyph d="" glyph-name=".null" horiz-adv-x="0" unicode="" /><glyph d="" glyph-name="nonmarkingreturn" horiz-adv-x="0" unicode="" /><glyph d="" glyph-name="space" horiz-adv-x="203" unicode=" " /><glyph d="M217 262Q215 253 208 246Q201 239 192 239H90Q81 239 75.5 246Q70 253 72 262L144 678Q145 687 152.5 693.5Q160 700 169 700H274Q283 700 288.5 693.5Q294 687 292 678ZM109 -14Q70 -14 45 13.5Q20 41 23 80Q25 100 33.5 117Q42 134 56 147Q70 160 88 167.5Q106 175 125 175Q164 175 189.5 147Q215 119 212 80Q211 61 202 43.5Q193 26 178.5 13.5Q164 1 146.5 -6.5Q129 -14 109 -14Z" glyph-name="exclam" horiz-adv-x="284" unicode="!" /><glyph d="M97 386Q88 386 82.5 392Q77 398 79 408L126 679Q128 688 135.5 694Q143 700 152 700H249Q258 700 263.5 694Q269 688 267 679L220 408Q218 398 211 392Q204 386 194 386ZM295 386Q287 386 281.5 392Q276 398 278 408L326 679Q328 688 335 694Q342 700 351 700H448Q457 700 462.5 694Q468 688 466 679L418 408Q415 386 393 386Z" glyph-name="quotedbl" horiz-adv-x="439" unicode="&quot;" /><glyph d="M411 412 279 412L257 287H389ZM211 22Q209 13 201.5 6.5Q194 0 186 0H139Q130 0 124.5 6.5Q119 13 121 22L152 201H48Q38 201 33 207.5Q28 214 30 223L38 266Q40 275 46.5 281Q53 287 62 287H167L189 412H85Q76 412 70.5 418Q65 424 67 434L75 477Q76 485 83.5 491.5Q91 498 99 498H204L236 679Q238 688 245.5 694Q253 700 262 700H309Q317 700 322.5 694Q328 688 326 679L294 498H426L458 679Q460 688 467.5 694Q475 700 484 700H530Q539 700 544.5 694Q550 688 548 679L516 498H620Q628 498 634 491.5Q640 485 638 477L630 434Q629 424 621 418Q613 412 605 412H501L479 287H582Q591 287 596.5 281Q602 275 600 266L593 223Q591 214 583.5 207.5Q576 201 567 201H464L432 22Q431 13 423.5 6.5Q416 0 407 0H361Q352 0 346 6.5Q340 13 342 22L374 201H243Z" glyph-name="numbersign" horiz-adv-x="628" unicode="#" /><glyph d="M320 442 345 584Q297 582 271.5 561Q246 540 246 510Q246 493 258.5 476.5Q271 460 304 448ZM433 197Q433 220 415 237Q397 254 362 268L335 117Q388 122 410.5 147Q433 172 433 197ZM300 -83Q298 -97 282 -97H238Q225 -97 227 -83L240 -8Q160 5 106.5 39.5Q53 74 25 109Q0 142 36 172L80 211Q98 226 112 221Q126 216 140 202Q163 177 192 155Q221 133 263 122L293 293L234 314Q166 337 126 383.5Q86 430 86 490Q86 535 103 575.5Q120 616 154.5 646.5Q189 677 240.5 695.5Q292 714 360 714H368L377 765Q379 779 393 779H438Q452 779 450 765L440 707Q510 693 556 662.5Q602 632 625 604Q643 584 636.5 570.5Q630 557 620 549L568 506Q552 493 540 498Q528 503 517 514Q495 535 470 551Q445 567 416 575L389 417L428 403Q463 390 493 372.5Q523 355 545.5 332Q568 309 581 278.5Q594 248 594 210Q594 175 579 135.5Q564 96 531 63Q498 30 444.5 8Q391 -14 314 -14H312Z" glyph-name="dollar" horiz-adv-x="634" unicode="$" /><glyph d="M79 487Q79 529 89 568.5Q99 608 119 639Q139 670 169.5 688.5Q200 707 240 707Q297 707 329.5 667Q362 627 362 563Q362 521 352 481.5Q342 442 322.5 411Q303 380 273 361.5Q243 343 202 343Q145 343 112 383Q79 423 79 487ZM124 19Q117 10 110.5 5Q104 0 90 0H68Q52 0 49.5 10.5Q47 21 56 33L619 681Q627 690 633.5 695Q640 700 654 700H676Q692 700 695 689.5Q698 679 688 667ZM159 482Q159 446 172.5 428.5Q186 411 207 411Q236 411 259.5 451.5Q283 492 283 568Q283 604 270 621.5Q257 639 235 639Q206 639 182.5 598.5Q159 558 159 482ZM379 135Q379 177 389 216.5Q399 256 418.5 286.5Q438 317 468.5 335.5Q499 354 539 354Q596 354 628.5 314Q661 274 661 210Q661 168 651 128.5Q641 89 621 58.5Q601 28 571 9.5Q541 -9 501 -9Q444 -9 411.5 31Q379 71 379 135ZM458 129Q458 93 471.5 76Q485 59 506 59Q535 59 558.5 99Q582 139 582 215Q582 251 568.5 268.5Q555 286 534 286Q505 286 481.5 245.5Q458 205 458 129Z" glyph-name="percent" horiz-adv-x="701" unicode="%" /><glyph d="M290 543Q290 523 300 502.5Q310 482 326 465L342 474Q382 496 396 516.5Q410 537 410 557Q410 580 394 594.5Q378 609 355 609Q329 609 309.5 591.5Q290 574 290 543ZM274 110Q301 110 332.5 121.5Q364 133 393 158L270 313L245 297Q172 250 172 196Q172 162 198.5 136Q225 110 274 110ZM469 62Q410 16 355 1Q300 -14 244 -14Q196 -14 155.5 0.5Q115 15 85 40.5Q55 66 38 102Q21 138 21 180Q21 244 54.5 293.5Q88 343 152 378L199 405Q182 431 168.5 465Q155 499 155 533Q155 564 166.5 596Q178 628 202.5 654.5Q227 681 264.5 697.5Q302 714 354 714Q397 714 431 700.5Q465 687 488.5 665Q512 643 524.5 615Q537 587 537 558Q537 501 506 461Q475 421 411 387L394 378L483 267Q500 295 513 325.5Q526 356 538 391Q541 400 547 404.5Q553 409 565 409H663Q672 409 677.5 404Q683 399 682 391Q680 378 671 352.5Q662 327 647 295.5Q632 264 611.5 229Q591 194 567 161L672 30Q680 19 675 9.5Q670 0 659 0H537Q524 0 518.5 3Q513 6 508 13Z" glyph-name="ampersand" horiz-adv-x="709" unicode="&amp;" /><glyph d="M155 530Q129 541 113.5 564.5Q98 588 99 617Q99 658 127.5 686Q156 714 199 714Q240 714 270.5 685.5Q301 657 301 608Q301 575 286.5 543.5Q272 512 251 484.5Q230 457 207 435.5Q184 414 167 402Q152 391 137.5 388Q123 385 109 394L96 403Q84 411 83.5 421Q83 431 89 440Z" glyph-name="quotesingle" horiz-adv-x="263" unicode="'" /><glyph d="M117 -100Q101 -77 86 -43.5Q71 -10 59 31Q47 72 40 120Q33 168 33 220Q33 301 54 377Q75 453 107.5 519Q140 585 178.5 639Q217 693 252 730Q260 738 271 744Q282 750 296 750H332Q352 750 358 738.5Q364 727 353 707Q317 646 285 582.5Q253 519 229 451.5Q205 384 191 311Q177 238 177 157Q177 91 188.5 35Q200 -21 214 -71Q219 -91 214 -105.5Q209 -120 185 -120H155Q140 -120 132 -114Q124 -108 117 -100Z" glyph-name="parenleft" horiz-adv-x="297" unicode="(" /><glyph d="M206 730Q222 707 237 673.5Q252 640 264 599Q276 558 283.5 510Q291 462 291 410Q291 329 269.5 253Q248 177 215.5 111Q183 45 144.5 -9Q106 -63 71 -100Q63 -108 52.5 -114Q42 -120 28 -120H-9Q-29 -120 -34.5 -108.5Q-40 -97 -29 -77Q6 -16 38 47.5Q70 111 94 178.5Q118 246 132 319Q146 392 146 473Q146 539 135 595Q124 651 110 701Q105 721 109.5 735.5Q114 750 138 750H169Q183 750 191 744Q199 738 206 730Z" glyph-name="parenright" horiz-adv-x="297" unicode=")" /><glyph d="M323 279Q320 258 302.5 246Q285 234 263 238Q241 242 229 259Q217 276 221 298Q223 305 231 325.5Q239 346 249 370Q259 394 268.5 417Q278 440 282 450Q271 445 249.5 432.5Q228 420 204.5 407Q181 394 161.5 383Q142 372 134 370Q114 364 95.5 373Q77 382 70 404Q64 424 73 443Q82 462 104 469Q112 472 134.5 474Q157 476 183 478Q209 480 233.5 482Q258 484 270 487Q260 493 237.5 503.5Q215 514 191.5 525.5Q168 537 147.5 547Q127 557 120 562Q101 576 99.5 597Q98 618 111 636Q125 653 145.5 655.5Q166 658 182 644Q188 639 203 622Q218 605 235.5 585Q253 565 269 546Q285 527 294 518Q294 530 292.5 555Q291 580 290 606Q289 632 288.5 653.5Q288 675 289 682Q293 703 310.5 715.5Q328 728 350 724Q371 719 383.5 703.5Q396 688 391 664Q390 657 382 636.5Q374 616 364.5 591.5Q355 567 345.5 544.5Q336 522 331 511Q342 516 363.5 528.5Q385 541 408 554.5Q431 568 451.5 579Q472 590 479 592Q499 598 517 589Q535 580 543 559Q548 539 540 519.5Q532 500 509 493Q502 490 479.5 488Q457 486 431 483.5Q405 481 380.5 479Q356 477 344 474Q354 468 376 457.5Q398 447 422 436Q446 425 466.5 415Q487 405 494 400Q511 386 513 364.5Q515 343 502 326Q488 309 467.5 307Q447 305 430 318Q424 323 409 340Q394 357 377 377.5Q360 398 344 416.5Q328 435 319 444Q319 432 320 407.5Q321 383 322 357Q323 331 323.5 308.5Q324 286 323 279Z" glyph-name="asterisk" horiz-adv-x="532" unicode="*" /><glyph d="M410 621Q420 621 425 614.5Q430 608 428 598L398 423H563Q572 423 577.5 416Q583 409 581 400L564 303Q562 293 555 286.5Q548 280 538 280H372L341 104Q339 94 331.5 87.5Q324 81 314 81H212Q203 81 197.5 87.5Q192 94 194 104L225 280H60Q51 280 45.5 286.5Q40 293 42 303L59 400Q61 409 68.5 416Q76 423 86 423H250L281 598Q283 608 290.5 614.5Q298 621 307 621Z" glyph-name="plus" horiz-adv-x="583" unicode="+" /><glyph d="M61 -2Q37 9 23.5 32.5Q10 56 13 82Q17 122 45 148.5Q73 175 114 175Q134 175 151 167.5Q168 160 181 146Q194 132 200.5 113Q207 94 205 71Q203 40 187 9.5Q171 -21 149 -47Q127 -73 103.5 -93Q80 -113 63 -124Q48 -135 34 -138Q20 -141 7 -133L-5 -124Q-16 -116 -15.5 -106.5Q-15 -97 -8 -88Z" glyph-name="comma" horiz-adv-x="262" unicode="," /><glyph d="M67 220Q45 220 48 243L67 347Q69 357 76 363.5Q83 370 93 370H331Q339 370 345 363.5Q351 357 349 347L330 243Q328 232 320.5 226Q313 220 304 220Z" glyph-name="hyphen" horiz-adv-x="378" unicode="-" /><glyph d="M97 -14Q58 -14 32.5 13.5Q7 41 11 80Q13 100 21.5 117Q30 134 44 147Q58 160 76 167.5Q94 175 113 175Q152 175 177.5 147Q203 119 200 80Q199 61 190 43.5Q181 26 166.5 13.5Q152 1 134.5 -6.5Q117 -14 97 -14Z" glyph-name="period" horiz-adv-x="252" unicode="." /><glyph d="M9 0Q-7 0 -8.5 10Q-10 20 -3 31L428 684Q435 693 440 696.5Q445 700 456 700H515Q530 700 533 690.5Q536 681 528 670L100 18Q95 10 89 5Q83 0 69 0Z" glyph-name="slash" horiz-adv-x="486" unicode="/" /><glyph d="M370 714Q428 714 472.5 693Q517 672 547 635Q577 598 592 547Q607 496 607 435Q607 356 588 275.5Q569 195 530 131Q491 67 431 26.5Q371 -14 288 -14Q229 -14 184.5 7Q140 28 110 65Q80 102 65 153Q50 204 50 265Q50 345 69 425Q88 505 127 569Q166 633 226.5 673.5Q287 714 370 714ZM360 589Q324 589 294.5 559Q265 529 244 481.5Q223 434 211.5 374Q200 314 200 254Q200 212 208 184.5Q216 157 229.5 140.5Q243 124 260.5 117.5Q278 111 297 111Q333 111 362.5 141Q392 171 413.5 218.5Q435 266 446.5 326Q458 386 458 446Q458 488 450 515.5Q442 543 428.5 559.5Q415 576 397 582.5Q379 589 360 589Z" glyph-name="zero" horiz-adv-x="618" unicode="0" /><glyph d="M75 590Q79 615 101 615H117Q155 615 179.5 632Q204 649 223 679Q231 693 239.5 696.5Q248 700 259 700H323Q333 700 338 693.5Q343 687 341 679L226 23Q224 13 216.5 6.5Q209 0 199 0H97Q88 0 82.5 6.5Q77 13 79 23L162 491H79Q70 491 65 497.5Q60 504 62 514Z" glyph-name="one" horiz-adv-x="333" unicode="1" /><glyph d="M27 0Q18 0 12 6.5Q6 13 8 22L22 93Q25 110 33.5 119.5Q42 129 47 133L265 301Q308 334 339 360Q370 386 390 408.5Q410 431 419.5 452Q429 473 429 495Q429 536 400 559Q371 582 331 582Q304 582 283.5 573Q263 564 248 550Q233 536 222.5 519.5Q212 503 205 487Q189 451 155 465L87 490Q63 500 71 525Q83 563 106 597.5Q129 632 163 658Q197 684 242 699Q287 714 342 714Q390 714 433.5 699.5Q477 685 509.5 659Q542 633 561 595.5Q580 558 580 512Q580 469 565 431.5Q550 394 522.5 359.5Q495 325 455 291Q415 257 365 221L238 129H507Q517 129 522.5 122.5Q528 116 526 106L510 22Q508 13 501 6.5Q494 0 485 0Z" glyph-name="two" horiz-adv-x="577" unicode="2" /><glyph d="M273 -14Q211 -14 162 4Q113 22 80 52.5Q47 83 31.5 124.5Q16 166 21 213L23 233Q24 244 31 248.5Q38 253 48 253H146Q155 253 160.5 248Q166 243 164 234L162 220Q159 198 165.5 177.5Q172 157 187 142Q202 127 225 118Q248 109 278 109Q308 109 331 118.5Q354 128 369.5 143.5Q385 159 392.5 179Q400 199 400 219Q400 259 370 289.5Q340 320 274 320H238Q229 320 223.5 325Q218 330 220 342L228 397Q231 415 246 428L403 566H125Q116 566 110 572Q104 578 106 589L122 677Q124 688 132 694Q140 700 150 700H574Q583 700 588.5 693.5Q594 687 592 678L580 601Q577 581 572 570.5Q567 560 559 552L392 407Q426 401 455 385.5Q484 370 505 346.5Q526 323 538 291.5Q550 260 550 222Q550 177 531.5 134.5Q513 92 478 59Q443 26 391 6Q339 -14 273 -14Z" glyph-name="three" horiz-adv-x="585" unicode="3" /><glyph d="M27 182Q18 182 12.5 188.5Q7 195 9 205L23 283Q25 297 29 310.5Q33 324 45 338L359 682Q374 700 394 700H536Q546 700 551.5 693.5Q557 687 555 678L489 301H566Q576 301 581 294.5Q586 288 584 278L571 205Q569 194 561.5 188Q554 182 545 182H468L440 23Q438 13 430.5 6.5Q423 0 412 0H312Q303 0 298 6.5Q293 13 295 23L323 182ZM344 301 388 554L157 301Z" glyph-name="four" horiz-adv-x="591" unicode="4" /><glyph d="M269 -11Q225 -11 184.5 -1Q144 9 109.5 27Q75 45 48.5 70Q22 95 6 125Q1 135 6.5 145Q12 155 23 162L86 207Q103 218 114.5 211.5Q126 205 130 198Q139 185 152 171Q165 157 183 145.5Q201 134 223.5 126.5Q246 119 273 119Q333 119 370 153Q407 187 407 238Q407 264 397 283.5Q387 303 371 315.5Q355 328 334 334.5Q313 341 290 341Q261 341 235.5 332.5Q210 324 193 313Q185 308 178.5 307.5Q172 307 166 309L85 336Q66 343 71 359L151 677Q153 687 160.5 693.5Q168 700 178 700H572Q582 700 588 694.5Q594 689 592 679L576 589Q574 579 566.5 572.5Q559 566 550 566H246L210 430Q265 458 331 458Q378 458 419 443Q460 428 490.5 401Q521 374 539 335Q557 296 557 248Q557 196 537 149Q517 102 479.5 66.5Q442 31 389 10Q336 -11 269 -11Z" glyph-name="five" horiz-adv-x="583" unicode="5" /><glyph d="M304 -14Q245 -14 195.5 4.5Q146 23 110.5 56.5Q75 90 55 136Q35 182 35 236Q35 314 68 382.5Q101 451 150.5 509.5Q200 568 257.5 615.5Q315 663 363 699Q372 705 379 707Q386 709 397 708L510 698Q526 696 528.5 682.5Q531 669 517 659Q511 655 492.5 640.5Q474 626 448.5 605.5Q423 585 394 560.5Q365 536 337.5 512.5Q310 489 288 468Q266 447 255 434Q281 448 307.5 454.5Q334 461 362 461Q406 461 446.5 446Q487 431 517.5 403.5Q548 376 566.5 336.5Q585 297 585 247Q585 193 563.5 145Q542 97 504 62Q466 27 415 6.5Q364 -14 304 -14ZM318 352Q290 352 266 341.5Q242 331 225 313.5Q208 296 198 273Q188 250 188 224Q188 199 197.5 178Q207 157 222.5 143Q238 129 259 121Q280 113 304 113Q332 113 356 123.5Q380 134 397 151.5Q414 169 424 192Q434 215 434 241Q434 267 424.5 287.5Q415 308 399.5 322Q384 336 363 344Q342 352 318 352Z" glyph-name="six" horiz-adv-x="601" unicode="6" /><glyph d="M594 625Q591 605 586 594.5Q581 584 575 575L227 16Q222 8 216 4Q210 0 197 0H73Q58 0 56 10.5Q54 21 61 32L411 566H95Q86 566 79.5 572Q73 578 75 589L92 677Q97 700 119 700H585Q595 700 600 693.5Q605 687 603 678Z" glyph-name="seven" horiz-adv-x="544" unicode="7" /><glyph d="M303 -14Q238 -14 187 2.5Q136 19 100.5 47.5Q65 76 46 114.5Q27 153 27 196Q27 236 41.5 268.5Q56 301 78.5 325Q101 349 129 364.5Q157 380 185 386Q153 405 130.5 439Q108 473 108 518Q108 562 127 598Q146 634 180.5 659.5Q215 685 262.5 699.5Q310 714 367 714Q421 714 466.5 700Q512 686 545 661.5Q578 637 596 602.5Q614 568 614 527Q614 496 604 469.5Q594 443 577 422.5Q560 402 538.5 387Q517 372 493 364Q535 344 562 303.5Q589 263 589 208Q589 163 570 122.5Q551 82 514 52Q477 22 424 4Q371 -14 303 -14ZM360 428Q410 428 441.5 453.5Q473 479 473 516Q473 553 442.5 576Q412 599 365 599Q315 599 284 573.5Q253 548 253 511Q253 474 283.5 451Q314 428 360 428ZM310 315Q281 315 257 306.5Q233 298 216 283.5Q199 269 189.5 249.5Q180 230 180 209Q180 164 215.5 136Q251 108 305 108Q364 108 400 139Q436 170 436 215Q436 260 400 287.5Q364 315 310 315Z" glyph-name="eight" horiz-adv-x="628" unicode="8" /><glyph d="M131 2Q115 4 112.5 17.5Q110 31 123 41Q129 45 147.5 59.5Q166 74 191.5 94.5Q217 115 246.5 139.5Q276 164 303 187.5Q330 211 352.5 232Q375 253 386 266Q360 252 333.5 245.5Q307 239 279 239Q235 239 194.5 254Q154 269 123 296.5Q92 324 73.5 364Q55 404 55 453Q55 507 76.5 555Q98 603 136 638Q174 673 225.5 693.5Q277 714 337 714Q396 714 445 695.5Q494 677 530 643.5Q566 610 586 564Q606 518 606 464Q606 386 572.5 317.5Q539 249 489.5 190.5Q440 132 382.5 84.5Q325 37 277 1Q268 -5 261 -7Q254 -9 243 -8ZM323 348Q351 348 375 358.5Q399 369 416 386.5Q433 404 443 427Q453 450 453 476Q453 502 443.5 522.5Q434 543 418.5 557Q403 571 381.5 579Q360 587 336 587Q308 587 284 576.5Q260 566 243 548.5Q226 531 216 508Q206 485 206 459Q206 434 215.5 413Q225 392 241 378Q257 364 278 356Q299 348 323 348Z" glyph-name="nine" horiz-adv-x="601" unicode="9" /><glyph d="M157 296Q118 296 93 323Q68 350 71 390Q73 410 81.5 427Q90 444 104 457Q118 470 136 477.5Q154 485 173 485Q192 485 208.5 477.5Q225 470 237 457Q249 444 255 427Q261 410 259 390Q258 370 249 353Q240 336 226 323Q212 310 194 303Q176 296 157 296ZM99 -14Q61 -14 35.5 13.5Q10 41 14 80Q16 100 24.5 117Q33 134 47 147Q61 160 78.5 167.5Q96 175 115 175Q155 175 180.5 147Q206 119 202 80Q201 61 192 43.5Q183 26 168.5 13.5Q154 1 136.5 -6.5Q119 -14 99 -14Z" glyph-name="colon" horiz-adv-x="274" unicode=":" /><glyph d="M154 296Q115 296 89.5 323Q64 350 67 390Q69 410 78 427Q87 444 101 457Q115 470 133 477.5Q151 485 170 485Q189 485 205.5 477.5Q222 470 234 457Q246 444 252 427Q258 410 256 390Q255 370 246 353Q237 336 223 323Q209 310 191 303Q173 296 154 296ZM63 -2Q40 9 26.5 32.5Q13 56 16 83Q19 123 47.5 149Q76 175 117 175Q137 175 154 167.5Q171 160 184 146.5Q197 133 203.5 114Q210 95 208 72Q205 41 189 10.5Q173 -20 151.5 -46Q130 -72 106.5 -92.5Q83 -113 66 -124Q51 -135 37 -138Q23 -141 10 -133L-2 -124Q-13 -116 -13 -106.5Q-13 -97 -6 -88Z" glyph-name="semicolon" horiz-adv-x="278" unicode=";" /><glyph d="M496 90Q492 70 477.5 66Q463 62 451 70L65 287Q48 297 46 313.5Q44 330 46 346Q50 362 57.5 378.5Q65 395 86 405L548 621Q563 629 576.5 624.5Q590 620 585 600L566 484Q564 470 554 463Q544 456 531 451L265 338L491 224Q502 218 509.5 211Q517 204 515 190Z" glyph-name="less" horiz-adv-x="583" unicode="&lt;" /><glyph d="M100 398Q91 398 85.5 404.5Q80 411 82 421L99 517Q101 527 108.5 533.5Q116 540 126 540H603Q611 540 617 533.5Q623 527 621 517L604 421Q602 411 594.5 404.5Q587 398 577 398ZM58 160Q49 160 43.5 166.5Q38 173 40 182L57 279Q59 288 66.5 295Q74 302 84 302H561Q569 302 575 295Q581 288 579 279L562 182Q560 173 552 166.5Q544 160 536 160Z" glyph-name="equal" horiz-adv-x="623" unicode="=" /><glyph d="M55 207Q57 220 67 227Q77 234 90 240L356 353L130 467Q119 473 111.5 480Q104 487 106 500L126 600Q130 620 144 624.5Q158 629 170 621L557 404Q574 394 575.5 377.5Q577 361 575 345Q573 330 564.5 313Q556 296 535 286L73 70Q59 62 46.5 66.5Q34 71 36 90Z" glyph-name="greater" horiz-adv-x="584" unicode="&gt;" /><glyph d="M322 714Q372 714 411 699.5Q450 685 476.5 661Q503 637 517 605.5Q531 574 531 540Q531 486 504 446.5Q477 407 443.5 374.5Q410 342 380.5 315Q351 288 346 260L344 252Q341 232 319 232H216Q208 232 202 238Q196 244 198 254L203 280Q209 318 236 350.5Q263 383 293 412Q323 441 346.5 468Q370 495 370 522Q370 545 353 563.5Q336 582 304 582Q271 582 246 565Q221 548 197 521Q185 507 172 507.5Q159 508 148 516L96 558Q88 565 85 579.5Q82 594 104 619Q117 634 136.5 650.5Q156 667 183 681.5Q210 696 244.5 705Q279 714 322 714ZM235 -12Q196 -12 170.5 16Q145 44 149 82Q151 102 159.5 119Q168 136 182 149Q196 162 214 169.5Q232 177 251 177Q290 177 315.5 149Q341 121 338 82Q336 63 327 46Q318 29 304 16Q290 3 272.5 -4.5Q255 -12 235 -12Z" glyph-name="question" horiz-adv-x="518" unicode="?" /><glyph d="M740 -130Q745 -135 744 -141Q743 -147 738 -151Q694 -180 630 -199Q566 -218 481 -218Q382 -218 300 -185Q218 -152 159.5 -94.5Q101 -37 68.5 40.5Q36 118 36 208Q36 321 75.5 414.5Q115 508 183 575Q251 642 341.5 679Q432 716 534 716Q619 716 696.5 689Q774 662 832.5 611.5Q891 561 925.5 487.5Q960 414 960 321Q960 251 942.5 192.5Q925 134 893.5 91.5Q862 49 818.5 25.5Q775 2 724 2Q680 2 651 20.5Q622 39 610 68Q582 35 543.5 18Q505 1 462 1Q422 1 385.5 16.5Q349 32 321.5 60Q294 88 278 126.5Q262 165 262 211Q262 271 281.5 320Q301 369 334 403.5Q367 438 409 457Q451 476 496 476Q546 476 582.5 456.5Q619 437 639 407L645 436Q647 447 653.5 452Q660 457 668 457H750Q760 457 766 450.5Q772 444 770 435L725 172Q713 112 754 112Q769 112 786.5 124Q804 136 819 161.5Q834 187 844 228.5Q854 270 854 328Q854 397 828 450Q802 503 758 540Q714 577 656.5 596Q599 615 536 615Q457 615 387 585.5Q317 556 265 503Q213 450 183 377Q153 304 153 216Q153 146 178.5 84.5Q204 23 249 -22Q294 -67 355 -93Q416 -119 487 -119Q544 -119 586.5 -109Q629 -99 667 -80Q673 -78 682 -76.5Q691 -75 699 -83ZM491 119Q517 119 538.5 130Q560 141 576 159.5Q592 178 601 202.5Q610 227 610 253Q610 298 584 328.5Q558 359 512 359Q487 359 465.5 348Q444 337 428.5 318Q413 299 404 275Q395 251 395 224Q395 180 420.5 149.5Q446 119 491 119Z" glyph-name="at" horiz-adv-x="988" unicode="@" /><glyph d="M393 572 257 288H437ZM130 20Q126 12 119 6Q112 0 104 0H-10Q-22 0 -27.5 9.5Q-33 19 -25 35L299 678Q306 690 314 695Q322 700 330 700H499Q507 700 514 695Q521 690 523 678L634 35Q637 18 629 9Q621 0 608 0H500Q482 0 479 20L456 162H197Z" glyph-name="A" horiz-adv-x="675" unicode="A" /><glyph d="M40 0Q31 0 25 6Q19 12 21 22L137 678Q139 687 145.5 693.5Q152 700 163 700H454Q513 700 553.5 685Q594 670 618.5 646Q643 622 653.5 592.5Q664 563 664 534Q664 517 659 494Q654 471 640.5 447.5Q627 424 604 403.5Q581 383 546 371Q597 346 619.5 304.5Q642 263 642 221Q642 188 628 149.5Q614 111 584 78Q554 45 506 22.5Q458 0 390 0ZM238 419 402 419Q458 419 484 447Q510 475 510 509Q510 539 488.5 561Q467 583 424 583H267ZM375 117Q402 117 422.5 126Q443 135 457.5 149.5Q472 164 479.5 183Q487 202 487 223Q487 261 458.5 284.5Q430 308 385 308H219L185 117Z" glyph-name="B" horiz-adv-x="671" unicode="B" /><glyph d="M198 325Q198 278 213 239.5Q228 201 254.5 174Q281 147 317 132Q353 117 395 117Q461 117 506 148.5Q551 180 581 230Q583 235 588 241Q593 247 605 242L701 198Q712 193 712 186.5Q712 180 709 174Q662 83 576.5 33.5Q491 -16 387 -16Q311 -16 248 10Q185 36 140 81.5Q95 127 70.5 188.5Q46 250 46 322Q46 405 75.5 476Q105 547 156 600Q207 653 275 683Q343 713 421 713Q484 713 538.5 696Q593 679 636 648Q679 617 708 573Q737 529 748 474Q749 470 747.5 462Q746 454 733 452L635 433Q616 430 610 446Q588 509 542 545Q496 581 428 581Q379 581 337 561Q295 541 264 506Q233 471 215.5 424.5Q198 378 198 325Z" glyph-name="C" horiz-adv-x="724" unicode="C" /><glyph d="M385 700Q465 700 528.5 675.5Q592 651 636 609Q680 567 703.5 509.5Q727 452 727 386Q727 300 694.5 229Q662 158 606 107Q550 56 475.5 28Q401 0 316 0H40Q31 0 25 7Q19 14 21 23L137 678Q139 687 146.5 693.5Q154 700 163 700ZM314 137Q374 137 422 156.5Q470 176 503.5 209Q537 242 554.5 286.5Q572 331 572 381Q572 420 559 453.5Q546 487 521 511Q496 535 459 549Q422 563 374 563H264L189 137Z" glyph-name="D" horiz-adv-x="732" unicode="D" /><glyph d="M655 700Q664 700 669.5 693.5Q675 687 673 677L657 584Q655 575 648 568.5Q641 562 631 562H264L239 418H430Q440 418 445.5 411.5Q451 405 449 395L433 307Q431 298 423.5 291Q416 284 407 284H216L190 138H564Q573 138 578.5 131.5Q584 125 582 116L566 23Q564 13 557 6.5Q550 0 539 0H40Q31 0 25 6.5Q19 13 21 23L137 678Q139 687 146.5 693.5Q154 700 163 700Z" glyph-name="E" horiz-adv-x="626" unicode="E" /><glyph d="M495 270Q493 260 486 253.5Q479 247 469 247H208L168 23Q166 13 159 6.5Q152 0 143 0H40Q31 0 25 6.5Q19 13 21 23L137 678Q138 687 146 693.5Q154 700 163 700H637Q646 700 651.5 693.5Q657 687 655 677L639 584Q637 575 629.5 568.5Q622 562 612 562H263L232 381H492Q502 381 507.5 374.5Q513 368 511 359Z" glyph-name="F" horiz-adv-x="597" unicode="F" /><glyph d="M571 82Q533 37 479 11.5Q425 -14 356 -14Q288 -14 231 11Q174 36 132.5 79.5Q91 123 67.5 183Q44 243 44 312Q44 394 73 467Q102 540 154 595Q206 650 277 682Q348 714 433 714Q493 714 545 699Q597 684 638.5 657Q680 630 709.5 591.5Q739 553 754 506Q756 501 754 494Q752 487 741 483L647 449Q636 445 630.5 450.5Q625 456 623 461Q599 515 553.5 548Q508 581 436 581Q383 581 339 560Q295 539 263.5 503Q232 467 214.5 420Q197 373 197 321Q197 276 210.5 238.5Q224 201 249.5 174Q275 147 311 132Q347 117 393 117Q450 117 503 144.5Q556 172 598 238H410Q401 238 395.5 244.5Q390 251 392 261L405 336Q407 346 414.5 352.5Q422 359 431 359H731Q741 359 746.5 352.5Q752 346 750 336L695 23Q693 13 686 6.5Q679 0 668 0H581Q572 0 564.5 5.5Q557 11 560 28Z" glyph-name="G" horiz-adv-x="774" unicode="G" /><glyph d="M637 23Q635 13 627.5 6.5Q620 0 611 0H507Q499 0 493 6.5Q487 13 489 23L535 284H216L169 23Q167 13 160 6.5Q153 0 144 0H40Q31 0 25 6.5Q19 13 21 23L137 678Q139 687 146 693.5Q153 700 163 700H266Q276 700 281.5 693.5Q287 687 285 678L239 418H560L605 678Q607 687 614 693.5Q621 700 631 700H734Q743 700 748.5 693.5Q754 687 752 678Z" glyph-name="H" horiz-adv-x="734" unicode="H" /><glyph d="M40 0Q30 0 24.5 6.5Q19 13 21 23L137 678Q139 687 146 693.5Q153 700 163 700H266Q275 700 280.5 693.5Q286 687 284 678L168 23Q166 13 159.5 6.5Q153 0 143 0Z" glyph-name="I" horiz-adv-x="266" unicode="I" /><glyph d="M532 225Q512 106 438.5 46Q365 -14 254 -14Q201 -14 153.5 2.5Q106 19 72 52Q38 85 22 133Q6 181 16 244L21 278Q23 287 30 293.5Q37 300 48 300H147Q156 300 161.5 293.5Q167 287 165 278L157 236Q148 183 177 150.5Q206 118 261 118Q291 118 313 128Q335 138 350 154.5Q365 171 374 193.5Q383 216 387 241L464 678Q466 687 473.5 693.5Q481 700 491 700H593Q603 700 608.5 693.5Q614 687 613 678Z" glyph-name="J" horiz-adv-x="590" unicode="J" /><glyph d="M168 23Q166 13 159.5 6.5Q153 0 143 0H40Q30 0 24.5 6.5Q19 13 21 23L137 678Q138 687 145.5 693.5Q153 700 163 700H266Q276 700 280.5 693.5Q285 687 284 678L238 420H313L543 681Q553 692 561.5 696Q570 700 586 700H706Q719 700 722 691.5Q725 683 716 673L430 361L625 28Q631 17 625 8.5Q619 0 610 0H496Q482 0 475 3.5Q468 7 462 18L307 293H216Z" glyph-name="K" horiz-adv-x="655" unicode="K" /><glyph d="M512 23Q511 13 503.5 6.5Q496 0 486 0H40Q31 0 25 6.5Q19 13 21 22L137 677Q138 687 146 693.5Q154 700 163 700H266Q275 700 280.5 693.5Q286 687 284 677L189 138H510Q520 138 525.5 131.5Q531 125 529 116Z" glyph-name="L" horiz-adv-x="556" unicode="L" /><glyph d="M445 334 657 680Q664 692 673 696Q682 700 692 700H865Q875 700 880.5 693.5Q886 687 884 678L768 22Q763 0 743 0H640Q631 0 625.5 6Q620 12 622 22L708 511L489 165Q481 151 473.5 147Q466 143 455 143H377Q366 143 359.5 147Q353 151 350 165L253 511L167 22Q164 0 142 0H39Q30 0 24.5 6Q19 12 21 22L137 678Q139 687 146.5 693.5Q154 700 163 700H325Q333 700 341 696Q349 692 352 680Z" glyph-name="M" horiz-adv-x="866" unicode="M" /><glyph d="M248 486 168 22Q165 0 143 0H40Q31 0 25 6Q19 12 21 22L137 678Q138 687 145.5 693.5Q153 700 163 700H288Q308 700 316 682L510 227L589 678Q591 687 598.5 693.5Q606 700 615 700H718Q727 700 732.5 693.5Q738 687 736 678L620 22Q618 12 611 6Q604 0 595 0H492Q459 0 451 22Z" glyph-name="N" horiz-adv-x="718" unicode="N" /><glyph d="M423 714Q502 714 565.5 687.5Q629 661 674 615Q719 569 743 506.5Q767 444 767 373Q767 293 739 222.5Q711 152 660.5 99.5Q610 47 541 16.5Q472 -14 390 -14Q312 -14 248.5 12.5Q185 39 140 85Q95 131 71 193.5Q47 256 47 327Q47 407 75 477.5Q103 548 153 600.5Q203 653 272 683.5Q341 714 423 714ZM421 581Q374 581 333 561Q292 541 262 506.5Q232 472 215 426Q198 380 198 327Q198 281 213 242.5Q228 204 254 176.5Q280 149 315.5 134Q351 119 393 119Q441 119 481.5 139Q522 159 552 193.5Q582 228 599 274.5Q616 321 616 373Q616 420 601 458Q586 496 560 523.5Q534 551 498.5 566Q463 581 421 581Z" glyph-name="O" horiz-adv-x="774" unicode="O" /><glyph d="M209 234 171 22Q169 12 162 6Q155 0 146 0H40Q31 0 25 6.5Q19 13 21 22L137 678Q138 687 146 693.5Q154 700 163 700H407Q467 700 511 683Q555 666 584 637Q613 608 627.5 570Q642 532 642 489Q642 438 623.5 391.5Q605 345 570 310Q535 275 483 254.5Q431 234 363 234ZM359 366Q419 366 452.5 397Q486 428 486 478Q486 520 458.5 544.5Q431 569 386 569H268L232 366Z" glyph-name="P" horiz-adv-x="617" unicode="P" /><glyph d="M393 119Q449 119 496 147L377 257Q370 263 370.5 272Q371 281 378 289L429 345Q436 353 445 353Q454 353 461 347L581 236Q598 265 607 300Q616 335 616 373Q616 420 601 458Q586 496 560 523.5Q534 551 498.5 566Q463 581 421 581Q374 581 333 561Q292 541 262 506.5Q232 472 215 426Q198 380 198 327Q198 281 213 242.5Q228 204 254 176.5Q280 149 315.5 134Q351 119 393 119ZM604 51Q559 20 505.5 3Q452 -14 390 -14Q312 -14 248.5 12.5Q185 39 140 85Q95 131 71 193.5Q47 256 47 327Q47 407 75 477.5Q103 548 153 600.5Q203 653 272 683.5Q341 714 423 714Q502 714 565.5 687.5Q629 661 674 615Q719 569 743 506.5Q767 444 767 373Q767 305 747 245Q727 185 691 135L748 83Q756 75 755.5 66.5Q755 58 748 51L697 -4Q689 -11 680 -11Q671 -11 664 -4Z" glyph-name="Q" horiz-adv-x="774" unicode="Q" /><glyph d="M389 382Q452 382 482.5 413.5Q513 445 513 485Q513 524 487.5 546.5Q462 569 421 569H265L232 382ZM169 23Q167 13 160.5 6.5Q154 0 143 0H40Q31 0 25 6.5Q19 13 21 22L137 678Q138 686 145 693Q152 700 163 700H449Q500 700 541 685Q582 670 610.5 644Q639 618 654 582Q669 546 669 505Q669 481 662 448.5Q655 416 634.5 384.5Q614 353 578 325.5Q542 298 484 283L621 30Q626 21 620 10.5Q614 0 600 0H494Q480 0 474 5Q468 10 461 23L337 261H211Z" glyph-name="R" horiz-adv-x="671" unicode="R" /><glyph d="M352 714Q404 714 446.5 703.5Q489 693 522 676.5Q555 660 579 641Q603 622 617 604Q635 584 628.5 570.5Q622 557 612 549L560 506Q544 493 532 498Q520 503 509 514Q476 546 436 565Q396 584 345 584Q294 584 266 563Q238 542 238 510Q238 493 250.5 476.5Q263 460 296 448L420 403Q455 390 485 372.5Q515 355 537.5 332Q560 309 573 278.5Q586 248 586 210Q586 175 571 135.5Q556 96 523 63Q490 30 436.5 8Q383 -14 306 -14Q251 -14 205 -3Q159 8 123 26Q87 44 60.5 66Q34 88 17 109Q-8 142 28 172L72 211Q90 226 104 221Q118 216 132 202Q147 186 164 170.5Q181 155 202.5 143Q224 131 250 123.5Q276 116 308 116Q340 116 362 123.5Q384 131 398 142.5Q412 154 418.5 168.5Q425 183 425 197Q425 223 403 241.5Q381 260 339 274L226 314Q158 337 118 383.5Q78 430 78 490Q78 535 95 575.5Q112 616 146.5 646.5Q181 677 232.5 695.5Q284 714 352 714Z" glyph-name="S" horiz-adv-x="614" unicode="S" /><glyph d="M88 677Q89 687 96.5 693.5Q104 700 112 700H656Q666 700 671.5 693.5Q677 687 675 677L659 584Q657 574 649.5 568Q642 562 632 562H436L341 23Q339 13 332 6.5Q325 0 315 0H208Q198 0 193 6.5Q188 13 190 23L285 562H89Q80 562 75 568.5Q70 575 72 584Z" glyph-name="T" horiz-adv-x="610" unicode="T" /><glyph d="M643 252Q631 182 602 131.5Q573 81 530.5 49Q488 17 433.5 1.5Q379 -14 316 -14Q260 -14 207.5 2.5Q155 19 117.5 52.5Q80 86 61.5 136Q43 186 55 252L130 678Q132 687 139.5 693.5Q147 700 156 700H260Q270 700 275.5 693.5Q281 687 279 678L206 263Q194 198 228.5 160.5Q263 123 332 123Q400 123 441 160.5Q482 198 493 263L566 678Q568 687 575.5 693.5Q583 700 593 700H699Q709 700 714.5 693.5Q720 687 718 678Z" glyph-name="U" horiz-adv-x="694" unicode="U" /><glyph d="M215 0Q208 0 200.5 5Q193 10 191 22L83 665Q80 682 87.5 691Q95 700 108 700H225Q242 700 245 680L319 162H322L571 680Q576 688 582.5 694Q589 700 597 700H723Q735 700 739.5 691Q744 682 735 666L401 22Q394 10 385 5Q376 0 368 0Z" glyph-name="V" horiz-adv-x="668" unicode="V" /><glyph d="M360 22Q355 10 345.5 5Q336 0 328 0H165Q158 0 150 5Q142 10 141 22L86 665Q84 682 93.5 691Q103 700 115 700H226Q236 700 240.5 693Q245 686 246 678L278 172L484 680Q488 689 493 694.5Q498 700 509 700H634Q643 700 648.5 694Q654 688 655 680L703 177L897 678Q900 686 907.5 693Q915 700 924 700H1035Q1049 700 1055 692.5Q1061 685 1053 665L781 22Q776 10 764 5Q752 0 749 0H597Q589 0 581.5 5Q574 10 572 22L534 459Z" glyph-name="W" horiz-adv-x="993" unicode="W" /><glyph d="M144 18Q138 10 130.5 5Q123 0 110 0H-23Q-40 0 -41 11.5Q-42 23 -33 32L241 361L90 668Q85 679 91.5 689.5Q98 700 111 700H227Q240 700 245 695Q250 690 254 682L354 465L524 682Q530 690 536.5 695Q543 700 555 700H684Q701 700 702.5 690Q704 680 696 669L437 351L595 32Q600 21 594.5 10.5Q589 0 573 0H456Q443 0 438.5 5.5Q434 11 430 19L322 241Z" glyph-name="X" horiz-adv-x="633" unicode="X" /><glyph d="M231 0Q222 0 216 6.5Q210 13 212 23L258 276L89 665Q83 678 90 689Q97 700 110 700H226Q244 700 250 683L354 424H356L544 683Q549 691 555.5 695.5Q562 700 572 700H701Q714 700 718.5 690Q723 680 711 665L404 272L360 23Q358 13 351 6.5Q344 0 335 0Z" glyph-name="Y" horiz-adv-x="649" unicode="Y" /><glyph d="M-2 0Q-13 0 -18 6.5Q-23 13 -21 23L-8 92Q-6 103 -0.5 110.5Q5 118 11 124L428 567H118Q109 567 103.5 573.5Q98 580 100 589L115 677Q117 686 124.5 693Q132 700 141 700H623Q632 700 637 693Q642 686 640 677L626 595Q623 580 611 566L206 133H547Q555 133 561 127Q567 121 565 111L549 23Q547 13 539.5 6.5Q532 0 523 0Z" glyph-name="Z" horiz-adv-x="604" unicode="Z" /><glyph d="M412 665Q410 655 402.5 649Q395 643 386 643H276L163 3H273Q283 3 288 -3.5Q293 -10 291 -18L280 -82Q278 -91 271 -97.5Q264 -104 254 -104H30Q21 -104 14.5 -97.5Q8 -91 10 -83L154 729Q156 738 163.5 744Q171 750 180 750H404Q414 750 419.5 743.5Q425 737 423 728Z" glyph-name="bracketleft" horiz-adv-x="350" unicode="[" /><glyph d="M525 31Q530 20 526.5 10Q523 0 507 0H447Q433 0 428 5Q423 10 419 18L105 670Q100 681 103.5 690.5Q107 700 123 700H182Q193 700 197.5 696.5Q202 693 207 684Z" glyph-name="backslash" horiz-adv-x="589" unicode="\" /><glyph d="M-32 -18Q-30 -9 -22.5 -3Q-15 3 -6 3H104L216 644H107Q97 644 91.5 650Q86 656 88 665L100 728Q102 737 109 743.5Q116 750 125 750H350Q359 750 365 744Q371 738 369 729L226 -83Q224 -91 216.5 -97.5Q209 -104 200 -104H-25Q-34 -104 -39.5 -97Q-45 -90 -43 -82Z" glyph-name="bracketright" horiz-adv-x="350" unicode="]" /><glyph d="M52 210Q36 210 32.5 219.5Q29 229 37 243L282 678Q287 687 295 693.5Q303 700 314 700H435Q446 700 451.5 693.5Q457 687 459 678L550 243Q553 229 546.5 219.5Q540 210 523 210H421Q406 210 400.5 216.5Q395 223 394 231L347 515L201 231Q196 223 188.5 216.5Q181 210 167 210Z" glyph-name="asciicircum" horiz-adv-x="584" unicode="^" /><glyph d="M-48 -186Q-57 -186 -62.5 -179Q-68 -172 -66 -163L-50 -74Q-48 -64 -41 -58Q-34 -52 -24 -52H259Q268 -52 274 -58Q280 -64 278 -74L261 -163Q259 -172 252 -179Q245 -186 234 -186Z" glyph-name="underscore" horiz-adv-x="338" unicode="_" /><glyph d="M219 741Q241 741 246 722L292 568Q296 553 288.5 544.5Q281 536 266 536H199Q182 536 173 552L75 707Q68 718 73.5 729.5Q79 741 96 741Z" glyph-name="grave" horiz-adv-x="277" unicode="`" /><glyph d="M275 111Q303 111 326.5 122.5Q350 134 367.5 154Q385 174 395 200.5Q405 227 405 256Q405 305 375.5 338.5Q346 372 295 372Q267 372 243.5 360Q220 348 202.5 328Q185 308 175.5 282Q166 256 166 227Q166 179 195 145Q224 111 275 111ZM23 214Q23 279 44.5 332Q66 385 101.5 422.5Q137 460 183 480.5Q229 501 278 501Q332 501 372 480.5Q412 460 434 426L441 465Q446 487 465 487H564Q572 487 577.5 480Q583 473 581 465L503 21Q501 12 494 6Q487 0 478 0H380Q371 0 365.5 6.5Q360 13 362 21L368 53Q350 28 314 7Q278 -14 224 -14Q180 -14 143 3Q106 20 79.5 50.5Q53 81 38 123Q23 165 23 214Z" glyph-name="a" horiz-adv-x="585" unicode="a" /><glyph d="M246 700Q254 700 259.5 694Q265 688 263 679L220 442Q239 463 273.5 481.5Q308 500 359 500Q402 500 439.5 483.5Q477 467 504.5 437Q532 407 548 365.5Q564 324 564 275Q564 210 543.5 156.5Q523 103 488 65Q453 27 406.5 6.5Q360 -14 309 -14Q255 -14 215.5 6Q176 26 154 61L146 21Q144 10 137 5Q130 0 122 0H23Q15 0 9.5 6.5Q4 13 6 21L122 679Q124 688 131 694Q138 700 147 700ZM312 373Q284 373 260.5 361.5Q237 350 220 330Q203 310 193 283.5Q183 257 183 228Q183 179 212.5 145.5Q242 112 292 112Q320 112 343.5 124Q367 136 384.5 156Q402 176 411.5 202Q421 228 421 257Q421 305 392 339Q363 373 312 373Z" glyph-name="b" horiz-adv-x="585" unicode="b" /><glyph d="M467 79Q435 37 385 11.5Q335 -14 264 -14Q209 -14 165 4.5Q121 23 89.5 55Q58 87 41 130Q24 173 24 222Q24 282 44.5 333.5Q65 385 100.5 422Q136 459 184 480Q232 501 287 501Q332 501 368 490.5Q404 480 431.5 462Q459 444 478 421Q497 398 507 372Q511 362 506 352Q501 342 490 336L429 303Q414 295 405.5 301.5Q397 308 392 314Q356 372 290 372Q263 372 240.5 360.5Q218 349 201 329.5Q184 310 174.5 284Q165 258 165 228Q165 180 194 147Q223 114 270 114Q299 114 323 125Q347 136 370 161Q376 167 386.5 171Q397 175 411 164L464 120Q472 113 473 100.5Q474 88 467 79Z" glyph-name="c" horiz-adv-x="507" unicode="c" /><glyph d="M275 111Q303 111 326.5 122.5Q350 134 367.5 154Q385 174 395 200.5Q405 227 405 256Q405 305 375.5 338.5Q346 372 295 372Q267 372 243.5 360Q220 348 202.5 328Q185 308 175.5 282Q166 256 166 227Q166 179 195 145Q224 111 275 111ZM368 53Q350 28 314 7Q278 -14 224 -14Q180 -14 143 3Q106 20 79.5 50.5Q53 81 38 123Q23 165 23 214Q23 279 44.5 332Q66 385 101.5 422.5Q137 460 183 480.5Q229 501 278 501Q332 501 371.5 480.5Q411 460 433 426L477 679Q479 688 486 694Q493 700 501 700H602Q610 700 615.5 694Q621 688 619 679L503 21Q501 12 494 6Q487 0 478 0H380Q371 0 365.5 6.5Q360 13 362 21Z" glyph-name="d" horiz-adv-x="585" unicode="d" /><glyph d="M265 -14Q208 -14 163 4Q118 22 87 53.5Q56 85 39.5 127.5Q23 170 23 219Q23 278 43.5 329Q64 380 100.5 418.5Q137 457 187 479Q237 501 297 501Q357 501 402 479.5Q447 458 476.5 423.5Q506 389 519 346.5Q532 304 528 261L525 233Q524 222 517.5 215Q511 208 496 208H164V205Q164 160 192.5 134Q221 108 263 108Q299 108 325 121Q351 134 371 154Q377 160 384.5 162.5Q392 165 400 160L474 111Q483 105 483 96Q483 87 479 82Q449 44 396.5 15Q344 -14 265 -14ZM293 389Q257 389 223.5 364.5Q190 340 176 292H389Q389 318 380.5 336Q372 354 358.5 366Q345 378 328 383.5Q311 389 293 389Z" glyph-name="e" horiz-adv-x="539" unicode="e" /><glyph d="M139 487 152 555Q169 647 221.5 688Q274 729 346 729Q381 729 417.5 716.5Q454 704 477 681Q491 667 476 645L431 584Q420 570 409 573.5Q398 577 390 582Q368 598 348 598Q330 598 313.5 587Q297 576 291 541L281 487H372Q381 487 387 480.5Q393 474 391 465L377 388Q375 379 367.5 372.5Q360 366 351 366H260L200 22Q198 13 191 6.5Q184 0 174 0H76Q68 0 62 6.5Q56 13 58 22L119 366H55Q47 366 42 373Q37 380 39 388L52 466Q54 474 61 480.5Q68 487 77 487Z" glyph-name="f" horiz-adv-x="359" unicode="f" /><glyph d="M275 126Q303 126 326.5 136.5Q350 147 367.5 166Q385 185 394.5 210Q404 235 404 264Q404 313 374.5 345Q345 377 294 377Q266 377 243 366Q220 355 203.5 336Q187 317 177.5 291.5Q168 266 168 238Q168 190 196 158Q224 126 275 126ZM210 -234Q160 -234 119.5 -222Q79 -210 49 -191Q19 -172 0 -150Q-19 -128 -28 -108Q-36 -88 -29 -80.5Q-22 -73 -14 -68L54 -31Q71 -21 79 -28Q87 -35 92 -41Q100 -52 111 -63.5Q122 -75 138 -85Q154 -95 174.5 -101.5Q195 -108 221 -108Q250 -108 272.5 -99.5Q295 -91 311.5 -77Q328 -63 338 -44.5Q348 -26 352 -6L366 57Q349 37 314.5 21.5Q280 6 232 6Q188 6 150 22Q112 38 84 67.5Q56 97 40 137.5Q24 178 24 226Q24 288 44.5 338.5Q65 389 99 425Q133 461 178.5 481Q224 501 273 501Q327 501 368 480.5Q409 460 432 426L439 465Q441 476 448 481.5Q455 487 463 487H562Q571 487 576 480Q581 473 579 465L493 -7Q473 -116 401 -175Q329 -234 210 -234Z" glyph-name="g" horiz-adv-x="582" unicode="g" /><glyph d="M148 20Q146 11 138 5.5Q130 0 122 0H23Q15 0 9.5 6Q4 12 6 21L122 679Q124 688 131 694Q138 700 146 700H247Q255 700 261 694.5Q267 689 265 680L221 440Q245 465 282 483Q319 501 364 501Q409 501 446 485.5Q483 470 508 440Q533 410 543.5 366.5Q554 323 544 267L500 20Q498 11 490.5 5.5Q483 0 475 0H377Q368 0 362.5 5.5Q357 11 359 20L399 251Q409 305 389.5 336.5Q370 368 316 368Q266 368 231.5 332Q197 296 185 232Z" glyph-name="h" horiz-adv-x="576" unicode="h" /><glyph d="M176 539Q141 539 118 565Q95 591 98 626Q101 662 128.5 688Q156 714 191 714Q226 714 249.5 688Q273 662 269 626Q266 591 238.5 565Q211 539 176 539ZM22 0Q14 0 8.5 6.5Q3 13 5 22L84 465Q86 474 93 480.5Q100 487 109 487H209Q217 487 222 480.5Q227 474 225 465L147 22Q146 13 138.5 6.5Q131 0 123 0Z" glyph-name="i" horiz-adv-x="229" unicode="i" /><glyph d="M176 539Q141 539 117.5 565Q94 591 97 626Q101 662 128 688Q155 714 190 714Q225 714 248.5 688Q272 662 269 626Q268 608 259.5 592.5Q251 577 238.5 565Q226 553 209.5 546Q193 539 176 539ZM84 465Q86 473 93 480Q100 487 109 487H208Q216 487 222 480Q228 473 226 465L133 -61Q117 -153 63.5 -193.5Q10 -234 -62 -234Q-97 -234 -133.5 -222Q-170 -210 -193 -187Q-207 -172 -192 -151L-147 -90Q-136 -75 -125 -79Q-114 -83 -106 -88Q-84 -103 -64 -103Q-46 -103 -29.5 -92.5Q-13 -82 -7 -47Z" glyph-name="j" horiz-adv-x="230" unicode="j" /><glyph d="M148 21Q147 12 140 6Q133 0 124 0H24Q15 0 9.5 6Q4 12 6 21L122 679Q124 688 131.5 694Q139 700 147 700H247Q256 700 261 694Q266 688 264 679L200 317H237L374 471Q389 487 406 487H516Q531 487 535 476Q539 465 528 452L347 260L484 36Q492 23 485.5 11.5Q479 0 462 0H365Q351 0 345 4Q339 8 334 18L227 203H180Z" glyph-name="k" horiz-adv-x="517" unicode="k" /><glyph d="M133 0Q67 0 39.5 34Q12 68 22 122L120 678Q122 687 129 693.5Q136 700 145 700H245Q254 700 259 693.5Q264 687 262 678L169 151Q167 137 172.5 128.5Q178 120 191 120H223Q231 120 236.5 115.5Q242 111 240 100L227 26Q224 9 213.5 4.5Q203 0 194 0Z" glyph-name="l" horiz-adv-x="274" unicode="l" /><glyph d="M147 20Q145 11 137 5.5Q129 0 121 0H22Q14 0 8.5 6Q3 12 5 21L84 465Q86 474 92.5 480.5Q99 487 108 487H208Q216 487 221.5 481Q227 475 225 467L220 436Q246 463 283 482Q320 501 367 501Q418 501 454 479Q490 457 505 422Q547 467 592.5 484Q638 501 679 501Q732 501 770 483Q808 465 830.5 436Q853 407 861 370Q869 333 862 295L813 20Q811 11 803.5 5.5Q796 0 788 0H689Q681 0 675 5.5Q669 11 671 20L714 261Q722 307 702 337Q682 367 635 367Q587 367 559 336Q531 305 522 260L479 20Q477 11 469.5 5.5Q462 0 454 0H356Q347 0 341.5 5.5Q336 11 338 20L381 261Q389 307 369 337Q349 367 302 367Q253 367 225 335.5Q197 304 189 258Z" glyph-name="m" horiz-adv-x="889" unicode="m" /><glyph d="M398 251Q408 305 388 336.5Q368 368 315 368Q264 368 230 332Q196 296 184 232L147 20Q145 11 137 5.5Q129 0 121 0H22Q14 0 8.5 6Q3 12 5 21L84 465Q86 474 92.5 480.5Q99 487 108 487H204Q212 487 218 481Q224 475 222 467L216 436Q235 459 273.5 480Q312 501 363 501Q408 501 445 485.5Q482 470 507 440Q532 410 542.5 366.5Q553 323 543 267L499 20Q497 11 489.5 5.5Q482 0 474 0H376Q367 0 361.5 5.5Q356 11 358 20Z" glyph-name="n" horiz-adv-x="575" unicode="n" /><glyph d="M296 501Q349 501 394 483Q439 465 471.5 432.5Q504 400 522.5 356Q541 312 541 261Q541 203 520.5 153Q500 103 463.5 66Q427 29 377 7.5Q327 -14 269 -14Q216 -14 171 4Q126 22 93.5 54.5Q61 87 42.5 131Q24 175 24 226Q24 284 44.5 334Q65 384 101.5 421Q138 458 188 479.5Q238 501 296 501ZM291 373Q264 373 240.5 362Q217 351 200.5 331.5Q184 312 174.5 286Q165 260 165 231Q165 204 174 182Q183 160 198 144.5Q213 129 232.5 121Q252 113 274 113Q301 113 324.5 124.5Q348 136 364.5 155.5Q381 175 390.5 200.5Q400 226 400 255Q400 311 368 342Q336 373 291 373Z" glyph-name="o" horiz-adv-x="563" unicode="o" /><glyph d="M312 372Q284 372 260.5 360Q237 348 220 328Q203 308 193 282Q183 256 183 227Q183 178 212.5 144.5Q242 111 292 111Q320 111 343.5 122.5Q367 134 384.5 154Q402 174 411.5 200Q421 226 421 255Q421 303 392 337.5Q363 372 312 372ZM108 -196Q106 -205 99.5 -211Q93 -217 84 -217H-15Q-24 -217 -29 -211Q-34 -205 -32 -196L84 465Q86 474 93 480.5Q100 487 109 487H207Q216 487 221.5 480Q227 473 225 465L219 434Q238 460 275 480Q312 500 359 500Q402 500 439.5 483.5Q477 467 504.5 437Q532 407 548 365.5Q564 324 564 275Q564 210 543.5 156.5Q523 103 488 65Q453 27 406.5 6.5Q360 -14 309 -14Q255 -14 215.5 6Q176 26 154 61Z" glyph-name="p" horiz-adv-x="585" unicode="p" /><glyph d="M340 -217Q331 -217 325.5 -211Q320 -205 322 -196L367 44Q348 24 314 5Q280 -14 228 -14Q185 -14 147.5 3Q110 20 82.5 50.5Q55 81 39 123Q23 165 23 214Q23 279 44 332Q65 385 100.5 422.5Q136 460 182 480.5Q228 501 278 501Q332 501 372 480.5Q412 460 434 426L441 465Q446 487 465 487H564Q572 487 577.5 480.5Q583 474 581 465L464 -196Q462 -205 455 -211Q448 -217 439 -217ZM275 111Q303 111 326.5 122.5Q350 134 367.5 154Q385 174 395 200.5Q405 227 405 256Q405 305 375.5 338.5Q346 372 295 372Q267 372 243.5 360Q220 348 202.5 328Q185 308 175.5 282Q166 256 166 227Q166 179 195 145Q224 111 275 111Z" glyph-name="q" horiz-adv-x="584" unicode="q" /><glyph d="M360 494Q368 494 375.5 489Q383 484 381 468L362 366Q359 349 348.5 344.5Q338 340 331 340H299Q253 340 224 315Q195 290 184 234L147 20Q145 11 138 5.5Q131 0 122 0H22Q13 0 8 6Q3 12 5 21L84 465Q86 474 92.5 480.5Q99 487 108 487H197Q206 487 211.5 481Q217 475 216 467L205 410Q228 452 264.5 473Q301 494 342 494Z" glyph-name="r" horiz-adv-x="352" unicode="r" /><glyph d="M41 339Q41 374 55 403.5Q69 433 96 455Q123 477 161.5 489Q200 501 247 501Q311 501 363.5 482.5Q416 464 449 435Q472 415 446 387L410 351Q399 339 387.5 339Q376 339 362 349Q336 366 307 378Q278 390 246 390Q218 390 201 380Q184 370 184 354Q184 340 194.5 331.5Q205 323 231 315L300 294Q362 276 399 242Q436 208 437 154Q437 120 423.5 89.5Q410 59 383 36Q356 13 316 -0.5Q276 -14 223 -14Q162 -14 110 5Q58 24 28 48Q2 69 1 85.5Q0 102 17 119L46 149Q60 164 74.5 161.5Q89 159 101 149Q129 126 162 111.5Q195 97 230 97Q260 97 277.5 108.5Q295 120 295 137Q295 157 276.5 166.5Q258 176 227 185L159 205Q108 220 75 252.5Q42 285 41 339Z" glyph-name="s" horiz-adv-x="471" unicode="s" /><glyph d="M358 65Q363 54 358.5 44Q354 34 344 28Q321 14 287 1Q253 -12 205 -12Q177 -12 149.5 -2.5Q122 7 102.5 27Q83 47 74 78Q65 109 73 153L111 366H49Q39 366 34 373Q29 380 31 388L45 465Q47 475 54 481Q61 487 70 487H132L155 616Q157 626 164.5 632Q172 638 181 638H280Q289 638 294.5 632Q300 626 298 616L274 487H398Q407 487 413 481Q419 475 417 465L403 388Q401 379 394 372.5Q387 366 378 366H253L220 179Q217 161 218.5 149.5Q220 138 225 131.5Q230 125 236.5 122.5Q243 120 249 120Q265 120 274.5 124Q284 128 300 136Q313 141 321 136Q329 131 334 120Z" glyph-name="t" horiz-adv-x="393" unicode="t" /><glyph d="M177 216Q168 164 188.5 136Q209 108 257 108Q305 108 334 138.5Q363 169 371 217L416 467Q418 475 425.5 481Q433 487 441 487H540Q549 487 553.5 480.5Q558 474 556 465L479 21Q477 12 470 6Q463 0 455 0H357Q349 0 342.5 5.5Q336 11 338 20L345 51Q322 23 287.5 4.5Q253 -14 197 -14Q153 -14 118.5 2Q84 18 62.5 46.5Q41 75 33 114.5Q25 154 33 200L80 467Q82 475 89.5 481Q97 487 105 487H204Q212 487 218 481Q224 475 222 467Z" glyph-name="u" horiz-adv-x="559" unicode="u" /><glyph d="M137 0Q126 0 120.5 6.5Q115 13 113 22L49 453Q47 467 54.5 477Q62 487 75 487H177Q189 487 193.5 480.5Q198 474 199 465L235 147L383 465Q387 474 394 480.5Q401 487 413 487H525Q538 487 542 477Q546 467 540 453L316 22Q311 13 302.5 6.5Q294 0 283 0Z" glyph-name="v" horiz-adv-x="511" unicode="v" /><glyph d="M280 22Q276 13 267.5 6.5Q259 0 248 0H135Q124 0 118.5 6.5Q113 13 111 22L44 455Q41 470 48.5 478.5Q56 487 70 487H170Q182 487 186.5 480.5Q191 474 192 465L224 174L355 466Q363 487 386 487H472Q492 487 494 465L524 174L653 465Q657 473 664 480Q671 487 683 487H776Q789 487 793.5 478.5Q798 470 791 455L581 22Q576 13 568.5 6.5Q561 0 550 0H439Q428 0 422.5 6.5Q417 13 416 22L388 268Z" glyph-name="w" horiz-adv-x="762" unicode="w" /><glyph d="M127 18Q119 7 110.5 3.5Q102 0 93 0H-18Q-30 0 -33 9Q-36 18 -27 28L166 263L52 458Q47 468 52.5 477.5Q58 487 70 487H171Q180 487 188 483.5Q196 480 202 469L272 349L366 469Q374 480 382.5 483.5Q391 487 401 487H509Q521 487 523.5 477.5Q526 468 517 458L337 238L461 28Q466 18 460.5 9Q455 0 443 0H337Q329 0 322.5 3.5Q316 7 309 18L233 149Z" glyph-name="x" horiz-adv-x="500" unicode="x" /><glyph d="M77 -234Q30 -234 -6.5 -218Q-43 -202 -63 -182Q-79 -166 -61 -142L-27 -95Q-16 -79 -4 -80.5Q8 -82 18 -88Q29 -95 44 -102.5Q59 -110 79 -110Q99 -110 117 -98Q135 -86 148 -63L180 0H127Q116 0 111.5 6Q107 12 105 21L45 453Q43 467 49.5 477Q56 487 74 487H181Q189 487 194 480.5Q199 474 200 465L233 125L381 465Q385 473 391.5 480Q398 487 411 487H526Q540 487 543.5 477.5Q547 468 540 453L285 -81Q253 -152 204 -193Q155 -234 77 -234Z" glyph-name="y" horiz-adv-x="514" unicode="y" /><glyph d="M193 124 410 124Q418 124 423.5 118Q429 112 427 103L412 20Q410 12 403 6Q396 0 387 0H1Q-8 0 -13.5 6.5Q-19 13 -17 22L-4 90Q-2 99 1 104.5Q4 110 10 115L272 362H75Q65 362 60 369Q55 376 57 385L71 465Q73 474 80 480.5Q87 487 96 487H461Q470 487 475.5 480Q481 473 479 465L467 397Q465 388 461 382.5Q457 377 452 372Z" glyph-name="z" horiz-adv-x="471" unicode="z" /><glyph d="M201 40Q197 20 204.5 11.5Q212 3 229 3H270Q279 3 284.5 -3Q290 -9 288 -19L277 -81Q275 -90 267.5 -96.5Q260 -103 252 -103H167Q100 -103 69 -73Q38 -43 51 28L87 238Q92 261 84.5 268.5Q77 276 59 276H48Q41 276 33.5 280.5Q26 285 29 302L38 356Q41 373 50.5 378Q60 383 67 383H78Q96 383 106 390.5Q116 398 120 420L155 619Q167 690 203.5 720Q240 750 307 750H402Q410 750 416 743.5Q422 737 420 728L409 665Q407 656 399.5 649.5Q392 643 383 643H342Q324 643 314 635Q304 627 300 606L271 438Q265 403 249.5 382Q234 361 217.5 349Q201 337 187.5 333Q174 329 172 329Q174 329 186 325Q198 321 210.5 309Q223 297 230.5 276Q238 255 232 220Z" glyph-name="braceleft" horiz-adv-x="350" unicode="{" /><glyph d="M132 -125Q123 -125 116.5 -118.5Q110 -112 110 -103V804Q110 813 116.5 819Q123 825 132 825H203Q212 825 218.5 819Q225 813 225 804V-103Q225 -112 218.5 -118.5Q212 -125 203 -125Z" glyph-name="bar" horiz-adv-x="295" unicode="|" /><glyph d="M110 220Q116 255 131.5 276Q147 297 163.5 309Q180 321 193.5 325Q207 329 209 329Q207 329 195 333Q183 337 171 349Q159 361 151 382Q143 403 149 438L178 606Q182 627 175 635Q168 643 150 643H109Q101 643 95 649.5Q89 656 91 665L102 728Q104 737 111.5 743.5Q119 750 128 750H213Q279 750 310 720Q341 690 329 619L294 420Q290 398 297 390.5Q304 383 322 383H333Q340 383 348 378Q356 373 352 356L343 302Q341 285 331.5 280.5Q322 276 315 276H303Q285 276 275.5 268.5Q266 261 261 238L225 28Q212 -43 175.5 -73Q139 -103 73 -103H-22Q-31 -103 -37 -96.5Q-43 -90 -41 -81L-29 -19Q-27 -9 -19.5 -3Q-12 3 -3 3H38Q55 3 65 11.5Q75 20 79 40Z" glyph-name="braceright" horiz-adv-x="349" unicode="}" /><glyph d="M442 401Q458 401 469 406Q480 411 489 417Q498 423 505.5 428.5Q513 434 523 435Q539 438 549 422L575 375Q586 358 579 342Q576 333 564 319.5Q552 306 534 293.5Q516 281 493 272Q470 263 443 263Q422 263 385.5 268.5Q349 274 310.5 280.5Q272 287 239.5 293Q207 299 195 299Q179 299 168 294Q157 289 148 283Q139 277 131.5 271.5Q124 266 114 264Q97 262 88 278L62 325Q52 343 58 358Q62 367 73.5 380.5Q85 394 103 406.5Q121 419 144 428Q167 437 194 437Q213 437 249 431.5Q285 426 323.5 419Q362 412 395.5 406.5Q429 401 442 401Z" glyph-name="asciitilde" horiz-adv-x="600" unicode="~" /><glyph d="" glyph-name="uni00A0" horiz-adv-x="388" unicode=" " /><glyph d="M171 501Q210 501 235 473Q260 445 257 407Q256 388 247 370.5Q238 353 224 340Q210 327 192 319.5Q174 312 154 312Q115 312 89.5 340Q64 368 68 407Q70 426 78.5 443Q87 460 101.5 473Q116 486 134 493.5Q152 501 171 501ZM62 225Q64 234 71.5 240.5Q79 247 88 247H190Q199 247 204.5 240.5Q210 234 208 225L136 -191Q135 -200 127 -206.5Q119 -213 111 -213H6Q-3 -213 -8.5 -206.5Q-14 -200 -12 -191Z" glyph-name="exclamdown" horiz-adv-x="271" unicode="¡" /><glyph d="M180 228Q180 193 195.5 166.5Q211 140 237 126L280 369Q236 359 208 319.5Q180 280 180 228ZM273 -83Q271 -97 255 -97H211Q198 -97 200 -83L214 -6Q174 4 141.5 25.5Q109 47 86 77Q63 107 51 144Q39 181 39 222Q39 282 59.5 333.5Q80 385 115.5 422Q151 459 199 480Q247 501 302 501H303L316 575Q318 589 332 589H377Q391 589 389 575L374 493Q433 479 469.5 445.5Q506 412 522 372Q526 362 521 352Q516 342 505 336L444 303Q429 295 420.5 301.5Q412 308 407 314Q384 351 352 364L308 116Q350 124 385 161Q391 167 401.5 171Q412 175 426 164L479 120Q487 113 488 100.5Q489 88 482 79Q450 37 400.5 11.5Q351 -14 285 -14Z" glyph-name="cent" horiz-adv-x="543" unicode="¢" /><glyph d="M543 22Q541 13 533.5 6.5Q526 0 516 0H20Q11 0 5.5 6.5Q0 13 1 23L19 120Q21 130 28.5 136Q36 142 45 142H103L125 267H67Q58 267 52 273.5Q46 280 48 290L62 366Q64 376 71.5 383Q79 390 88 390H147L162 477Q182 589 248 651.5Q314 714 421 714Q462 714 497 703Q532 692 560 674Q588 656 607.5 633Q627 610 637 585Q642 573 637 564.5Q632 556 621 550L556 512Q539 502 529 507.5Q519 513 515 520Q500 545 476 563Q452 581 420 581Q394 581 375 571.5Q356 562 342.5 546Q329 530 320.5 508Q312 486 308 462L295 390H448Q457 390 462.5 383Q468 376 466 366L452 290Q450 280 443 273.5Q436 267 427 267H273L251 142H541Q551 142 556.5 135.5Q562 129 560 119Z" glyph-name="sterling" horiz-adv-x="614" unicode="£" /><glyph d="M180 12Q173 5 164 5Q155 5 148 12L108 52Q91 67 108 84L177 153Q145 195 127 244.5Q109 294 109 350Q109 407 127 456.5Q145 506 177 548L108 617Q100 624 100 633Q100 642 108 649L148 688Q155 696 164 695.5Q173 695 180 688L252 616Q293 644 341 659Q389 674 444 674Q498 674 546.5 659Q595 644 635 616L707 688Q724 703 739 688L780 649Q787 642 787 633Q787 624 779 617L710 547Q742 505 760 455.5Q778 406 778 350Q778 294 760 244.5Q742 195 710 154L779 84Q796 68 780 52L739 12Q724 -3 707 12L635 85Q595 57 546.5 41.5Q498 26 444 26Q389 26 341 41.5Q293 57 252 85ZM444 562Q414 562 387 553.5Q360 545 337 531L444 423L550 531Q527 545 500 553.5Q473 562 444 562ZM267 459Q236 409 236 350Q236 290 267 242L372 350ZM651 350Q651 380 643 407.5Q635 435 621 459L515 350L621 242Q635 265 643 293Q651 321 651 350ZM444 139Q473 139 500 147Q527 155 550 169L444 278L337 169Q360 155 387 147Q414 139 444 139Z" glyph-name="currency" horiz-adv-x="848" unicode="¤" /><glyph d="M380 23Q378 13 370.5 6.5Q363 0 354 0H251Q241 0 235.5 6.5Q230 13 232 23L255 155H96Q86 155 80.5 162Q75 169 77 178L87 236Q89 246 96.5 252.5Q104 259 114 259H274L277 276L259 318H125Q114 318 109 325Q104 332 106 342L116 399Q118 409 125.5 415.5Q133 422 143 422H214L108 665Q103 678 110 689Q117 700 129 700H245Q263 700 269 683L373 424H375L563 683Q575 700 591 700H721Q734 700 738 690Q742 680 731 665L540 422H610Q620 422 625.5 415.5Q631 409 629 399L618 341Q616 331 609 324.5Q602 318 591 318H460L424 272L421 259H581Q591 259 596.5 252.5Q602 246 600 236L589 178Q586 155 562 155H403Z" glyph-name="yen" horiz-adv-x="690" unicode="¥" /><glyph d="M223 451Q223 443 217 436.5Q211 430 201 430H131Q121 430 115 436.5Q109 443 109 451V804Q109 813 115 819Q121 825 131 825H201Q211 825 217 819Q223 813 223 804ZM223 -103Q223 -112 217 -118.5Q211 -125 201 -125H131Q121 -125 115 -118.5Q109 -112 109 -103V249Q109 258 115 264.5Q121 271 131 271H201Q211 271 217 264.5Q223 258 223 249Z" glyph-name="brokenbar" horiz-adv-x="293" unicode="¦" /><glyph d="M450 152Q467 142 487.5 126.5Q508 111 527 88Q583 111 586 160Q591 198 563.5 226Q536 254 491 280L341 367Q324 377 303.5 392.5Q283 408 264 431Q236 420 221.5 401.5Q207 383 205 360Q200 321 227.5 293Q255 265 301 239ZM565 -61Q558 -106 536.5 -143Q515 -180 480.5 -205.5Q446 -231 400 -244Q354 -257 298 -254Q256 -252 220.5 -240.5Q185 -229 157 -213Q129 -197 109 -177.5Q89 -158 78 -140Q66 -120 71 -107.5Q76 -95 86 -87L145 -43Q158 -34 171 -37Q184 -40 193 -51Q219 -83 245 -100.5Q271 -118 309 -121Q351 -123 376.5 -103Q402 -83 404 -55Q408 -25 390 -2Q372 21 327 46L169 137Q103 176 70 232Q37 288 47 358Q51 385 63 412.5Q75 440 96.5 465Q118 490 149.5 511.5Q181 533 224 546Q224 554 224 562.5Q224 571 226 580Q233 625 254.5 662Q276 699 309.5 724.5Q343 750 388.5 763Q434 776 490 773Q532 771 567.5 760Q603 749 630.5 732.5Q658 716 678 697Q698 678 709 660Q722 640 717 627.5Q712 615 702 607L646 563Q634 553 621 556Q608 559 599 570Q573 602 546.5 620Q520 638 483 640Q441 642 415 622Q389 602 387 574Q383 544 401 521.5Q419 499 464 473L622 382Q688 343 721.5 287.5Q755 232 744 161Q740 134 728 106.5Q716 79 694.5 54Q673 29 642 8Q611 -13 568 -26Q568 -43 565 -61Z" glyph-name="section" horiz-adv-x="783" unicode="§" /><glyph d="M87 621Q90 658 118 684Q146 710 181 710Q218 710 241.5 684Q265 658 261 621Q258 584 230 558Q202 532 166 532Q130 532 106.5 558Q83 584 87 621ZM305 621Q308 658 336 684Q364 710 400 710Q436 710 459.5 684Q483 658 480 621Q479 603 470.5 586.5Q462 570 448.5 558Q435 546 418.5 539Q402 532 384 532Q349 532 325.5 558Q302 584 305 621Z" glyph-name="dieresis" horiz-adv-x="448" unicode="¨" /><glyph d="M59 350Q59 438 92 514Q125 590 183 646.5Q241 703 319.5 735Q398 767 488 767Q578 767 656 735Q734 703 791.5 646.5Q849 590 882.5 514Q916 438 916 350Q916 262 882.5 186Q849 110 791.5 54Q734 -2 656 -34Q578 -66 488 -66Q398 -66 319.5 -34Q241 -2 183 54Q125 110 92 186Q59 262 59 350ZM830 350Q830 422 804 484.5Q778 547 732 593Q686 639 623.5 665.5Q561 692 488 692Q415 692 352 665.5Q289 639 243 593Q197 547 171 484.5Q145 422 145 350Q145 278 171 215.5Q197 153 243 107.5Q289 62 352 35.5Q415 9 488 9Q561 9 623.5 35.5Q686 62 732 107.5Q778 153 804 215.5Q830 278 830 350ZM231 351Q231 404 250.5 450Q270 496 304.5 529.5Q339 563 385.5 582Q432 601 487 601Q562 601 617 569Q672 537 701 489Q707 478 703 467Q699 456 689 450L627 409Q613 400 602 404Q591 408 584 416Q564 439 543 453Q522 467 489 467Q439 467 408 433.5Q377 400 377 351Q377 303 408 269.5Q439 236 489 236Q522 236 543 250Q564 264 584 287Q591 295 602 299Q613 303 627 294L689 253Q699 247 703 236.5Q707 226 701 215Q672 167 617 134.5Q562 102 487 102Q432 102 385.5 121Q339 140 304.5 173.5Q270 207 250.5 252.5Q231 298 231 351Z" glyph-name="copyright" horiz-adv-x="936" unicode="©" /><glyph d="M275 620Q240 620 216.5 595Q193 570 193 535Q193 499 216.5 474Q240 449 275 449Q310 449 333.5 474Q357 499 357 535Q357 570 333.5 595Q310 620 275 620ZM358 397Q344 377 318.5 365.5Q293 354 260 354Q227 354 196 366.5Q165 379 141 402.5Q117 426 102.5 459.5Q88 493 88 535Q88 577 102.5 610.5Q117 644 141 667.5Q165 691 196.5 703.5Q228 716 261 716Q294 716 319 704Q344 692 358 673V690Q358 706 374 706H443Q459 706 459 690V379Q459 363 443 363H374Q358 363 358 379ZM130 221Q113 221 113 238V303Q113 311 117.5 316Q122 321 130 321H442Q449 321 454 316Q459 311 459 303V238Q459 230 454 225.5Q449 221 442 221Z" glyph-name="ordfeminine" horiz-adv-x="488" unicode="ª" /><glyph d="M163 8Q153 8 146.5 11.5Q140 15 135 26L30 238Q22 255 36 271L195 466Q203 477 211 480Q219 483 228 483H311Q319 483 323.5 474.5Q328 466 320 455L180 246L248 37Q251 26 244 17Q237 8 228 8ZM390 8Q381 8 374.5 11.5Q368 15 362 26L258 238Q250 254 263 271L423 466Q431 477 439 480Q447 483 456 483H539Q547 483 551 474.5Q555 466 548 455L407 246L475 37Q478 26 471.5 17Q465 8 456 8Z" glyph-name="guillemotleft" horiz-adv-x="544" unicode="«" /><glyph d="M539 186Q537 177 529.5 170.5Q522 164 513 164H410Q400 164 395 170.5Q390 177 392 186L428 394H76Q66 394 61 400.5Q56 407 58 416L75 513Q77 523 84 529.5Q91 536 101 536H578Q588 536 593 529.5Q598 523 596 513Z" glyph-name="logicalnot" horiz-adv-x="612" unicode="¬" /><glyph d="M59 350Q59 438 91.5 514Q124 590 181 646.5Q238 703 315 735Q392 767 480 767Q569 767 645.5 735Q722 703 779 646.5Q836 590 868.5 514Q901 438 901 350Q901 262 868.5 186Q836 110 779 54Q722 -2 645.5 -34Q569 -66 480 -66Q392 -66 315 -34Q238 -2 181 54Q124 110 91.5 186Q59 262 59 350ZM816 350Q816 422 790.5 484.5Q765 547 720 593Q675 639 613.5 665.5Q552 692 480 692Q408 692 346.5 665.5Q285 639 239.5 593Q194 547 168.5 484.5Q143 422 143 350Q143 278 168.5 215.5Q194 153 239.5 107.5Q285 62 346.5 35.5Q408 9 480 9Q552 9 613.5 35.5Q675 62 720 107.5Q765 153 790.5 215.5Q816 278 816 350ZM584 427Q584 458 564 477Q544 496 513 496H426V358H513Q544 359 564 378Q584 397 584 427ZM323 103Q316 103 311 107Q306 111 306 118V580Q306 587 311 592Q316 597 323 597H518Q564 597 599.5 583Q635 569 659 545Q683 521 695.5 490.5Q708 460 708 427Q708 380 683 339Q658 298 609 276L695 129Q701 118 697 111Q693 104 682 104H593Q580 104 573 108.5Q566 113 561 123L486 258H426V118Q426 111 421 107Q416 103 409 103Z" glyph-name="registered" horiz-adv-x="921" unicode="®" /><glyph d="M141 553Q132 553 126.5 559.5Q121 566 123 576L136 652Q138 662 146 668Q154 674 164 674H478Q487 674 492.5 668Q498 662 496 652L484 576Q482 566 474 559.5Q466 553 456 553Z" glyph-name="macron" horiz-adv-x="497" unicode="¯" /><glyph d="M80 552Q80 586 93.5 615.5Q107 645 129.5 667Q152 689 182.5 701.5Q213 714 247 714Q282 714 312 701.5Q342 689 365 667Q388 645 401 615.5Q414 586 414 552Q414 518 401 488Q388 458 365 436Q342 414 312 401.5Q282 389 247 389Q213 389 182.5 401.5Q152 414 129.5 436Q107 458 93.5 488Q80 518 80 552ZM170 552Q170 518 192 495Q214 472 247 472Q280 472 302 495Q324 518 324 552Q324 586 302 608.5Q280 631 247 631Q214 631 192 608.5Q170 586 170 552Z" glyph-name="degree" horiz-adv-x="387" unicode="°" /><glyph d="M429 682Q438 682 443.5 675.5Q449 669 447 660L416 484H581Q591 484 596 477.5Q601 471 599 461L583 364Q581 355 573.5 348.5Q566 342 557 342H392L360 166Q358 156 350.5 149.5Q343 143 333 143H231Q222 143 216.5 149.5Q211 156 213 166L244 342H79Q70 342 64.5 348.5Q59 355 61 364L78 461Q80 471 87.5 477.5Q95 484 104 484H268L300 660Q302 669 309.5 675.5Q317 682 326 682ZM523 23Q521 13 513 6.5Q505 0 497 0H19Q10 0 4.5 6.5Q-1 13 1 23L18 119Q20 129 27 135.5Q34 142 44 142H521Q531 142 536 135.5Q541 129 540 119Z" glyph-name="plusminus" horiz-adv-x="598" unicode="±" /><glyph d="M87 499Q76 499 78 510L85 547Q87 556 91 561Q95 566 98 568L208 650Q252 682 269.5 703Q287 724 287 745Q287 765 273.5 776Q260 787 240 787Q214 787 199.5 772.5Q185 758 179 742Q171 723 153 729L116 742Q105 746 108 760Q120 798 154.5 827.5Q189 857 246 857Q270 857 292 849.5Q314 842 330.5 828.5Q347 815 357 796.5Q367 778 367 755Q367 711 337 677.5Q307 644 261 612L198 566H330Q342 566 340 556L332 510Q330 499 319 499Z" glyph-name="twosuperior" horiz-adv-x="305" unicode="²" /><glyph d="M210 493Q147 493 113 526.5Q79 560 84 608L85 618Q86 629 99 629H149Q160 629 157 619L156 612Q153 590 167 573.5Q181 557 212 557Q241 557 255.5 574Q270 591 270 611Q270 630 255.5 644Q241 658 209 658H190Q186 658 183 660.5Q180 663 181 669L186 697Q187 706 194 713L271 779H134Q129 779 126 783Q123 787 125 792L133 838Q134 843 138 846.5Q142 850 147 850H359Q370 850 368 838L363 798Q361 787 359 782.5Q357 778 353 774L272 706Q307 698 327.5 673.5Q348 649 348 612Q348 590 339 568.5Q330 547 312.5 530Q295 513 269.5 503Q244 493 210 493Z" glyph-name="threesuperior" horiz-adv-x="305" unicode="³" /><glyph d="M300 741Q317 741 322.5 729Q328 717 320 707L199 552Q192 544 187 540Q182 536 172 536H106Q91 536 83 545Q75 554 80 568L149 722Q157 741 176 741Z" glyph-name="acute" horiz-adv-x="277" unicode="´" /><glyph d="M118 -136Q116 -145 109 -151.5Q102 -158 93 -158H16Q7 -158 2 -151.5Q-3 -145 -1 -136L106 467Q108 475 115 481Q122 487 130 487H229Q237 487 243 481Q249 475 248 467L203 216Q194 164 214.5 136Q235 108 283 108Q331 108 360 138.5Q389 169 397 217L441 467Q443 475 450.5 481Q458 487 466 487H566Q575 487 579.5 480.5Q584 474 582 465L504 21Q502 12 495.5 6Q489 0 480 0H383Q374 0 368 5.5Q362 11 364 20L370 51Q347 23 313 4.5Q279 -14 231 -14Q178 -14 145 14Z" glyph-name="mu" horiz-adv-x="607" unicode="µ" /><glyph d="M612 700Q621 700 626.5 693.5Q632 687 630 678L515 23Q513 13 506 6.5Q499 0 490 0H424Q415 0 409.5 6.5Q404 13 406 22L510 608H419L314 22Q311 0 290 0H224Q215 0 209.5 6Q204 12 206 22L247 253H243Q203 253 170.5 267.5Q138 282 115.5 308Q93 334 80.5 369Q68 404 68 444Q68 498 88.5 545Q109 592 145 626.5Q181 661 230.5 680.5Q280 700 338 700Z" glyph-name="paragraph" horiz-adv-x="634" unicode="¶" /><glyph d="M149 254Q129 254 111 262Q93 270 79.5 283.5Q66 297 58.5 315Q51 333 51 353Q51 374 59.5 392Q68 410 81.5 423.5Q95 437 113 444.5Q131 452 151 452Q193 452 221.5 423.5Q250 395 249 353Q249 333 240.5 315Q232 297 218.5 283.5Q205 270 187 262Q169 254 149 254Z" glyph-name="periodcentered" horiz-adv-x="263" unicode="·" /><glyph d="M274 3 171 -149Q164 -159 157 -161Q150 -163 141 -163H64Q52 -163 45.5 -155Q39 -147 45 -135L126 24Z" glyph-name="cedilla" horiz-adv-x="272" unicode="¸" /><glyph d="M109 794Q112 807 123 807H138Q158 807 169.5 814Q181 821 191 839Q195 846 199.5 847.5Q204 849 209 849H243Q254 849 252 838L195 511Q192 499 181 499H127Q123 499 120 502.5Q117 506 118 511L159 743H111Q100 743 102 753Z" glyph-name="onesuperior" horiz-adv-x="189" unicode="¹" /><glyph d="M273 353Q234 353 200.5 367Q167 381 141.5 405Q116 429 101.5 462Q87 495 87 533Q87 571 101.5 604.5Q116 638 141.5 663Q167 688 200.5 702Q234 716 273 716Q312 716 346 702Q380 688 405 663Q430 638 444.5 604.5Q459 571 459 533Q459 495 444.5 462Q430 429 405 405Q380 381 346 367Q312 353 273 353ZM273 619Q238 619 214.5 594Q191 569 191 534Q191 499 214.5 474Q238 449 273 449Q308 449 331.5 474Q355 499 355 534Q355 569 331.5 594Q308 619 273 619ZM118 221Q101 221 101 238V303Q101 311 105.5 316Q110 321 118 321H427Q435 321 440 316Q445 311 445 303V238Q445 230 440 225.5Q435 221 427 221Z" glyph-name="ordmasculine" horiz-adv-x="473" unicode="º" /><glyph d="M157 483Q166 483 172.5 480Q179 477 185 466L287 253Q294 237 282 220L122 26Q114 15 105.5 11.5Q97 8 88 8H6Q-3 8 -7 17Q-11 26 -3 37L137 246L72 455Q68 466 75 474.5Q82 483 91 483ZM377 483Q386 483 392.5 480Q399 477 405 466L507 253Q514 237 502 220L342 26Q334 15 325.5 11.5Q317 8 308 8H226Q217 8 213 17Q209 26 217 37L357 246L292 455Q288 466 295 474.5Q302 483 311 483Z" glyph-name="guillemotright" horiz-adv-x="535" unicode="»" /><glyph d="M89 19Q82 11 74.5 5.5Q67 0 53 0H33Q16 0 13.5 10.5Q11 21 21 32L584 681Q591 689 598 694.5Q605 700 619 700H640Q656 700 659 689.5Q662 679 652 668ZM104 645Q107 658 118 658H134Q154 658 165.5 665Q177 672 186 690Q191 697 195.5 698.5Q200 700 205 700H238Q250 700 248 689L191 362Q188 350 176 350H123Q111 350 113 362L154 594H107Q96 594 98 604ZM352 90Q339 90 341 102L349 143Q351 151 353 157.5Q355 164 361 171L517 341Q521 345 525 347.5Q529 350 535 350H609Q622 350 620 339L587 152H626Q638 152 636 141L629 102Q627 90 616 90H576L563 12Q560 0 547 0H495Q484 0 487 12L500 90ZM511 152 533 274L422 152Z" glyph-name="onequarter" horiz-adv-x="683" unicode="¼" /><glyph d="M87 19Q80 11 72.5 5.5Q65 0 51 0H31Q14 0 11.5 10.5Q9 21 19 32L582 681Q589 689 596 694.5Q603 700 617 700H638Q654 700 657 689.5Q660 679 650 668ZM103 645Q106 658 117 658H133Q153 658 164.5 665Q176 672 185 690Q190 697 194.5 698.5Q199 700 204 700H237Q249 700 247 689L190 362Q187 350 175 350H122Q110 350 112 362L153 594H106Q95 594 97 604ZM395 0Q384 0 386 11L393 48Q395 57 399.5 62Q404 67 407 69L516 151Q561 183 578.5 204Q596 225 596 246Q596 266 582 277Q568 288 548 288Q522 288 507.5 273.5Q493 259 487 243Q479 224 462 230L424 243Q413 247 416 261Q428 299 463 328.5Q498 358 555 358Q579 358 601 350.5Q623 343 639.5 329.5Q656 316 665.5 297.5Q675 279 675 256Q675 212 645 178Q615 144 570 112L507 67H639Q650 67 648 57L640 11Q638 0 627 0Z" glyph-name="onehalf" horiz-adv-x="711" unicode="½" /><glyph d="M157 19Q150 11 142.5 5.5Q135 0 121 0H101Q84 0 81 10.5Q78 21 89 32L652 681Q659 689 666 694.5Q673 700 687 700H708Q724 700 726.5 689.5Q729 679 720 668ZM198 343Q135 343 101 376.5Q67 410 72 458L73 468Q74 479 87 479H137Q148 479 145 469L144 462Q141 441 155 424.5Q169 408 200 408Q229 408 243.5 424.5Q258 441 258 461Q258 480 243.5 494.5Q229 509 197 509H178Q174 509 171 511.5Q168 514 169 520L174 548Q175 556 182 564L259 630H122Q117 630 114 633.5Q111 637 113 642L121 689Q122 694 126 697Q130 700 135 700H347Q358 700 356 689L351 649Q349 638 347 633Q345 628 341 624L260 557Q295 548 315.5 523.5Q336 499 336 462Q336 440 327 418.5Q318 397 300.5 380.5Q283 364 257.5 353.5Q232 343 198 343ZM419 90Q406 90 408 102L416 143Q418 151 420 157.5Q422 164 429 171L584 341Q588 345 592 347.5Q596 350 602 350H677Q689 350 687 339L654 152H693Q705 152 703 141L696 102Q694 90 683 90H644L630 12Q628 0 615 0H562Q551 0 554 12L568 90ZM578 152 600 274L489 152Z" glyph-name="threequarters" horiz-adv-x="749" unicode="¾" /><glyph d="M279 500Q318 500 343 472Q368 444 365 406Q364 387 355 369.5Q346 352 332 339Q318 326 300 318.5Q282 311 262 311Q243 311 226.5 318.5Q210 326 198 339Q186 352 180 369.5Q174 387 176 406Q178 425 186.5 442Q195 459 209.5 472Q224 485 242 492.5Q260 500 279 500ZM191 -226Q142 -226 103 -211.5Q64 -197 37.5 -173Q11 -149 -3 -118Q-17 -87 -17 -53Q-17 1 10 41Q37 81 70.5 113.5Q104 146 133.5 173Q163 200 168 228L169 236Q173 256 194 256H297Q306 256 311.5 250Q317 244 315 234L311 208Q304 170 277 137.5Q250 105 220 76Q190 47 166.5 20Q143 -7 143 -34Q143 -57 160 -75.5Q177 -94 210 -94Q242 -94 267 -77Q292 -60 316 -33Q328 -19 341 -19.5Q354 -20 365 -28L417 -70Q425 -77 428 -91.5Q431 -106 410 -131Q397 -146 377.5 -162.5Q358 -179 331 -193.5Q304 -208 269 -217Q234 -226 191 -226Z" glyph-name="questiondown" horiz-adv-x="509" unicode="¿" /><glyph d="M402 954Q424 954 429 935L475 781Q479 766 471.5 757.5Q464 749 449 749H382Q365 749 356 765L258 920Q251 931 256.5 942.5Q262 954 279 954ZM393 572 257 288H437ZM130 20Q126 12 119 6Q112 0 104 0H-10Q-22 0 -27.5 9.5Q-33 19 -25 35L299 678Q306 690 314 695Q322 700 330 700H499Q507 700 514 695Q521 690 523 678L634 35Q637 18 629 9Q621 0 608 0H500Q482 0 479 20L456 162H197Z" glyph-name="Agrave" horiz-adv-x="675" unicode="À" /><glyph d="M583 954Q600 954 605.5 942Q611 930 603 920L482 765Q475 757 470 753Q465 749 455 749H389Q374 749 366 758Q358 767 363 781L432 935Q440 954 459 954ZM393 572 257 288H437ZM130 20Q126 12 119 6Q112 0 104 0H-10Q-22 0 -27.5 9.5Q-33 19 -25 35L299 678Q306 690 314 695Q322 700 330 700H499Q507 700 514 695Q521 690 523 678L634 35Q637 18 629 9Q621 0 608 0H500Q482 0 479 20L456 162H197Z" glyph-name="Aacute" horiz-adv-x="675" unicode="Á" /><glyph d="M509 954Q526 954 536 933L601 781Q607 767 600 758Q593 749 582 749H505Q493 749 488 753Q483 757 478 766L435 844L364 766Q356 757 349.5 753Q343 749 332 749H239Q230 749 224.5 758Q219 767 230 781L348 933Q365 954 383 954ZM393 572 257 288H437ZM130 20Q126 12 119 6Q112 0 104 0H-10Q-22 0 -27.5 9.5Q-33 19 -25 35L299 678Q306 690 314 695Q322 700 330 700H499Q507 700 514 695Q521 690 523 678L634 35Q637 18 629 9Q621 0 608 0H500Q482 0 479 20L456 162H197Z" glyph-name="Acircumflex" horiz-adv-x="675" unicode="Â" /><glyph d="M344 927Q362 927 384.5 922Q407 917 428.5 910.5Q450 904 469 899Q488 894 499 894Q514 894 524 898.5Q534 903 542 908Q550 913 556.5 918.5Q563 924 571 925Q587 930 596 912L617 868Q625 850 621 838Q618 826 607.5 812.5Q597 799 580 788Q563 777 542 769.5Q521 762 497 762Q478 762 455 767Q432 772 410.5 778Q389 784 370.5 789Q352 794 342 794Q327 794 317 790Q307 786 299.5 780.5Q292 775 286 770Q280 765 272 763Q254 759 246 776L223 821Q216 835 219 850Q222 862 233 875.5Q244 889 261 900.5Q278 912 299.5 919.5Q321 927 344 927ZM393 572 257 288H437ZM130 20Q126 12 119 6Q112 0 104 0H-10Q-22 0 -27.5 9.5Q-33 19 -25 35L299 678Q306 690 314 695Q322 700 330 700H499Q507 700 514 695Q521 690 523 678L634 35Q637 18 629 9Q621 0 608 0H500Q482 0 479 20L456 162H197Z" glyph-name="Atilde" horiz-adv-x="675" unicode="Ã" /><glyph d="M235 834Q238 871 266 897Q294 923 329 923Q366 923 389.5 897Q413 871 409 834Q406 797 378 771Q350 745 314 745Q278 745 254.5 771Q231 797 235 834ZM453 834Q456 871 484 897Q512 923 548 923Q584 923 607.5 897Q631 871 628 834Q627 816 618.5 799.5Q610 783 596.5 771Q583 759 566.5 752Q550 745 532 745Q497 745 473.5 771Q450 797 453 834ZM393 572 257 288H437ZM130 20Q126 12 119 6Q112 0 104 0H-10Q-22 0 -27.5 9.5Q-33 19 -25 35L299 678Q306 690 314 695Q322 700 330 700H499Q507 700 514 695Q521 690 523 678L634 35Q637 18 629 9Q621 0 608 0H500Q482 0 479 20L456 162H197Z" glyph-name="Adieresis" horiz-adv-x="675" unicode="Ä" /><glyph d="M448 1038Q477 1038 503 1029Q529 1020 548.5 1002.5Q568 985 580 960Q592 935 592 903Q592 870 580 841Q568 812 546 791Q524 770 494.5 757.5Q465 745 430 745Q402 745 375.5 754.5Q349 764 329.5 781Q310 798 298 823.5Q286 849 286 880Q286 913 298 941.5Q310 970 332 991.5Q354 1013 383.5 1025.5Q413 1038 448 1038ZM434 829Q463 829 481 851Q499 873 499 898Q499 921 484.5 937.5Q470 954 444 954Q414 954 396 932.5Q378 911 378 885Q378 862 393 845.5Q408 829 434 829ZM393 572 257 288H437ZM130 20Q126 12 119 6Q112 0 104 0H-10Q-22 0 -27.5 9.5Q-33 19 -25 35L299 678Q306 690 314 695Q322 700 330 700H499Q507 700 514 695Q521 690 523 678L634 35Q637 18 629 9Q621 0 608 0H500Q482 0 479 20L456 162H197Z" glyph-name="Aring" horiz-adv-x="675" unicode="Å" /><glyph d="M406 581 264 292H445ZM138 22Q134 14 126.5 7Q119 0 107 0H-13Q-25 0 -30 8Q-35 16 -27 33L303 678Q309 690 318 695Q327 700 335 700H963Q974 700 979 693.5Q984 687 982 677L965 581Q963 571 956 564.5Q949 558 938 558H566L588 418H781Q791 418 796 411.5Q801 405 799 395L784 307Q782 298 775 291Q768 284 758 284H608L630 142H866Q875 142 880.5 135.5Q886 129 884 119L866 23Q864 13 857.5 6.5Q851 0 840 0H504Q481 0 478 22L460 162H205Z" glyph-name="AE" horiz-adv-x="931" unicode="Æ" /><glyph d="M333 -148Q326 -158 319 -160Q312 -162 303 -162H226Q214 -162 207.5 -154Q201 -146 207 -134L275 0Q223 16 180.5 47Q138 78 108 120Q78 162 62 213.5Q46 265 46 322Q46 405 75.5 476Q105 547 156 600Q207 653 275 683Q343 713 421 713Q484 713 538.5 696Q593 679 636 648Q679 617 708 573Q737 529 748 474Q749 470 747.5 462Q746 454 733 452L635 433Q616 430 610 446Q588 509 542 545Q496 581 428 581Q379 581 337 561Q295 541 264 506Q233 471 215.5 424.5Q198 378 198 325Q198 278 213 239.5Q228 201 254.5 174Q281 147 317 132Q353 117 395 117Q461 117 506 148.5Q551 180 581 230Q583 235 588 241Q593 247 605 242L701 198Q712 193 712 186.5Q712 180 709 174Q667 91 591.5 42.5Q516 -6 424 -14Z" glyph-name="Ccedilla" horiz-adv-x="724" unicode="Ç" /><glyph d="M397 954Q419 954 424 935L470 781Q474 766 466.5 757.5Q459 749 444 749H377Q360 749 351 765L253 920Q246 931 251.5 942.5Q257 954 274 954ZM655 700Q664 700 669.5 693.5Q675 687 673 677L657 584Q655 575 648 568.5Q641 562 631 562H264L239 418H430Q440 418 445.5 411.5Q451 405 449 395L433 307Q431 298 423.5 291Q416 284 407 284H216L190 138H564Q573 138 578.5 131.5Q584 125 582 116L566 23Q564 13 557 6.5Q550 0 539 0H40Q31 0 25 6.5Q19 13 21 23L137 678Q139 687 146.5 693.5Q154 700 163 700Z" glyph-name="Egrave" horiz-adv-x="626" unicode="È" /><glyph d="M578 954Q595 954 600.5 942Q606 930 598 920L477 765Q470 757 465 753Q460 749 450 749H384Q369 749 361 758Q353 767 358 781L427 935Q435 954 454 954ZM655 700Q664 700 669.5 693.5Q675 687 673 677L657 584Q655 575 648 568.5Q641 562 631 562H264L239 418H430Q440 418 445.5 411.5Q451 405 449 395L433 307Q431 298 423.5 291Q416 284 407 284H216L190 138H564Q573 138 578.5 131.5Q584 125 582 116L566 23Q564 13 557 6.5Q550 0 539 0H40Q31 0 25 6.5Q19 13 21 23L137 678Q139 687 146.5 693.5Q154 700 163 700Z" glyph-name="Eacute" horiz-adv-x="626" unicode="É" /><glyph d="M504 954Q521 954 531 933L596 781Q602 767 595 758Q588 749 577 749H500Q488 749 483 753Q478 757 473 766L430 844L359 766Q351 757 344.5 753Q338 749 327 749H234Q225 749 219.5 758Q214 767 225 781L343 933Q360 954 378 954ZM655 700Q664 700 669.5 693.5Q675 687 673 677L657 584Q655 575 648 568.5Q641 562 631 562H264L239 418H430Q440 418 445.5 411.5Q451 405 449 395L433 307Q431 298 423.5 291Q416 284 407 284H216L190 138H564Q573 138 578.5 131.5Q584 125 582 116L566 23Q564 13 557 6.5Q550 0 539 0H40Q31 0 25 6.5Q19 13 21 23L137 678Q139 687 146.5 693.5Q154 700 163 700Z" glyph-name="Ecircumflex" horiz-adv-x="626" unicode="Ê" /><glyph d="M230 834Q233 871 261 897Q289 923 324 923Q361 923 384.5 897Q408 871 404 834Q401 797 373 771Q345 745 309 745Q273 745 249.5 771Q226 797 230 834ZM448 834Q451 871 479 897Q507 923 543 923Q579 923 602.5 897Q626 871 623 834Q622 816 613.5 799.5Q605 783 591.5 771Q578 759 561.5 752Q545 745 527 745Q492 745 468.5 771Q445 797 448 834ZM655 700Q664 700 669.5 693.5Q675 687 673 677L657 584Q655 575 648 568.5Q641 562 631 562H264L239 418H430Q440 418 445.5 411.5Q451 405 449 395L433 307Q431 298 423.5 291Q416 284 407 284H216L190 138H564Q573 138 578.5 131.5Q584 125 582 116L566 23Q564 13 557 6.5Q550 0 539 0H40Q31 0 25 6.5Q19 13 21 23L137 678Q139 687 146.5 693.5Q154 700 163 700Z" glyph-name="Edieresis" horiz-adv-x="626" unicode="Ë" /><glyph d="M201 954Q223 954 228 935L274 781Q278 766 270.5 757.5Q263 749 248 749H181Q164 749 155 765L57 920Q50 931 55.5 942.5Q61 954 78 954ZM40 0Q30 0 24.5 6.5Q19 13 21 23L137 678Q139 687 146 693.5Q153 700 163 700H266Q275 700 280.5 693.5Q286 687 284 678L168 23Q166 13 159.5 6.5Q153 0 143 0Z" glyph-name="Igrave" horiz-adv-x="266" unicode="Ì" /><glyph d="M382 954Q399 954 404.5 942Q410 930 402 920L281 765Q274 757 269 753Q264 749 254 749H188Q173 749 165 758Q157 767 162 781L231 935Q239 954 258 954ZM40 0Q30 0 24.5 6.5Q19 13 21 23L137 678Q139 687 146 693.5Q153 700 163 700H266Q275 700 280.5 693.5Q286 687 284 678L168 23Q166 13 159.5 6.5Q153 0 143 0Z" glyph-name="Iacute" horiz-adv-x="266" unicode="Í" /><glyph d="M308 954Q325 954 335 933L400 781Q406 767 399 758Q392 749 381 749H304Q292 749 287 753Q282 757 277 766L234 844L163 766Q155 757 148.5 753Q142 749 131 749H38Q29 749 23.5 758Q18 767 29 781L147 933Q164 954 182 954ZM40 0Q30 0 24.5 6.5Q19 13 21 23L137 678Q139 687 146 693.5Q153 700 163 700H266Q275 700 280.5 693.5Q286 687 284 678L168 23Q166 13 159.5 6.5Q153 0 143 0Z" glyph-name="Icircumflex" horiz-adv-x="266" unicode="Î" /><glyph d="M34 834Q37 871 65 897Q93 923 128 923Q165 923 188.5 897Q212 871 208 834Q205 797 177 771Q149 745 113 745Q77 745 53.5 771Q30 797 34 834ZM252 834Q255 871 283 897Q311 923 347 923Q383 923 406.5 897Q430 871 427 834Q426 816 417.5 799.5Q409 783 395.5 771Q382 759 365.5 752Q349 745 331 745Q296 745 272.5 771Q249 797 252 834ZM40 0Q30 0 24.5 6.5Q19 13 21 23L137 678Q139 687 146 693.5Q153 700 163 700H266Q275 700 280.5 693.5Q286 687 284 678L168 23Q166 13 159.5 6.5Q153 0 143 0Z" glyph-name="Idieresis" horiz-adv-x="266" unicode="Ï" /><glyph d="M60 0Q50 0 44.5 7Q39 14 41 23L88 292H31Q21 292 15.5 299Q10 306 12 315L25 387Q27 397 34 403.5Q41 410 51 410H109L156 678Q158 687 165.5 693.5Q173 700 183 700H404Q484 700 547.5 675.5Q611 651 655 609Q699 567 722.5 509.5Q746 452 746 386Q746 300 713.5 229Q681 158 625 107Q569 56 494.5 28Q420 0 335 0ZM333 137Q393 137 441 156.5Q489 176 522.5 209Q556 242 574 286.5Q592 331 592 381Q592 420 579 453.5Q566 487 541 511Q516 535 479 549Q442 563 394 563H283L257 410H404Q414 410 419.5 403.5Q425 397 423 387L411 315Q409 306 401 299Q393 292 384 292H236L209 137Z" glyph-name="Eth" horiz-adv-x="751" unicode="Ð" /><glyph d="M370 927Q388 927 410.5 922Q433 917 454.5 910.5Q476 904 495 899Q514 894 525 894Q540 894 550 898.5Q560 903 568 908Q576 913 582.5 918.5Q589 924 597 925Q613 930 622 912L643 868Q651 850 647 838Q644 826 633.5 812.5Q623 799 606 788Q589 777 568 769.5Q547 762 523 762Q504 762 481 767Q458 772 436.5 778Q415 784 396.5 789Q378 794 368 794Q353 794 343 790Q333 786 325.5 780.5Q318 775 312 770Q306 765 298 763Q280 759 272 776L249 821Q242 835 245 850Q248 862 259 875.5Q270 889 287 900.5Q304 912 325.5 919.5Q347 927 370 927ZM248 486 168 22Q165 0 143 0H40Q31 0 25 6Q19 12 21 22L137 678Q138 687 145.5 693.5Q153 700 163 700H288Q308 700 316 682L510 227L589 678Q591 687 598.5 693.5Q606 700 615 700H718Q727 700 732.5 693.5Q738 687 736 678L620 22Q618 12 611 6Q604 0 595 0H492Q459 0 451 22Z" glyph-name="Ntilde" horiz-adv-x="718" unicode="Ñ" /><glyph d="M429 957Q451 957 456 938L502 784Q506 769 498.5 760.5Q491 752 476 752H409Q392 752 383 768L285 923Q278 934 283.5 945.5Q289 957 306 957ZM423 714Q502 714 565.5 687.5Q629 661 674 615Q719 569 743 506.5Q767 444 767 373Q767 293 739 222.5Q711 152 660.5 99.5Q610 47 541 16.5Q472 -14 390 -14Q312 -14 248.5 12.5Q185 39 140 85Q95 131 71 193.5Q47 256 47 327Q47 407 75 477.5Q103 548 153 600.5Q203 653 272 683.5Q341 714 423 714ZM421 581Q374 581 333 561Q292 541 262 506.5Q232 472 215 426Q198 380 198 327Q198 281 213 242.5Q228 204 254 176.5Q280 149 315.5 134Q351 119 393 119Q441 119 481.5 139Q522 159 552 193.5Q582 228 599 274.5Q616 321 616 373Q616 420 601 458Q586 496 560 523.5Q534 551 498.5 566Q463 581 421 581Z" glyph-name="Ograve" horiz-adv-x="774" unicode="Ò" /><glyph d="M610 957Q627 957 632.5 945Q638 933 630 923L509 768Q502 760 497 756Q492 752 482 752H416Q401 752 393 761Q385 770 390 784L459 938Q467 957 486 957ZM423 714Q502 714 565.5 687.5Q629 661 674 615Q719 569 743 506.5Q767 444 767 373Q767 293 739 222.5Q711 152 660.5 99.5Q610 47 541 16.5Q472 -14 390 -14Q312 -14 248.5 12.5Q185 39 140 85Q95 131 71 193.5Q47 256 47 327Q47 407 75 477.5Q103 548 153 600.5Q203 653 272 683.5Q341 714 423 714ZM421 581Q374 581 333 561Q292 541 262 506.5Q232 472 215 426Q198 380 198 327Q198 281 213 242.5Q228 204 254 176.5Q280 149 315.5 134Q351 119 393 119Q441 119 481.5 139Q522 159 552 193.5Q582 228 599 274.5Q616 321 616 373Q616 420 601 458Q586 496 560 523.5Q534 551 498.5 566Q463 581 421 581Z" glyph-name="Oacute" horiz-adv-x="774" unicode="Ó" /><glyph d="M536 957Q553 957 563 936L628 784Q634 770 627 761Q620 752 609 752H532Q520 752 515 756Q510 760 505 769L462 847L391 769Q383 760 376.5 756Q370 752 359 752H266Q257 752 251.5 761Q246 770 257 784L375 936Q392 957 410 957ZM423 714Q502 714 565.5 687.5Q629 661 674 615Q719 569 743 506.5Q767 444 767 373Q767 293 739 222.5Q711 152 660.5 99.5Q610 47 541 16.5Q472 -14 390 -14Q312 -14 248.5 12.5Q185 39 140 85Q95 131 71 193.5Q47 256 47 327Q47 407 75 477.5Q103 548 153 600.5Q203 653 272 683.5Q341 714 423 714ZM421 581Q374 581 333 561Q292 541 262 506.5Q232 472 215 426Q198 380 198 327Q198 281 213 242.5Q228 204 254 176.5Q280 149 315.5 134Q351 119 393 119Q441 119 481.5 139Q522 159 552 193.5Q582 228 599 274.5Q616 321 616 373Q616 420 601 458Q586 496 560 523.5Q534 551 498.5 566Q463 581 421 581Z" glyph-name="Ocircumflex" horiz-adv-x="774" unicode="Ô" /><glyph d="M371 930Q389 930 411.5 925Q434 920 455.5 913.5Q477 907 496 902Q515 897 526 897Q541 897 551 901.5Q561 906 569 911Q577 916 583.5 921.5Q590 927 598 928Q614 933 623 915L644 871Q652 853 648 841Q645 829 634.5 815.5Q624 802 607 791Q590 780 569 772.5Q548 765 524 765Q505 765 482 770Q459 775 437.5 781Q416 787 397.5 792Q379 797 369 797Q354 797 344 793Q334 789 326.5 783.5Q319 778 313 773Q307 768 299 766Q281 762 273 779L250 824Q243 838 246 853Q249 865 260 878.5Q271 892 288 903.5Q305 915 326.5 922.5Q348 930 371 930ZM423 714Q502 714 565.5 687.5Q629 661 674 615Q719 569 743 506.5Q767 444 767 373Q767 293 739 222.5Q711 152 660.5 99.5Q610 47 541 16.5Q472 -14 390 -14Q312 -14 248.5 12.5Q185 39 140 85Q95 131 71 193.5Q47 256 47 327Q47 407 75 477.5Q103 548 153 600.5Q203 653 272 683.5Q341 714 423 714ZM421 581Q374 581 333 561Q292 541 262 506.5Q232 472 215 426Q198 380 198 327Q198 281 213 242.5Q228 204 254 176.5Q280 149 315.5 134Q351 119 393 119Q441 119 481.5 139Q522 159 552 193.5Q582 228 599 274.5Q616 321 616 373Q616 420 601 458Q586 496 560 523.5Q534 551 498.5 566Q463 581 421 581Z" glyph-name="Otilde" horiz-adv-x="774" unicode="Õ" /><glyph d="M262 837Q265 874 293 900Q321 926 356 926Q393 926 416.5 900Q440 874 436 837Q433 800 405 774Q377 748 341 748Q305 748 281.5 774Q258 800 262 837ZM480 837Q483 874 511 900Q539 926 575 926Q611 926 634.5 900Q658 874 655 837Q654 819 645.5 802.5Q637 786 623.5 774Q610 762 593.5 755Q577 748 559 748Q524 748 500.5 774Q477 800 480 837ZM423 714Q502 714 565.5 687.5Q629 661 674 615Q719 569 743 506.5Q767 444 767 373Q767 293 739 222.5Q711 152 660.5 99.5Q610 47 541 16.5Q472 -14 390 -14Q312 -14 248.5 12.5Q185 39 140 85Q95 131 71 193.5Q47 256 47 327Q47 407 75 477.5Q103 548 153 600.5Q203 653 272 683.5Q341 714 423 714ZM421 581Q374 581 333 561Q292 541 262 506.5Q232 472 215 426Q198 380 198 327Q198 281 213 242.5Q228 204 254 176.5Q280 149 315.5 134Q351 119 393 119Q441 119 481.5 139Q522 159 552 193.5Q582 228 599 274.5Q616 321 616 373Q616 420 601 458Q586 496 560 523.5Q534 551 498.5 566Q463 581 421 581Z" glyph-name="Odieresis" horiz-adv-x="774" unicode="Ö" /><glyph d="M484 65Q476 59 467 59.5Q458 60 452 68L316 250L118 97Q110 91 101 92Q92 93 86 100L31 176Q26 184 27.5 192.5Q29 201 36 208L232 360L95 542Q90 550 91.5 559.5Q93 569 101 575L180 637Q188 642 197.5 642Q207 642 213 634L349 452L546 606Q554 611 564 610Q574 609 579 602L636 526Q641 519 639 509.5Q637 500 630 494L432 341L569 159Q574 151 572.5 141.5Q571 132 563 127Z" glyph-name="multiply" horiz-adv-x="625" unicode="×" /><glyph d="M423 714Q502 714 565.5 687.5Q629 661 674 615Q719 569 743 506.5Q767 444 767 373Q767 293 739 222.5Q711 152 660.5 99.5Q610 47 541 16.5Q472 -14 390 -14Q312 -14 248.5 12.5Q185 39 140 85Q95 131 71 193.5Q47 256 47 327Q47 407 75 477.5Q103 548 153 600.5Q203 653 272 683.5Q341 714 423 714ZM198 327Q198 270 219 228L518 556Q474 581 421 581Q374 581 333 561Q292 541 262 506.5Q232 472 215 426Q198 380 198 327ZM393 119Q441 119 481.5 139Q522 159 552 193.5Q582 228 599 274.5Q616 321 616 373Q616 426 596 469L300 142Q343 119 393 119Z" glyph-name="Oslash" horiz-adv-x="774" unicode="Ø" /><glyph d="M415 954Q437 954 442 935L488 781Q492 766 484.5 757.5Q477 749 462 749H395Q378 749 369 765L271 920Q264 931 269.5 942.5Q275 954 292 954ZM643 252Q631 182 602 131.5Q573 81 530.5 49Q488 17 433.5 1.5Q379 -14 316 -14Q260 -14 207.5 2.5Q155 19 117.5 52.5Q80 86 61.5 136Q43 186 55 252L130 678Q132 687 139.5 693.5Q147 700 156 700H260Q270 700 275.5 693.5Q281 687 279 678L206 263Q194 198 228.5 160.5Q263 123 332 123Q400 123 441 160.5Q482 198 493 263L566 678Q568 687 575.5 693.5Q583 700 593 700H699Q709 700 714.5 693.5Q720 687 718 678Z" glyph-name="Ugrave" horiz-adv-x="694" unicode="Ù" /><glyph d="M596 954Q613 954 618.5 942Q624 930 616 920L495 765Q488 757 483 753Q478 749 468 749H402Q387 749 379 758Q371 767 376 781L445 935Q453 954 472 954ZM643 252Q631 182 602 131.5Q573 81 530.5 49Q488 17 433.5 1.5Q379 -14 316 -14Q260 -14 207.5 2.5Q155 19 117.5 52.5Q80 86 61.5 136Q43 186 55 252L130 678Q132 687 139.5 693.5Q147 700 156 700H260Q270 700 275.5 693.5Q281 687 279 678L206 263Q194 198 228.5 160.5Q263 123 332 123Q400 123 441 160.5Q482 198 493 263L566 678Q568 687 575.5 693.5Q583 700 593 700H699Q709 700 714.5 693.5Q720 687 718 678Z" glyph-name="Uacute" horiz-adv-x="694" unicode="Ú" /><glyph d="M522 954Q539 954 549 933L614 781Q620 767 613 758Q606 749 595 749H518Q506 749 501 753Q496 757 491 766L448 844L377 766Q369 757 362.5 753Q356 749 345 749H252Q243 749 237.5 758Q232 767 243 781L361 933Q378 954 396 954ZM643 252Q631 182 602 131.5Q573 81 530.5 49Q488 17 433.5 1.5Q379 -14 316 -14Q260 -14 207.5 2.5Q155 19 117.5 52.5Q80 86 61.5 136Q43 186 55 252L130 678Q132 687 139.5 693.5Q147 700 156 700H260Q270 700 275.5 693.5Q281 687 279 678L206 263Q194 198 228.5 160.5Q263 123 332 123Q400 123 441 160.5Q482 198 493 263L566 678Q568 687 575.5 693.5Q583 700 593 700H699Q709 700 714.5 693.5Q720 687 718 678Z" glyph-name="Ucircumflex" horiz-adv-x="694" unicode="Û" /><glyph d="M248 834Q251 871 279 897Q307 923 342 923Q379 923 402.5 897Q426 871 422 834Q419 797 391 771Q363 745 327 745Q291 745 267.5 771Q244 797 248 834ZM466 834Q469 871 497 897Q525 923 561 923Q597 923 620.5 897Q644 871 641 834Q640 816 631.5 799.5Q623 783 609.5 771Q596 759 579.5 752Q563 745 545 745Q510 745 486.5 771Q463 797 466 834ZM643 252Q631 182 602 131.5Q573 81 530.5 49Q488 17 433.5 1.5Q379 -14 316 -14Q260 -14 207.5 2.5Q155 19 117.5 52.5Q80 86 61.5 136Q43 186 55 252L130 678Q132 687 139.5 693.5Q147 700 156 700H260Q270 700 275.5 693.5Q281 687 279 678L206 263Q194 198 228.5 160.5Q263 123 332 123Q400 123 441 160.5Q482 198 493 263L566 678Q568 687 575.5 693.5Q583 700 593 700H699Q709 700 714.5 693.5Q720 687 718 678Z" glyph-name="Udieresis" horiz-adv-x="694" unicode="Ü" /><glyph d="M573 954Q590 954 595.5 942Q601 930 593 920L472 765Q465 757 460 753Q455 749 445 749H379Q364 749 356 758Q348 767 353 781L422 935Q430 954 449 954ZM231 0Q222 0 216 6.5Q210 13 212 23L258 276L89 665Q83 678 90 689Q97 700 110 700H226Q244 700 250 683L354 424H356L544 683Q549 691 555.5 695.5Q562 700 572 700H701Q714 700 718.5 690Q723 680 711 665L404 272L360 23Q358 13 351 6.5Q344 0 335 0Z" glyph-name="Yacute" horiz-adv-x="649" unicode="Ý" /><glyph d="M171 22Q169 12 161.5 6Q154 0 146 0H40Q31 0 25 6Q19 12 21 22L137 678Q139 688 146.5 694Q154 700 163 700H269Q277 700 283 694Q289 688 287 678L272 595H389Q448 595 492.5 578Q537 561 566 532.5Q595 504 609.5 465.5Q624 427 624 385Q624 333 605.5 287Q587 241 552 206Q517 171 465 150.5Q413 130 345 130H190ZM250 464 214 261H340Q400 262 433.5 293Q467 324 467 374Q467 416 439.5 440Q412 464 367 464Z" glyph-name="Thorn" horiz-adv-x="621" unicode="Þ" /><glyph d="M86 472Q95 522 113.5 566Q132 610 163 642.5Q194 675 236.5 693.5Q279 712 336 712Q384 712 421.5 698Q459 684 485 660Q511 636 524.5 604.5Q538 573 538 538Q538 498 521.5 466.5Q505 435 485.5 410Q466 385 449.5 366.5Q433 348 433 334Q433 318 446.5 302Q460 286 476.5 265.5Q493 245 506.5 219.5Q520 194 520 160Q520 129 508.5 98Q497 67 472 42Q447 17 408 1.5Q369 -14 314 -14Q296 -14 274 -11.5Q252 -9 235 -4Q229 -2 221.5 3Q214 8 218 21L243 104Q248 118 261 116Q269 115 281.5 113Q294 111 307 111Q342 111 355.5 129.5Q369 148 369 166Q369 185 355.5 203Q342 221 326 240Q310 259 296.5 279.5Q283 300 283 323Q283 347 301.5 371Q320 395 342 419.5Q364 444 382.5 469Q401 494 401 520Q401 544 383.5 565Q366 586 330 586Q289 586 263 555Q237 524 228 471L148 22Q146 13 139.5 6.5Q133 0 123 0H24Q15 0 9.5 6.5Q4 13 6 22Z" glyph-name="germandbls" horiz-adv-x="556" unicode="ß" /><glyph d="M320 741Q342 741 347 722L393 568Q397 553 389.5 544.5Q382 536 367 536H300Q283 536 274 552L176 707Q169 718 174.5 729.5Q180 741 197 741ZM275 111Q303 111 326.5 122.5Q350 134 367.5 154Q385 174 395 200.5Q405 227 405 256Q405 305 375.5 338.5Q346 372 295 372Q267 372 243.5 360Q220 348 202.5 328Q185 308 175.5 282Q166 256 166 227Q166 179 195 145Q224 111 275 111ZM23 214Q23 279 44.5 332Q66 385 101.5 422.5Q137 460 183 480.5Q229 501 278 501Q332 501 372 480.5Q412 460 434 426L441 465Q446 487 465 487H564Q572 487 577.5 480Q583 473 581 465L503 21Q501 12 494 6Q487 0 478 0H380Q371 0 365.5 6.5Q360 13 362 21L368 53Q350 28 314 7Q278 -14 224 -14Q180 -14 143 3Q106 20 79.5 50.5Q53 81 38 123Q23 165 23 214Z" glyph-name="agrave" horiz-adv-x="585" unicode="à" /><glyph d="M501 741Q518 741 523.5 729Q529 717 521 707L400 552Q393 544 388 540Q383 536 373 536H307Q292 536 284 545Q276 554 281 568L350 722Q358 741 377 741ZM275 111Q303 111 326.5 122.5Q350 134 367.5 154Q385 174 395 200.5Q405 227 405 256Q405 305 375.5 338.5Q346 372 295 372Q267 372 243.5 360Q220 348 202.5 328Q185 308 175.5 282Q166 256 166 227Q166 179 195 145Q224 111 275 111ZM23 214Q23 279 44.5 332Q66 385 101.5 422.5Q137 460 183 480.5Q229 501 278 501Q332 501 372 480.5Q412 460 434 426L441 465Q446 487 465 487H564Q572 487 577.5 480Q583 473 581 465L503 21Q501 12 494 6Q487 0 478 0H380Q371 0 365.5 6.5Q360 13 362 21L368 53Q350 28 314 7Q278 -14 224 -14Q180 -14 143 3Q106 20 79.5 50.5Q53 81 38 123Q23 165 23 214Z" glyph-name="aacute" horiz-adv-x="585" unicode="á" /><glyph d="M427 741Q444 741 454 720L519 568Q525 554 518 545Q511 536 500 536H423Q411 536 406 540Q401 544 396 553L353 631L282 553Q274 544 267.5 540Q261 536 250 536H157Q148 536 142.5 545Q137 554 148 568L266 720Q283 741 301 741ZM275 111Q303 111 326.5 122.5Q350 134 367.5 154Q385 174 395 200.5Q405 227 405 256Q405 305 375.5 338.5Q346 372 295 372Q267 372 243.5 360Q220 348 202.5 328Q185 308 175.5 282Q166 256 166 227Q166 179 195 145Q224 111 275 111ZM23 214Q23 279 44.5 332Q66 385 101.5 422.5Q137 460 183 480.5Q229 501 278 501Q332 501 372 480.5Q412 460 434 426L441 465Q446 487 465 487H564Q572 487 577.5 480Q583 473 581 465L503 21Q501 12 494 6Q487 0 478 0H380Q371 0 365.5 6.5Q360 13 362 21L368 53Q350 28 314 7Q278 -14 224 -14Q180 -14 143 3Q106 20 79.5 50.5Q53 81 38 123Q23 165 23 214Z" glyph-name="acircumflex" horiz-adv-x="585" unicode="â" /><glyph d="M262 714Q280 714 302.5 709Q325 704 346.5 697.5Q368 691 387 686Q406 681 417 681Q432 681 442 685.5Q452 690 460 695Q468 700 474.5 705.5Q481 711 489 712Q505 717 514 699L535 655Q543 637 539 625Q536 613 525.5 599.5Q515 586 498 575Q481 564 460 556.5Q439 549 415 549Q396 549 373 554Q350 559 328.5 565Q307 571 288.5 576Q270 581 260 581Q245 581 235 577Q225 573 217.5 567.5Q210 562 204 557Q198 552 190 550Q172 546 164 563L141 608Q134 622 137 637Q140 649 151 662.5Q162 676 179 687.5Q196 699 217.5 706.5Q239 714 262 714ZM275 111Q303 111 326.5 122.5Q350 134 367.5 154Q385 174 395 200.5Q405 227 405 256Q405 305 375.5 338.5Q346 372 295 372Q267 372 243.5 360Q220 348 202.5 328Q185 308 175.5 282Q166 256 166 227Q166 179 195 145Q224 111 275 111ZM23 214Q23 279 44.5 332Q66 385 101.5 422.5Q137 460 183 480.5Q229 501 278 501Q332 501 372 480.5Q412 460 434 426L441 465Q446 487 465 487H564Q572 487 577.5 480Q583 473 581 465L503 21Q501 12 494 6Q487 0 478 0H380Q371 0 365.5 6.5Q360 13 362 21L368 53Q350 28 314 7Q278 -14 224 -14Q180 -14 143 3Q106 20 79.5 50.5Q53 81 38 123Q23 165 23 214Z" glyph-name="atilde" horiz-adv-x="585" unicode="ã" /><glyph d="M153 621Q156 658 184 684Q212 710 247 710Q284 710 307.5 684Q331 658 327 621Q324 584 296 558Q268 532 232 532Q196 532 172.5 558Q149 584 153 621ZM371 621Q374 658 402 684Q430 710 466 710Q502 710 525.5 684Q549 658 546 621Q545 603 536.5 586.5Q528 570 514.5 558Q501 546 484.5 539Q468 532 450 532Q415 532 391.5 558Q368 584 371 621ZM275 111Q303 111 326.5 122.5Q350 134 367.5 154Q385 174 395 200.5Q405 227 405 256Q405 305 375.5 338.5Q346 372 295 372Q267 372 243.5 360Q220 348 202.5 328Q185 308 175.5 282Q166 256 166 227Q166 179 195 145Q224 111 275 111ZM23 214Q23 279 44.5 332Q66 385 101.5 422.5Q137 460 183 480.5Q229 501 278 501Q332 501 372 480.5Q412 460 434 426L441 465Q446 487 465 487H564Q572 487 577.5 480Q583 473 581 465L503 21Q501 12 494 6Q487 0 478 0H380Q371 0 365.5 6.5Q360 13 362 21L368 53Q350 28 314 7Q278 -14 224 -14Q180 -14 143 3Q106 20 79.5 50.5Q53 81 38 123Q23 165 23 214Z" glyph-name="adieresis" horiz-adv-x="585" unicode="ä" /><glyph d="M355 824Q384 824 410 815Q436 806 455.5 788.5Q475 771 487 746Q499 721 499 689Q499 656 487 627Q475 598 453 577Q431 556 401.5 543.5Q372 531 337 531Q309 531 282.5 540.5Q256 550 236.5 567Q217 584 205 609.5Q193 635 193 666Q193 699 205 727.5Q217 756 239 777.5Q261 799 290.5 811.5Q320 824 355 824ZM341 615Q370 615 388 637Q406 659 406 684Q406 707 391.5 723.5Q377 740 351 740Q321 740 303 718.5Q285 697 285 671Q285 648 300 631.5Q315 615 341 615ZM275 111Q303 111 326.5 122.5Q350 134 367.5 154Q385 174 395 200.5Q405 227 405 256Q405 305 375.5 338.5Q346 372 295 372Q267 372 243.5 360Q220 348 202.5 328Q185 308 175.5 282Q166 256 166 227Q166 179 195 145Q224 111 275 111ZM23 214Q23 279 44.5 332Q66 385 101.5 422.5Q137 460 183 480.5Q229 501 278 501Q332 501 372 480.5Q412 460 434 426L441 465Q446 487 465 487H564Q572 487 577.5 480Q583 473 581 465L503 21Q501 12 494 6Q487 0 478 0H380Q371 0 365.5 6.5Q360 13 362 21L368 53Q350 28 314 7Q278 -14 224 -14Q180 -14 143 3Q106 20 79.5 50.5Q53 81 38 123Q23 165 23 214Z" glyph-name="aring" horiz-adv-x="585" unicode="å" /><glyph d="M600 -14Q544 -14 500.5 3Q457 20 426 50Q397 21 354.5 3.5Q312 -14 260 -14Q205 -14 161 4.5Q117 23 86.5 54.5Q56 86 40 129.5Q24 173 24 222Q24 282 44.5 333.5Q65 385 100.5 422Q136 459 184.5 480Q233 501 288 501Q346 501 387 483.5Q428 466 455 437Q490 467 534.5 484Q579 501 631 501Q691 501 736.5 480Q782 459 811 425.5Q840 392 853 349.5Q866 307 863 264L860 233Q859 222 852.5 215Q846 208 831 208H499V205Q499 160 528 134Q557 108 599 108Q634 108 660 121Q686 134 707 154Q713 160 720.5 162.5Q728 165 736 160L810 111Q818 105 818 96Q818 87 814 82Q784 44 732 15Q680 -14 600 -14ZM629 389Q592 389 558.5 364.5Q525 340 511 292H725Q725 318 716.5 336Q708 354 694.5 366Q681 378 664 383.5Q647 389 629 389ZM271 114Q296 114 320.5 123.5Q345 133 366 154Q362 170 360 186Q358 202 358 219Q358 278 380 331Q346 370 291 370Q264 370 241 359.5Q218 349 201 330Q184 311 174.5 285Q165 259 165 228Q165 180 194 147Q223 114 271 114Z" glyph-name="ae" horiz-adv-x="874" unicode="æ" /><glyph d="M225 -146Q218 -156 211 -158Q204 -160 195 -160H118Q106 -160 99.5 -152Q93 -144 99 -132L168 3Q100 29 62 88Q24 147 24 222Q24 282 44.5 333.5Q65 385 100.5 422Q136 459 184 480Q232 501 287 501Q332 501 368 490.5Q404 480 431.5 462Q459 444 478 421Q497 398 507 372Q511 362 506 352Q501 342 490 336L429 303Q414 295 405.5 301.5Q397 308 392 314Q356 372 290 372Q263 372 240.5 360.5Q218 349 201 329.5Q184 310 174.5 284Q165 258 165 228Q165 180 194 147Q223 114 270 114Q299 114 323 125Q347 136 370 161Q376 167 386.5 171Q397 175 411 164L464 120Q472 113 473 100.5Q474 88 467 79Q441 46 404.5 22.5Q368 -1 317 -10Z" glyph-name="ccedilla" horiz-adv-x="507" unicode="ç" /><glyph d="M300 741Q322 741 327 722L373 568Q377 553 369.5 544.5Q362 536 347 536H280Q263 536 254 552L156 707Q149 718 154.5 729.5Q160 741 177 741ZM265 -14Q208 -14 163 4Q118 22 87 53.5Q56 85 39.5 127.5Q23 170 23 219Q23 278 43.5 329Q64 380 100.5 418.5Q137 457 187 479Q237 501 297 501Q357 501 402 479.5Q447 458 476.5 423.5Q506 389 519 346.5Q532 304 528 261L525 233Q524 222 517.5 215Q511 208 496 208H164V205Q164 160 192.5 134Q221 108 263 108Q299 108 325 121Q351 134 371 154Q377 160 384.5 162.5Q392 165 400 160L474 111Q483 105 483 96Q483 87 479 82Q449 44 396.5 15Q344 -14 265 -14ZM293 389Q257 389 223.5 364.5Q190 340 176 292H389Q389 318 380.5 336Q372 354 358.5 366Q345 378 328 383.5Q311 389 293 389Z" glyph-name="egrave" horiz-adv-x="539" unicode="è" /><glyph d="M481 741Q498 741 503.5 729Q509 717 501 707L380 552Q373 544 368 540Q363 536 353 536H287Q272 536 264 545Q256 554 261 568L330 722Q338 741 357 741ZM265 -14Q208 -14 163 4Q118 22 87 53.5Q56 85 39.5 127.5Q23 170 23 219Q23 278 43.5 329Q64 380 100.5 418.5Q137 457 187 479Q237 501 297 501Q357 501 402 479.5Q447 458 476.5 423.5Q506 389 519 346.5Q532 304 528 261L525 233Q524 222 517.5 215Q511 208 496 208H164V205Q164 160 192.5 134Q221 108 263 108Q299 108 325 121Q351 134 371 154Q377 160 384.5 162.5Q392 165 400 160L474 111Q483 105 483 96Q483 87 479 82Q449 44 396.5 15Q344 -14 265 -14ZM293 389Q257 389 223.5 364.5Q190 340 176 292H389Q389 318 380.5 336Q372 354 358.5 366Q345 378 328 383.5Q311 389 293 389Z" glyph-name="eacute" horiz-adv-x="539" unicode="é" /><glyph d="M407 741Q424 741 434 720L499 568Q505 554 498 545Q491 536 480 536H403Q391 536 386 540Q381 544 376 553L333 631L262 553Q254 544 247.5 540Q241 536 230 536H137Q128 536 122.5 545Q117 554 128 568L246 720Q263 741 281 741ZM265 -14Q208 -14 163 4Q118 22 87 53.5Q56 85 39.5 127.5Q23 170 23 219Q23 278 43.5 329Q64 380 100.5 418.5Q137 457 187 479Q237 501 297 501Q357 501 402 479.5Q447 458 476.5 423.5Q506 389 519 346.5Q532 304 528 261L525 233Q524 222 517.5 215Q511 208 496 208H164V205Q164 160 192.5 134Q221 108 263 108Q299 108 325 121Q351 134 371 154Q377 160 384.5 162.5Q392 165 400 160L474 111Q483 105 483 96Q483 87 479 82Q449 44 396.5 15Q344 -14 265 -14ZM293 389Q257 389 223.5 364.5Q190 340 176 292H389Q389 318 380.5 336Q372 354 358.5 366Q345 378 328 383.5Q311 389 293 389Z" glyph-name="ecircumflex" horiz-adv-x="539" unicode="ê" /><glyph d="M133 621Q136 658 164 684Q192 710 227 710Q264 710 287.5 684Q311 658 307 621Q304 584 276 558Q248 532 212 532Q176 532 152.5 558Q129 584 133 621ZM351 621Q354 658 382 684Q410 710 446 710Q482 710 505.5 684Q529 658 526 621Q525 603 516.5 586.5Q508 570 494.5 558Q481 546 464.5 539Q448 532 430 532Q395 532 371.5 558Q348 584 351 621ZM265 -14Q208 -14 163 4Q118 22 87 53.5Q56 85 39.5 127.5Q23 170 23 219Q23 278 43.5 329Q64 380 100.5 418.5Q137 457 187 479Q237 501 297 501Q357 501 402 479.5Q447 458 476.5 423.5Q506 389 519 346.5Q532 304 528 261L525 233Q524 222 517.5 215Q511 208 496 208H164V205Q164 160 192.5 134Q221 108 263 108Q299 108 325 121Q351 134 371 154Q377 160 384.5 162.5Q392 165 400 160L474 111Q483 105 483 96Q483 87 479 82Q449 44 396.5 15Q344 -14 265 -14ZM293 389Q257 389 223.5 364.5Q190 340 176 292H389Q389 318 380.5 336Q372 354 358.5 366Q345 378 328 383.5Q311 389 293 389Z" glyph-name="edieresis" horiz-adv-x="539" unicode="ë" /><glyph d="M145 741Q167 741 172 722L218 568Q222 553 214.5 544.5Q207 536 192 536H125Q108 536 99 552L1 707Q-6 718 -0.5 729.5Q5 741 22 741ZM23 0Q15 0 9.5 6.5Q4 13 6 22L84 465Q86 474 93 480.5Q100 487 109 487H209Q217 487 222 480.5Q227 474 225 465L147 22Q146 13 138.5 6.5Q131 0 123 0Z" glyph-name="igrave" horiz-adv-x="229" unicode="ì" /><glyph d="M326 741Q343 741 348.5 729Q354 717 346 707L225 552Q218 544 213 540Q208 536 198 536H132Q117 536 109 545Q101 554 106 568L175 722Q183 741 202 741ZM23 0Q15 0 9.5 6.5Q4 13 6 22L84 465Q86 474 93 480.5Q100 487 109 487H209Q217 487 222 480.5Q227 474 225 465L147 22Q146 13 138.5 6.5Q131 0 123 0Z" glyph-name="iacute" horiz-adv-x="229" unicode="í" /><glyph d="M252 741Q269 741 279 720L344 568Q350 554 343 545Q336 536 325 536H248Q236 536 231 540Q226 544 221 553L178 631L107 553Q99 544 92.5 540Q86 536 75 536H-18Q-27 536 -32.5 545Q-38 554 -27 568L91 720Q108 741 126 741ZM23 0Q15 0 9.5 6.5Q4 13 6 22L84 465Q86 474 93 480.5Q100 487 109 487H209Q217 487 222 480.5Q227 474 225 465L147 22Q146 13 138.5 6.5Q131 0 123 0Z" glyph-name="icircumflex" horiz-adv-x="229" unicode="î" /><glyph d="M-22 621Q-19 658 9 684Q37 710 72 710Q109 710 132.5 684Q156 658 152 621Q149 584 121 558Q93 532 57 532Q21 532 -2.5 558Q-26 584 -22 621ZM196 621Q199 658 227 684Q255 710 291 710Q327 710 350.5 684Q374 658 371 621Q370 603 361.5 586.5Q353 570 339.5 558Q326 546 309.5 539Q293 532 275 532Q240 532 216.5 558Q193 584 196 621ZM23 0Q15 0 9.5 6.5Q4 13 6 22L84 465Q86 474 93 480.5Q100 487 109 487H209Q217 487 222 480.5Q227 474 225 465L147 22Q146 13 138.5 6.5Q131 0 123 0Z" glyph-name="idieresis" horiz-adv-x="229" unicode="ï" /><glyph d="M276 -14Q226 -14 180.5 3Q135 20 100.5 51.5Q66 83 45.5 128.5Q25 174 25 232Q25 284 43 331.5Q61 379 93.5 415Q126 451 171 472.5Q216 494 271 494Q297 494 330 485Q363 476 385 455Q370 481 352.5 508Q335 535 316 561L225 536Q217 534 209 536.5Q201 539 198 550L188 583Q184 595 189 601.5Q194 608 205 611L265 627Q231 671 206 700Q198 709 202.5 722.5Q207 736 225 736H314Q319 736 329 734.5Q339 733 348 722Q357 712 370 697.5Q383 683 398 663L481 685Q489 687 496.5 685Q504 683 507 672L518 638Q521 627 516 620Q511 613 501 611L445 596Q465 565 484 528.5Q503 492 517.5 452.5Q532 413 541 370Q550 327 550 283Q550 220 530.5 165.5Q511 111 475 71.5Q439 32 388.5 9Q338 -14 276 -14ZM294 373Q266 373 243 362Q220 351 203 331.5Q186 312 176.5 286Q167 260 167 231Q167 204 176 182Q185 160 200 144.5Q215 129 235 121Q255 113 277 113Q305 113 328.5 124.5Q352 136 369 155.5Q386 175 395.5 200.5Q405 226 405 255Q405 311 372 342Q339 373 294 373Z" glyph-name="eth" horiz-adv-x="571" unicode="ð" /><glyph d="M264 714Q282 714 304.5 709Q327 704 348.5 697.5Q370 691 389 686Q408 681 419 681Q434 681 444 685.5Q454 690 462 695Q470 700 476.5 705.5Q483 711 491 712Q507 717 516 699L537 655Q545 637 541 625Q538 613 527.5 599.5Q517 586 500 575Q483 564 462 556.5Q441 549 417 549Q398 549 375 554Q352 559 330.5 565Q309 571 290.5 576Q272 581 262 581Q247 581 237 577Q227 573 219.5 567.5Q212 562 206 557Q200 552 192 550Q174 546 166 563L143 608Q136 622 139 637Q142 649 153 662.5Q164 676 181 687.5Q198 699 219.5 706.5Q241 714 264 714ZM398 251Q408 305 388 336.5Q368 368 315 368Q264 368 230 332Q196 296 184 232L147 20Q145 11 137 5.5Q129 0 121 0H22Q14 0 8.5 6Q3 12 5 21L84 465Q86 474 92.5 480.5Q99 487 108 487H204Q212 487 218 481Q224 475 222 467L216 436Q235 459 273.5 480Q312 501 363 501Q408 501 445 485.5Q482 470 507 440Q532 410 542.5 366.5Q553 323 543 267L499 20Q497 11 489.5 5.5Q482 0 474 0H376Q367 0 361.5 5.5Q356 11 358 20Z" glyph-name="ntilde" horiz-adv-x="575" unicode="ñ" /><glyph d="M301 741Q323 741 328 722L374 568Q378 553 370.5 544.5Q363 536 348 536H281Q264 536 255 552L157 707Q150 718 155.5 729.5Q161 741 178 741ZM296 501Q349 501 394 483Q439 465 471.5 432.5Q504 400 522.5 356Q541 312 541 261Q541 203 520.5 153Q500 103 463.5 66Q427 29 377 7.5Q327 -14 269 -14Q216 -14 171 4Q126 22 93.5 54.5Q61 87 42.5 131Q24 175 24 226Q24 284 44.5 334Q65 384 101.5 421Q138 458 188 479.5Q238 501 296 501ZM291 373Q264 373 240.5 362Q217 351 200.5 331.5Q184 312 174.5 286Q165 260 165 231Q165 204 174 182Q183 160 198 144.5Q213 129 232.5 121Q252 113 274 113Q301 113 324.5 124.5Q348 136 364.5 155.5Q381 175 390.5 200.5Q400 226 400 255Q400 311 368 342Q336 373 291 373Z" glyph-name="ograve" horiz-adv-x="563" unicode="ò" /><glyph d="M482 741Q499 741 504.5 729Q510 717 502 707L381 552Q374 544 369 540Q364 536 354 536H288Q273 536 265 545Q257 554 262 568L331 722Q339 741 358 741ZM296 501Q349 501 394 483Q439 465 471.5 432.5Q504 400 522.5 356Q541 312 541 261Q541 203 520.5 153Q500 103 463.5 66Q427 29 377 7.5Q327 -14 269 -14Q216 -14 171 4Q126 22 93.5 54.5Q61 87 42.5 131Q24 175 24 226Q24 284 44.5 334Q65 384 101.5 421Q138 458 188 479.5Q238 501 296 501ZM291 373Q264 373 240.5 362Q217 351 200.5 331.5Q184 312 174.5 286Q165 260 165 231Q165 204 174 182Q183 160 198 144.5Q213 129 232.5 121Q252 113 274 113Q301 113 324.5 124.5Q348 136 364.5 155.5Q381 175 390.5 200.5Q400 226 400 255Q400 311 368 342Q336 373 291 373Z" glyph-name="oacute" horiz-adv-x="563" unicode="ó" /><glyph d="M408 741Q425 741 435 720L500 568Q506 554 499 545Q492 536 481 536H404Q392 536 387 540Q382 544 377 553L334 631L263 553Q255 544 248.5 540Q242 536 231 536H138Q129 536 123.5 545Q118 554 129 568L247 720Q264 741 282 741ZM296 501Q349 501 394 483Q439 465 471.5 432.5Q504 400 522.5 356Q541 312 541 261Q541 203 520.5 153Q500 103 463.5 66Q427 29 377 7.5Q327 -14 269 -14Q216 -14 171 4Q126 22 93.5 54.5Q61 87 42.5 131Q24 175 24 226Q24 284 44.5 334Q65 384 101.5 421Q138 458 188 479.5Q238 501 296 501ZM291 373Q264 373 240.5 362Q217 351 200.5 331.5Q184 312 174.5 286Q165 260 165 231Q165 204 174 182Q183 160 198 144.5Q213 129 232.5 121Q252 113 274 113Q301 113 324.5 124.5Q348 136 364.5 155.5Q381 175 390.5 200.5Q400 226 400 255Q400 311 368 342Q336 373 291 373Z" glyph-name="ocircumflex" horiz-adv-x="563" unicode="ô" /><glyph d="M243 714Q261 714 283.5 709Q306 704 327.5 697.5Q349 691 368 686Q387 681 398 681Q413 681 423 685.5Q433 690 441 695Q449 700 455.5 705.5Q462 711 470 712Q486 717 495 699L516 655Q524 637 520 625Q517 613 506.5 599.5Q496 586 479 575Q462 564 441 556.5Q420 549 396 549Q377 549 354 554Q331 559 309.5 565Q288 571 269.5 576Q251 581 241 581Q226 581 216 577Q206 573 198.5 567.5Q191 562 185 557Q179 552 171 550Q153 546 145 563L122 608Q115 622 118 637Q121 649 132 662.5Q143 676 160 687.5Q177 699 198.5 706.5Q220 714 243 714ZM296 501Q349 501 394 483Q439 465 471.5 432.5Q504 400 522.5 356Q541 312 541 261Q541 203 520.5 153Q500 103 463.5 66Q427 29 377 7.5Q327 -14 269 -14Q216 -14 171 4Q126 22 93.5 54.5Q61 87 42.5 131Q24 175 24 226Q24 284 44.5 334Q65 384 101.5 421Q138 458 188 479.5Q238 501 296 501ZM291 373Q264 373 240.5 362Q217 351 200.5 331.5Q184 312 174.5 286Q165 260 165 231Q165 204 174 182Q183 160 198 144.5Q213 129 232.5 121Q252 113 274 113Q301 113 324.5 124.5Q348 136 364.5 155.5Q381 175 390.5 200.5Q400 226 400 255Q400 311 368 342Q336 373 291 373Z" glyph-name="otilde" horiz-adv-x="563" unicode="õ" /><glyph d="M134 621Q137 658 165 684Q193 710 228 710Q265 710 288.5 684Q312 658 308 621Q305 584 277 558Q249 532 213 532Q177 532 153.5 558Q130 584 134 621ZM352 621Q355 658 383 684Q411 710 447 710Q483 710 506.5 684Q530 658 527 621Q526 603 517.5 586.5Q509 570 495.5 558Q482 546 465.5 539Q449 532 431 532Q396 532 372.5 558Q349 584 352 621ZM296 501Q349 501 394 483Q439 465 471.5 432.5Q504 400 522.5 356Q541 312 541 261Q541 203 520.5 153Q500 103 463.5 66Q427 29 377 7.5Q327 -14 269 -14Q216 -14 171 4Q126 22 93.5 54.5Q61 87 42.5 131Q24 175 24 226Q24 284 44.5 334Q65 384 101.5 421Q138 458 188 479.5Q238 501 296 501ZM291 373Q264 373 240.5 362Q217 351 200.5 331.5Q184 312 174.5 286Q165 260 165 231Q165 204 174 182Q183 160 198 144.5Q213 129 232.5 121Q252 113 274 113Q301 113 324.5 124.5Q348 136 364.5 155.5Q381 175 390.5 200.5Q400 226 400 255Q400 311 368 342Q336 373 291 373Z" glyph-name="odieresis" horiz-adv-x="563" unicode="ö" /><glyph d="M340 467Q301 467 273.5 494Q246 521 247 561Q248 600 275.5 627.5Q303 655 342 655Q381 655 408.5 627.5Q436 600 435 561Q435 521 407 494Q379 467 340 467ZM564 303Q562 293 555 286.5Q548 280 538 280H61Q51 280 45.5 286.5Q40 293 42 303L60 400Q62 409 69 416Q76 423 85 423H563Q573 423 578 416Q583 409 581 400ZM280 45Q241 45 213.5 72.5Q186 100 186 139Q187 179 215 206Q243 233 282 233Q321 233 348.5 206Q376 179 375 139Q374 100 346.5 72.5Q319 45 280 45Z" glyph-name="divide" horiz-adv-x="584" unicode="÷" /><glyph d="M296 501Q349 501 394 483Q439 465 471.5 432.5Q504 400 522.5 356Q541 312 541 261Q541 203 520.5 153Q500 103 463.5 66Q427 29 377 7.5Q327 -14 269 -14Q216 -14 171 4Q126 22 93.5 54.5Q61 87 42.5 131Q24 175 24 226Q24 284 44.5 334Q65 384 101.5 421Q138 458 188 479.5Q238 501 296 501ZM165 231Q165 202 176 177L344 359Q333 367 319 370Q305 373 291 373Q264 373 240.5 362Q217 351 200.5 331.5Q184 312 174.5 286Q165 260 165 231ZM274 113Q301 113 324.5 124.5Q348 136 364.5 155.5Q381 175 390.5 200.5Q400 226 400 255Q400 280 392 302L227 123Q247 113 274 113Z" glyph-name="oslash" horiz-adv-x="563" unicode="ø" /><glyph d="M308 741Q330 741 335 722L381 568Q385 553 377.5 544.5Q370 536 355 536H288Q271 536 262 552L164 707Q157 718 162.5 729.5Q168 741 185 741ZM177 216Q168 164 188.5 136Q209 108 257 108Q305 108 334 138.5Q363 169 371 217L416 467Q418 475 425.5 481Q433 487 441 487H540Q549 487 553.5 480.5Q558 474 556 465L479 21Q477 12 470 6Q463 0 455 0H357Q349 0 342.5 5.5Q336 11 338 20L345 51Q322 23 287.5 4.5Q253 -14 197 -14Q153 -14 118.5 2Q84 18 62.5 46.5Q41 75 33 114.5Q25 154 33 200L80 467Q82 475 89.5 481Q97 487 105 487H204Q212 487 218 481Q224 475 222 467Z" glyph-name="ugrave" horiz-adv-x="559" unicode="ù" /><glyph d="M489 741Q506 741 511.5 729Q517 717 509 707L388 552Q381 544 376 540Q371 536 361 536H295Q280 536 272 545Q264 554 269 568L338 722Q346 741 365 741ZM177 216Q168 164 188.5 136Q209 108 257 108Q305 108 334 138.5Q363 169 371 217L416 467Q418 475 425.5 481Q433 487 441 487H540Q549 487 553.5 480.5Q558 474 556 465L479 21Q477 12 470 6Q463 0 455 0H357Q349 0 342.5 5.5Q336 11 338 20L345 51Q322 23 287.5 4.5Q253 -14 197 -14Q153 -14 118.5 2Q84 18 62.5 46.5Q41 75 33 114.5Q25 154 33 200L80 467Q82 475 89.5 481Q97 487 105 487H204Q212 487 218 481Q224 475 222 467Z" glyph-name="uacute" horiz-adv-x="559" unicode="ú" /><glyph d="M415 741Q432 741 442 720L507 568Q513 554 506 545Q499 536 488 536H411Q399 536 394 540Q389 544 384 553L341 631L270 553Q262 544 255.5 540Q249 536 238 536H145Q136 536 130.5 545Q125 554 136 568L254 720Q271 741 289 741ZM177 216Q168 164 188.5 136Q209 108 257 108Q305 108 334 138.5Q363 169 371 217L416 467Q418 475 425.5 481Q433 487 441 487H540Q549 487 553.5 480.5Q558 474 556 465L479 21Q477 12 470 6Q463 0 455 0H357Q349 0 342.5 5.5Q336 11 338 20L345 51Q322 23 287.5 4.5Q253 -14 197 -14Q153 -14 118.5 2Q84 18 62.5 46.5Q41 75 33 114.5Q25 154 33 200L80 467Q82 475 89.5 481Q97 487 105 487H204Q212 487 218 481Q224 475 222 467Z" glyph-name="ucircumflex" horiz-adv-x="559" unicode="û" /><glyph d="M141 621Q144 658 172 684Q200 710 235 710Q272 710 295.5 684Q319 658 315 621Q312 584 284 558Q256 532 220 532Q184 532 160.5 558Q137 584 141 621ZM359 621Q362 658 390 684Q418 710 454 710Q490 710 513.5 684Q537 658 534 621Q533 603 524.5 586.5Q516 570 502.5 558Q489 546 472.5 539Q456 532 438 532Q403 532 379.5 558Q356 584 359 621ZM177 216Q168 164 188.5 136Q209 108 257 108Q305 108 334 138.5Q363 169 371 217L416 467Q418 475 425.5 481Q433 487 441 487H540Q549 487 553.5 480.5Q558 474 556 465L479 21Q477 12 470 6Q463 0 455 0H357Q349 0 342.5 5.5Q336 11 338 20L345 51Q322 23 287.5 4.5Q253 -14 197 -14Q153 -14 118.5 2Q84 18 62.5 46.5Q41 75 33 114.5Q25 154 33 200L80 467Q82 475 89.5 481Q97 487 105 487H204Q212 487 218 481Q224 475 222 467Z" glyph-name="udieresis" horiz-adv-x="559" unicode="ü" /><glyph d="M450 741Q467 741 472.5 729Q478 717 470 707L349 552Q342 544 337 540Q332 536 322 536H256Q241 536 233 545Q225 554 230 568L299 722Q307 741 326 741ZM77 -234Q30 -234 -6.5 -218Q-43 -202 -63 -182Q-79 -166 -61 -142L-27 -95Q-16 -79 -4 -80.5Q8 -82 18 -88Q29 -95 44 -102.5Q59 -110 79 -110Q99 -110 117 -98Q135 -86 148 -63L180 0H127Q116 0 111.5 6Q107 12 105 21L45 453Q43 467 49.5 477Q56 487 74 487H181Q189 487 194 480.5Q199 474 200 465L233 125L381 465Q385 473 391.5 480Q398 487 411 487H526Q540 487 543.5 477.5Q547 468 540 453L285 -81Q253 -152 204 -193Q155 -234 77 -234Z" glyph-name="yacute" horiz-adv-x="514" unicode="ý" /><glyph d="M312 373Q284 373 260.5 361.5Q237 350 220 330Q203 310 193 283.5Q183 257 183 228Q183 179 212.5 145.5Q242 112 292 112Q320 112 343.5 124Q367 136 384.5 156Q402 176 411.5 202Q421 228 421 257Q421 305 392 339Q363 373 312 373ZM108 -196Q106 -205 99.5 -211Q93 -217 84 -217H-15Q-24 -217 -29 -211Q-34 -205 -32 -196L122 679Q124 688 131 694Q138 700 146 700H245Q253 700 259 694Q265 688 263 679L219 439Q242 464 277.5 482Q313 500 359 500Q402 500 439.5 483.5Q477 467 504.5 437Q532 407 548 365.5Q564 324 564 275Q564 210 543.5 156.5Q523 103 488 65Q453 27 406.5 6.5Q360 -14 309 -14Q255 -14 215.5 6Q176 26 154 61Z" glyph-name="thorn" horiz-adv-x="585" unicode="þ" /><glyph d="M102 621Q105 658 133 684Q161 710 196 710Q233 710 256.5 684Q280 658 276 621Q273 584 245 558Q217 532 181 532Q145 532 121.5 558Q98 584 102 621ZM320 621Q323 658 351 684Q379 710 415 710Q451 710 474.5 684Q498 658 495 621Q494 603 485.5 586.5Q477 570 463.5 558Q450 546 433.5 539Q417 532 399 532Q364 532 340.5 558Q317 584 320 621ZM77 -234Q30 -234 -6.5 -218Q-43 -202 -63 -182Q-79 -166 -61 -142L-27 -95Q-16 -79 -4 -80.5Q8 -82 18 -88Q29 -95 44 -102.5Q59 -110 79 -110Q99 -110 117 -98Q135 -86 148 -63L180 0H127Q116 0 111.5 6Q107 12 105 21L45 453Q43 467 49.5 477Q56 487 74 487H181Q189 487 194 480.5Q199 474 200 465L233 125L381 465Q385 473 391.5 480Q398 487 411 487H526Q540 487 543.5 477.5Q547 468 540 453L285 -81Q253 -152 204 -193Q155 -234 77 -234Z" glyph-name="ydieresis" horiz-adv-x="514" unicode="ÿ" /><glyph d="M266 766Q257 766 251.5 772.5Q246 779 248 789L261 865Q263 875 271 881Q279 887 289 887H603Q612 887 617.5 881Q623 875 621 865L609 789Q607 779 599 772.5Q591 766 581 766ZM393 572 257 288H437ZM130 20Q126 12 119 6Q112 0 104 0H-10Q-22 0 -27.5 9.5Q-33 19 -25 35L299 678Q306 690 314 695Q322 700 330 700H499Q507 700 514 695Q521 690 523 678L634 35Q637 18 629 9Q621 0 608 0H500Q482 0 479 20L456 162H197Z" glyph-name="Amacron" horiz-adv-x="675" unicode="Ā" /><glyph d="M184 553Q175 553 169.5 559.5Q164 566 166 576L179 652Q181 662 189 668Q197 674 207 674H521Q530 674 535.5 668Q541 662 539 652L527 576Q525 566 517 559.5Q509 553 499 553ZM275 111Q303 111 326.5 122.5Q350 134 367.5 154Q385 174 395 200.5Q405 227 405 256Q405 305 375.5 338.5Q346 372 295 372Q267 372 243.5 360Q220 348 202.5 328Q185 308 175.5 282Q166 256 166 227Q166 179 195 145Q224 111 275 111ZM23 214Q23 279 44.5 332Q66 385 101.5 422.5Q137 460 183 480.5Q229 501 278 501Q332 501 372 480.5Q412 460 434 426L441 465Q446 487 465 487H564Q572 487 577.5 480Q583 473 581 465L503 21Q501 12 494 6Q487 0 478 0H380Q371 0 365.5 6.5Q360 13 362 21L368 53Q350 28 314 7Q278 -14 224 -14Q180 -14 143 3Q106 20 79.5 50.5Q53 81 38 123Q23 165 23 214Z" glyph-name="amacron" horiz-adv-x="585" unicode="ā" /><glyph d="M382 915Q378 890 391 874.5Q404 859 433 859Q459 859 478.5 873.5Q498 888 503 915L505 927Q507 935 511.5 940Q516 945 524 945H615Q623 945 627 940Q631 935 629 927L625 901Q614 829 561 786.5Q508 744 426 744Q385 744 352.5 756Q320 768 298.5 789Q277 810 268 839.5Q259 869 265 905L268 927Q269 935 275 940Q281 945 289 945H371Q379 945 382.5 940Q386 935 384 927ZM393 572 257 288H437ZM130 20Q126 12 119 6Q112 0 104 0H-10Q-22 0 -27.5 9.5Q-33 19 -25 35L299 678Q306 690 314 695Q322 700 330 700H499Q507 700 514 695Q521 690 523 678L634 35Q637 18 629 9Q621 0 608 0H500Q482 0 479 20L456 162H197Z" glyph-name="Abreve" horiz-adv-x="675" unicode="Ă" /><glyph d="M300 702Q296 677 309 661.5Q322 646 351 646Q377 646 396.5 660.5Q416 675 421 702L423 714Q425 722 429.5 727Q434 732 442 732H533Q541 732 545 727Q549 722 547 714L543 688Q532 616 479 573.5Q426 531 344 531Q303 531 270.5 543Q238 555 216.5 576Q195 597 186 626.5Q177 656 183 692L186 714Q187 722 193 727Q199 732 207 732H289Q297 732 300.5 727Q304 722 302 714ZM275 111Q303 111 326.5 122.5Q350 134 367.5 154Q385 174 395 200.5Q405 227 405 256Q405 305 375.5 338.5Q346 372 295 372Q267 372 243.5 360Q220 348 202.5 328Q185 308 175.5 282Q166 256 166 227Q166 179 195 145Q224 111 275 111ZM23 214Q23 279 44.5 332Q66 385 101.5 422.5Q137 460 183 480.5Q229 501 278 501Q332 501 372 480.5Q412 460 434 426L441 465Q446 487 465 487H564Q572 487 577.5 480Q583 473 581 465L503 21Q501 12 494 6Q487 0 478 0H380Q371 0 365.5 6.5Q360 13 362 21L368 53Q350 28 314 7Q278 -14 224 -14Q180 -14 143 3Q106 20 79.5 50.5Q53 81 38 123Q23 165 23 214Z" glyph-name="abreve" horiz-adv-x="585" unicode="ă" /><glyph d="M393 572 257 288H437ZM606 -184Q605 -193 594 -200Q583 -207 567 -211.5Q551 -216 533 -218.5Q515 -221 500 -221Q456 -221 428.5 -201Q401 -181 401 -140Q401 -121 409.5 -102Q418 -83 431.5 -65Q445 -47 463 -30.5Q481 -14 500 0V0Q482 0 479 20L456 162H197L130 20Q126 12 119 6Q112 0 104 0H-10Q-22 0 -27.5 9.5Q-33 19 -25 35L299 678Q306 690 314 695Q322 700 330 700H499Q507 700 514 695Q521 690 523 678L634 35Q637 18 629 9Q621 0 608 0H582Q554 -30 538 -57Q522 -84 522 -99Q522 -112 530 -121Q538 -130 558 -130Q572 -130 582 -127.5Q592 -125 598 -125Q605 -125 609.5 -130.5Q614 -136 612 -148Z" glyph-name="Aogonek" horiz-adv-x="675" unicode="Ą" /><glyph d="M275 111Q303 111 326.5 122.5Q350 134 367.5 154Q385 174 395 200.5Q405 227 405 256Q405 305 375.5 338.5Q346 372 295 372Q267 372 243.5 360Q220 348 202.5 328Q185 308 175.5 282Q166 256 166 227Q166 179 195 145Q224 111 275 111ZM491 -159Q490 -168 479 -175Q468 -182 452 -186.5Q436 -191 418 -193.5Q400 -196 385 -196Q341 -196 313.5 -176Q286 -156 286 -115Q286 -82 309 -50Q332 -18 364 9Q361 14 362 21L368 53Q350 28 314 7Q278 -14 224 -14Q180 -14 143 3Q106 20 79.5 50.5Q53 81 38 123Q23 165 23 214Q23 279 44.5 332Q66 385 101.5 422.5Q137 460 183 480.5Q229 501 278 501Q332 501 372 480.5Q412 460 434 426L441 465Q446 487 465 487H564Q572 487 577.5 480Q583 473 581 465L503 21Q501 12 494 6Q487 0 478 0H445Q427 -23 417 -42.5Q407 -62 407 -74Q407 -87 415 -96Q423 -105 443 -105Q457 -105 467 -102.5Q477 -100 483 -100Q490 -100 494.5 -105.5Q499 -111 497 -123Z" glyph-name="aogonek" horiz-adv-x="585" unicode="ą" /><glyph d="M635 952Q652 952 657.5 940Q663 928 655 918L534 763Q527 755 522 751Q517 747 507 747H441Q426 747 418 756Q410 765 415 779L484 933Q492 952 511 952ZM198 325Q198 278 213 239.5Q228 201 254.5 174Q281 147 317 132Q353 117 395 117Q461 117 506 148.5Q551 180 581 230Q583 235 588 241Q593 247 605 242L701 198Q712 193 712 186.5Q712 180 709 174Q662 83 576.5 33.5Q491 -16 387 -16Q311 -16 248 10Q185 36 140 81.5Q95 127 70.5 188.5Q46 250 46 322Q46 405 75.5 476Q105 547 156 600Q207 653 275 683Q343 713 421 713Q484 713 538.5 696Q593 679 636 648Q679 617 708 573Q737 529 748 474Q749 470 747.5 462Q746 454 733 452L635 433Q616 430 610 446Q588 509 542 545Q496 581 428 581Q379 581 337 561Q295 541 264 506Q233 471 215.5 424.5Q198 378 198 325Z" glyph-name="Cacute" horiz-adv-x="724" unicode="Ć" /><glyph d="M478 738Q495 738 500.5 726Q506 714 498 704L377 549Q370 541 365 537Q360 533 350 533H284Q269 533 261 542Q253 551 258 565L327 719Q335 738 354 738ZM467 79Q435 37 385 11.5Q335 -14 264 -14Q209 -14 165 4.5Q121 23 89.5 55Q58 87 41 130Q24 173 24 222Q24 282 44.5 333.5Q65 385 100.5 422Q136 459 184 480Q232 501 287 501Q332 501 368 490.5Q404 480 431.5 462Q459 444 478 421Q497 398 507 372Q511 362 506 352Q501 342 490 336L429 303Q414 295 405.5 301.5Q397 308 392 314Q356 372 290 372Q263 372 240.5 360.5Q218 349 201 329.5Q184 310 174.5 284Q165 258 165 228Q165 180 194 147Q223 114 270 114Q299 114 323 125Q347 136 370 161Q376 167 386.5 171Q397 175 411 164L464 120Q472 113 473 100.5Q474 88 467 79Z" glyph-name="cacute" horiz-adv-x="507" unicode="ć" /><glyph d="M561 952Q578 952 588 931L653 779Q659 765 652 756Q645 747 634 747H557Q545 747 540 751Q535 755 530 764L487 842L416 764Q408 755 401.5 751Q395 747 384 747H291Q282 747 276.5 756Q271 765 282 779L400 931Q417 952 435 952ZM198 325Q198 278 213 239.5Q228 201 254.5 174Q281 147 317 132Q353 117 395 117Q461 117 506 148.5Q551 180 581 230Q583 235 588 241Q593 247 605 242L701 198Q712 193 712 186.5Q712 180 709 174Q662 83 576.5 33.5Q491 -16 387 -16Q311 -16 248 10Q185 36 140 81.5Q95 127 70.5 188.5Q46 250 46 322Q46 405 75.5 476Q105 547 156 600Q207 653 275 683Q343 713 421 713Q484 713 538.5 696Q593 679 636 648Q679 617 708 573Q737 529 748 474Q749 470 747.5 462Q746 454 733 452L635 433Q616 430 610 446Q588 509 542 545Q496 581 428 581Q379 581 337 561Q295 541 264 506Q233 471 215.5 424.5Q198 378 198 325Z" glyph-name="Ccircumflex" horiz-adv-x="724" unicode="Ĉ" /><glyph d="M404 738Q421 738 431 717L496 565Q502 551 495 542Q488 533 477 533H400Q388 533 383 537Q378 541 373 550L330 628L259 550Q251 541 244.5 537Q238 533 227 533H134Q125 533 119.5 542Q114 551 125 565L243 717Q260 738 278 738ZM467 79Q435 37 385 11.5Q335 -14 264 -14Q209 -14 165 4.5Q121 23 89.5 55Q58 87 41 130Q24 173 24 222Q24 282 44.5 333.5Q65 385 100.5 422Q136 459 184 480Q232 501 287 501Q332 501 368 490.5Q404 480 431.5 462Q459 444 478 421Q497 398 507 372Q511 362 506 352Q501 342 490 336L429 303Q414 295 405.5 301.5Q397 308 392 314Q356 372 290 372Q263 372 240.5 360.5Q218 349 201 329.5Q184 310 174.5 284Q165 258 165 228Q165 180 194 147Q223 114 270 114Q299 114 323 125Q347 136 370 161Q376 167 386.5 171Q397 175 411 164L464 120Q472 113 473 100.5Q474 88 467 79Z" glyph-name="ccircumflex" horiz-adv-x="507" unicode="ĉ" /><glyph d="M475 749Q455 749 437.5 757Q420 765 408 778.5Q396 792 390 809.5Q384 827 386 847Q388 867 397.5 885Q407 903 421 916.5Q435 930 453.5 937.5Q472 945 492 945Q533 945 559 916.5Q585 888 580 847Q579 827 569.5 809.5Q560 792 546 778.5Q532 765 513.5 757Q495 749 475 749ZM198 325Q198 278 213 239.5Q228 201 254.5 174Q281 147 317 132Q353 117 395 117Q461 117 506 148.5Q551 180 581 230Q583 235 588 241Q593 247 605 242L701 198Q712 193 712 186.5Q712 180 709 174Q662 83 576.5 33.5Q491 -16 387 -16Q311 -16 248 10Q185 36 140 81.5Q95 127 70.5 188.5Q46 250 46 322Q46 405 75.5 476Q105 547 156 600Q207 653 275 683Q343 713 421 713Q484 713 538.5 696Q593 679 636 648Q679 617 708 573Q737 529 748 474Q749 470 747.5 462Q746 454 733 452L635 433Q616 430 610 446Q588 509 542 545Q496 581 428 581Q379 581 337 561Q295 541 264 506Q233 471 215.5 424.5Q198 378 198 325Z" glyph-name="Cdotaccent" horiz-adv-x="724" unicode="Ċ" /><glyph d="M317 535Q297 535 279.5 543Q262 551 250 564.5Q238 578 232 595.5Q226 613 228 633Q230 653 239.5 671Q249 689 263 702.5Q277 716 295.5 723.5Q314 731 334 731Q375 731 401 702.5Q427 674 422 633Q421 613 411.5 595.5Q402 578 388 564.5Q374 551 355.5 543Q337 535 317 535ZM467 79Q435 37 385 11.5Q335 -14 264 -14Q209 -14 165 4.5Q121 23 89.5 55Q58 87 41 130Q24 173 24 222Q24 282 44.5 333.5Q65 385 100.5 422Q136 459 184 480Q232 501 287 501Q332 501 368 490.5Q404 480 431.5 462Q459 444 478 421Q497 398 507 372Q511 362 506 352Q501 342 490 336L429 303Q414 295 405.5 301.5Q397 308 392 314Q356 372 290 372Q263 372 240.5 360.5Q218 349 201 329.5Q184 310 174.5 284Q165 258 165 228Q165 180 194 147Q223 114 270 114Q299 114 323 125Q347 136 370 161Q376 167 386.5 171Q397 175 411 164L464 120Q472 113 473 100.5Q474 88 467 79Z" glyph-name="cdotaccent" horiz-adv-x="507" unicode="ċ" /><glyph d="M399 747Q382 747 372 769L307 920Q302 934 309.5 943Q317 952 326 952H404Q416 952 421 948Q426 944 431 935L473 857L545 935Q553 944 559 948Q565 952 577 952H669Q678 952 684 943Q690 934 679 920L560 769Q542 747 525 747ZM198 325Q198 278 213 239.5Q228 201 254.5 174Q281 147 317 132Q353 117 395 117Q461 117 506 148.5Q551 180 581 230Q583 235 588 241Q593 247 605 242L701 198Q712 193 712 186.5Q712 180 709 174Q662 83 576.5 33.5Q491 -16 387 -16Q311 -16 248 10Q185 36 140 81.5Q95 127 70.5 188.5Q46 250 46 322Q46 405 75.5 476Q105 547 156 600Q207 653 275 683Q343 713 421 713Q484 713 538.5 696Q593 679 636 648Q679 617 708 573Q737 529 748 474Q749 470 747.5 462Q746 454 733 452L635 433Q616 430 610 446Q588 509 542 545Q496 581 428 581Q379 581 337 561Q295 541 264 506Q233 471 215.5 424.5Q198 378 198 325Z" glyph-name="Ccaron" horiz-adv-x="724" unicode="Č" /><glyph d="M242 533Q225 533 215 555L150 706Q145 720 152.5 729Q160 738 169 738H247Q259 738 264 734Q269 730 274 721L316 643L388 721Q396 730 402 734Q408 738 420 738H512Q521 738 527 729Q533 720 522 706L403 555Q385 533 368 533ZM467 79Q435 37 385 11.5Q335 -14 264 -14Q209 -14 165 4.5Q121 23 89.5 55Q58 87 41 130Q24 173 24 222Q24 282 44.5 333.5Q65 385 100.5 422Q136 459 184 480Q232 501 287 501Q332 501 368 490.5Q404 480 431.5 462Q459 444 478 421Q497 398 507 372Q511 362 506 352Q501 342 490 336L429 303Q414 295 405.5 301.5Q397 308 392 314Q356 372 290 372Q263 372 240.5 360.5Q218 349 201 329.5Q184 310 174.5 284Q165 258 165 228Q165 180 194 147Q223 114 270 114Q299 114 323 125Q347 136 370 161Q376 167 386.5 171Q397 175 411 164L464 120Q472 113 473 100.5Q474 88 467 79Z" glyph-name="ccaron" horiz-adv-x="507" unicode="č" /><glyph d="M378 749Q361 749 351 771L286 922Q281 936 288.5 945Q296 954 305 954H383Q395 954 400 950Q405 946 410 937L452 859L524 937Q532 946 538 950Q544 954 556 954H648Q657 954 663 945Q669 936 658 922L539 771Q521 749 504 749ZM385 700Q465 700 528.5 675.5Q592 651 636 609Q680 567 703.5 509.5Q727 452 727 386Q727 300 694.5 229Q662 158 606 107Q550 56 475.5 28Q401 0 316 0H40Q31 0 25 7Q19 14 21 23L137 678Q139 687 146.5 693.5Q154 700 163 700ZM314 137Q374 137 422 156.5Q470 176 503.5 209Q537 242 554.5 286.5Q572 331 572 381Q572 420 559 453.5Q546 487 521 511Q496 535 459 549Q422 563 374 563H264L189 137Z" glyph-name="Dcaron" horiz-adv-x="732" unicode="Ď" /><glyph d="M683 549Q663 558 650 580Q637 602 639 627Q643 662 668 685.5Q693 709 730 709Q748 709 764 702Q780 695 792 683Q804 671 810.5 653.5Q817 636 815 615Q813 590 800.5 565.5Q788 541 771 519.5Q754 498 735 480.5Q716 463 701 452Q686 442 673.5 439.5Q661 437 650 445L639 453Q620 466 636 486ZM275 111Q303 111 326.5 122.5Q350 134 367.5 154Q385 174 395 200.5Q405 227 405 256Q405 305 375.5 338.5Q346 372 295 372Q267 372 243.5 360Q220 348 202.5 328Q185 308 175.5 282Q166 256 166 227Q166 179 195 145Q224 111 275 111ZM368 53Q350 28 314 7Q278 -14 224 -14Q180 -14 143 3Q106 20 79.5 50.5Q53 81 38 123Q23 165 23 214Q23 279 44.5 332Q66 385 101.5 422.5Q137 460 183 480.5Q229 501 278 501Q332 501 371.5 480.5Q411 460 433 426L477 679Q479 688 486 694Q493 700 501 700H602Q610 700 615.5 694Q621 688 619 679L503 21Q501 12 494 6Q487 0 478 0H380Q371 0 365.5 6.5Q360 13 362 21Z" glyph-name="dcaron" horiz-adv-x="674" unicode="ď" /><glyph d="M60 0Q50 0 44.5 7Q39 14 41 23L88 292H31Q21 292 15.5 299Q10 306 12 315L25 387Q27 397 34 403.5Q41 410 51 410H109L156 678Q158 687 165.5 693.5Q173 700 183 700H404Q484 700 547.5 675.5Q611 651 655 609Q699 567 722.5 509.5Q746 452 746 386Q746 300 713.5 229Q681 158 625 107Q569 56 494.5 28Q420 0 335 0ZM333 137Q393 137 441 156.5Q489 176 522.5 209Q556 242 574 286.5Q592 331 592 381Q592 420 579 453.5Q566 487 541 511Q516 535 479 549Q442 563 394 563H283L257 410H404Q414 410 419.5 403.5Q425 397 423 387L411 315Q409 306 401 299Q393 292 384 292H236L209 137Z" glyph-name="Dcroat" horiz-adv-x="751" unicode="Đ" /><glyph d="M275 111Q303 111 326.5 122.5Q350 134 367.5 154Q385 174 395 200.5Q405 227 405 256Q405 305 375.5 338.5Q346 372 295 372Q267 372 243.5 360Q220 348 202.5 328Q185 308 175.5 282Q166 256 166 227Q166 179 195 145Q224 111 275 111ZM368 53Q350 28 314 7Q278 -14 224 -14Q180 -14 143 3Q106 20 79.5 50.5Q53 81 38 123Q23 165 23 214Q23 279 44.5 332Q66 385 101.5 422.5Q137 460 183 480.5Q229 501 278 501Q332 501 371.5 480.5Q411 460 433 426L453 540H354Q345 540 339 546.5Q333 553 335 563L343 610Q349 633 371 633H469L477 679Q479 688 486 694Q493 700 501 700H602Q610 700 615.5 694Q621 688 619 679L611 633H661Q671 633 676 626.5Q681 620 679 610L671 563Q669 552 661.5 546Q654 540 645 540H595L503 21Q501 12 494 6Q487 0 478 0H380Q371 0 365.5 6.5Q360 13 362 21Z" glyph-name="dcroat" horiz-adv-x="585" unicode="đ" /><glyph d="M261 766Q252 766 246.5 772.5Q241 779 243 789L256 865Q258 875 266 881Q274 887 284 887H598Q607 887 612.5 881Q618 875 616 865L604 789Q602 779 594 772.5Q586 766 576 766ZM655 700Q664 700 669.5 693.5Q675 687 673 677L657 584Q655 575 648 568.5Q641 562 631 562H264L239 418H430Q440 418 445.5 411.5Q451 405 449 395L433 307Q431 298 423.5 291Q416 284 407 284H216L190 138H564Q573 138 578.5 131.5Q584 125 582 116L566 23Q564 13 557 6.5Q550 0 539 0H40Q31 0 25 6.5Q19 13 21 23L137 678Q139 687 146.5 693.5Q154 700 163 700Z" glyph-name="Emacron" horiz-adv-x="626" unicode="Ē" /><glyph d="M164 553Q155 553 149.5 559.5Q144 566 146 576L159 652Q161 662 169 668Q177 674 187 674H501Q510 674 515.5 668Q521 662 519 652L507 576Q505 566 497 559.5Q489 553 479 553ZM265 -14Q208 -14 163 4Q118 22 87 53.5Q56 85 39.5 127.5Q23 170 23 219Q23 278 43.5 329Q64 380 100.5 418.5Q137 457 187 479Q237 501 297 501Q357 501 402 479.5Q447 458 476.5 423.5Q506 389 519 346.5Q532 304 528 261L525 233Q524 222 517.5 215Q511 208 496 208H164V205Q164 160 192.5 134Q221 108 263 108Q299 108 325 121Q351 134 371 154Q377 160 384.5 162.5Q392 165 400 160L474 111Q483 105 483 96Q483 87 479 82Q449 44 396.5 15Q344 -14 265 -14ZM293 389Q257 389 223.5 364.5Q190 340 176 292H389Q389 318 380.5 336Q372 354 358.5 366Q345 378 328 383.5Q311 389 293 389Z" glyph-name="emacron" horiz-adv-x="539" unicode="ē" /><glyph d="M377 915Q373 890 386 874.5Q399 859 428 859Q454 859 473.5 873.5Q493 888 498 915L500 927Q502 935 506.5 940Q511 945 519 945H610Q618 945 622 940Q626 935 624 927L620 901Q609 829 556 786.5Q503 744 421 744Q380 744 347.5 756Q315 768 293.5 789Q272 810 263 839.5Q254 869 260 905L263 927Q264 935 270 940Q276 945 284 945H366Q374 945 377.5 940Q381 935 379 927ZM655 700Q664 700 669.5 693.5Q675 687 673 677L657 584Q655 575 648 568.5Q641 562 631 562H264L239 418H430Q440 418 445.5 411.5Q451 405 449 395L433 307Q431 298 423.5 291Q416 284 407 284H216L190 138H564Q573 138 578.5 131.5Q584 125 582 116L566 23Q564 13 557 6.5Q550 0 539 0H40Q31 0 25 6.5Q19 13 21 23L137 678Q139 687 146.5 693.5Q154 700 163 700Z" glyph-name="Ebreve" horiz-adv-x="626" unicode="Ĕ" /><glyph d="M280 702Q276 677 289 661.5Q302 646 331 646Q357 646 376.5 660.5Q396 675 401 702L403 714Q405 722 409.5 727Q414 732 422 732H513Q521 732 525 727Q529 722 527 714L523 688Q512 616 459 573.5Q406 531 324 531Q283 531 250.5 543Q218 555 196.5 576Q175 597 166 626.5Q157 656 163 692L166 714Q167 722 173 727Q179 732 187 732H269Q277 732 280.5 727Q284 722 282 714ZM265 -14Q208 -14 163 4Q118 22 87 53.5Q56 85 39.5 127.5Q23 170 23 219Q23 278 43.5 329Q64 380 100.5 418.5Q137 457 187 479Q237 501 297 501Q357 501 402 479.5Q447 458 476.5 423.5Q506 389 519 346.5Q532 304 528 261L525 233Q524 222 517.5 215Q511 208 496 208H164V205Q164 160 192.5 134Q221 108 263 108Q299 108 325 121Q351 134 371 154Q377 160 384.5 162.5Q392 165 400 160L474 111Q483 105 483 96Q483 87 479 82Q449 44 396.5 15Q344 -14 265 -14ZM293 389Q257 389 223.5 364.5Q190 340 176 292H389Q389 318 380.5 336Q372 354 358.5 366Q345 378 328 383.5Q311 389 293 389Z" glyph-name="ebreve" horiz-adv-x="539" unicode="ĕ" /><glyph d="M417 752Q397 752 379.5 760Q362 768 350 781.5Q338 795 332 812.5Q326 830 328 850Q330 870 339.5 888Q349 906 363 919.5Q377 933 395.5 940.5Q414 948 434 948Q475 948 501 919.5Q527 891 522 850Q521 830 511.5 812.5Q502 795 488 781.5Q474 768 455.5 760Q437 752 417 752ZM655 700Q664 700 669.5 693.5Q675 687 673 677L657 584Q655 575 648 568.5Q641 562 631 562H264L239 418H430Q440 418 445.5 411.5Q451 405 449 395L433 307Q431 298 423.5 291Q416 284 407 284H216L190 138H564Q573 138 578.5 131.5Q584 125 582 116L566 23Q564 13 557 6.5Q550 0 539 0H40Q31 0 25 6.5Q19 13 21 23L137 678Q139 687 146.5 693.5Q154 700 163 700Z" glyph-name="Edotaccent" horiz-adv-x="626" unicode="Ė" /><glyph d="M320 538Q300 538 282.5 546Q265 554 253 567.5Q241 581 235 598.5Q229 616 231 636Q233 656 242.5 674Q252 692 266 705.5Q280 719 298.5 726.5Q317 734 337 734Q378 734 404 705.5Q430 677 425 636Q424 616 414.5 598.5Q405 581 391 567.5Q377 554 358.5 546Q340 538 320 538ZM265 -14Q208 -14 163 4Q118 22 87 53.5Q56 85 39.5 127.5Q23 170 23 219Q23 278 43.5 329Q64 380 100.5 418.5Q137 457 187 479Q237 501 297 501Q357 501 402 479.5Q447 458 476.5 423.5Q506 389 519 346.5Q532 304 528 261L525 233Q524 222 517.5 215Q511 208 496 208H164V205Q164 160 192.5 134Q221 108 263 108Q299 108 325 121Q351 134 371 154Q377 160 384.5 162.5Q392 165 400 160L474 111Q483 105 483 96Q483 87 479 82Q449 44 396.5 15Q344 -14 265 -14ZM293 389Q257 389 223.5 364.5Q190 340 176 292H389Q389 318 380.5 336Q372 354 358.5 366Q345 378 328 383.5Q311 389 293 389Z" glyph-name="edotaccent" horiz-adv-x="539" unicode="ė" /><glyph d="M483 -184Q482 -193 471 -200Q460 -207 444 -211.5Q428 -216 410 -218.5Q392 -221 377 -221Q333 -221 305.5 -201Q278 -181 278 -140Q278 -121 286.5 -102Q295 -83 308.5 -65Q322 -47 340 -30.5Q358 -14 377 0H40Q31 0 25 6.5Q19 13 21 23L137 678Q139 687 146.5 693.5Q154 700 163 700H655Q664 700 669.5 693.5Q675 687 673 677L657 584Q655 575 648 568.5Q641 562 631 562H264L239 418H430Q440 418 445.5 411.5Q451 405 449 395L433 307Q431 298 423.5 291Q416 284 407 284H216L190 138H564Q573 138 578.5 131.5Q584 125 582 116L566 23Q564 13 557 6.5Q550 0 539 0H459Q431 -30 415 -57Q399 -84 399 -99Q399 -112 407 -121Q415 -130 435 -130Q449 -130 459 -127.5Q469 -125 475 -125Q482 -125 486.5 -130.5Q491 -136 489 -148Z" glyph-name="Eogonek" horiz-adv-x="626" unicode="Ę" /><glyph d="M297 -197Q253 -197 225.5 -177Q198 -157 198 -116Q198 -89 213.5 -63Q229 -37 253 -14Q198 -12 155.5 7Q113 26 83.5 57Q54 88 38.5 129.5Q23 171 23 219Q23 278 43.5 329Q64 380 100.5 418.5Q137 457 187 479Q237 501 297 501Q357 501 402 479.5Q447 458 476.5 423.5Q506 389 519 346.5Q532 304 528 261L525 233Q524 222 517.5 215Q511 208 496 208H164V205Q164 160 192.5 134Q221 108 263 108Q299 108 325 121Q351 134 371 154Q377 160 384.5 162.5Q392 165 400 160L474 111Q483 105 483 96Q483 87 479 82Q459 56 429 34Q399 12 358 -1Q339 -24 329 -43.5Q319 -63 319 -75Q319 -88 327 -97Q335 -106 355 -106Q369 -106 379 -103.5Q389 -101 395 -101Q402 -101 406.5 -106.5Q411 -112 409 -124L403 -160Q402 -169 391 -176Q380 -183 364 -187.5Q348 -192 330 -194.5Q312 -197 297 -197ZM293 389Q257 389 223.5 364.5Q190 340 176 292H389Q389 318 380.5 336Q372 354 358.5 366Q345 378 328 383.5Q311 389 293 389Z" glyph-name="eogonek" horiz-adv-x="539" unicode="ę" /><glyph d="M342 749Q325 749 315 771L250 922Q245 936 252.5 945Q260 954 269 954H347Q359 954 364 950Q369 946 374 937L416 859L488 937Q496 946 502 950Q508 954 520 954H612Q621 954 627 945Q633 936 622 922L503 771Q485 749 468 749ZM655 700Q664 700 669.5 693.5Q675 687 673 677L657 584Q655 575 648 568.5Q641 562 631 562H264L239 418H430Q440 418 445.5 411.5Q451 405 449 395L433 307Q431 298 423.5 291Q416 284 407 284H216L190 138H564Q573 138 578.5 131.5Q584 125 582 116L566 23Q564 13 557 6.5Q550 0 539 0H40Q31 0 25 6.5Q19 13 21 23L137 678Q139 687 146.5 693.5Q154 700 163 700Z" glyph-name="Ecaron" horiz-adv-x="626" unicode="Ě" /><glyph d="M245 536Q228 536 218 558L153 709Q148 723 155.5 732Q163 741 172 741H250Q262 741 267 737Q272 733 277 724L319 646L391 724Q399 733 405 737Q411 741 423 741H515Q524 741 530 732Q536 723 525 709L406 558Q388 536 371 536ZM265 -14Q208 -14 163 4Q118 22 87 53.5Q56 85 39.5 127.5Q23 170 23 219Q23 278 43.5 329Q64 380 100.5 418.5Q137 457 187 479Q237 501 297 501Q357 501 402 479.5Q447 458 476.5 423.5Q506 389 519 346.5Q532 304 528 261L525 233Q524 222 517.5 215Q511 208 496 208H164V205Q164 160 192.5 134Q221 108 263 108Q299 108 325 121Q351 134 371 154Q377 160 384.5 162.5Q392 165 400 160L474 111Q483 105 483 96Q483 87 479 82Q449 44 396.5 15Q344 -14 265 -14ZM293 389Q257 389 223.5 364.5Q190 340 176 292H389Q389 318 380.5 336Q372 354 358.5 366Q345 378 328 383.5Q311 389 293 389Z" glyph-name="ecaron" horiz-adv-x="539" unicode="ě" /><glyph d="M561 954Q578 954 588 933L653 781Q659 767 652 758Q645 749 634 749H557Q545 749 540 753Q535 757 530 766L487 844L416 766Q408 757 401.5 753Q395 749 384 749H291Q282 749 276.5 758Q271 767 282 781L400 933Q417 954 435 954ZM571 82Q533 37 479 11.5Q425 -14 356 -14Q288 -14 231 11Q174 36 132.5 79.5Q91 123 67.5 183Q44 243 44 312Q44 394 73 467Q102 540 154 595Q206 650 277 682Q348 714 433 714Q493 714 545 699Q597 684 638.5 657Q680 630 709.5 591.5Q739 553 754 506Q756 501 754 494Q752 487 741 483L647 449Q636 445 630.5 450.5Q625 456 623 461Q599 515 553.5 548Q508 581 436 581Q383 581 339 560Q295 539 263.5 503Q232 467 214.5 420Q197 373 197 321Q197 276 210.5 238.5Q224 201 249.5 174Q275 147 311 132Q347 117 393 117Q450 117 503 144.5Q556 172 598 238H410Q401 238 395.5 244.5Q390 251 392 261L405 336Q407 346 414.5 352.5Q422 359 431 359H731Q741 359 746.5 352.5Q752 346 750 336L695 23Q693 13 686 6.5Q679 0 668 0H581Q572 0 564.5 5.5Q557 11 560 28Z" glyph-name="Gcircumflex" horiz-adv-x="774" unicode="Ĝ" /><glyph d="M422 741Q439 741 449 720L514 568Q520 554 513 545Q506 536 495 536H418Q406 536 401 540Q396 544 391 553L348 631L277 553Q269 544 262.5 540Q256 536 245 536H152Q143 536 137.5 545Q132 554 143 568L261 720Q278 741 296 741ZM275 126Q303 126 326.5 136.5Q350 147 367.5 166Q385 185 394.5 210Q404 235 404 264Q404 313 374.5 345Q345 377 294 377Q266 377 243 366Q220 355 203.5 336Q187 317 177.5 291.5Q168 266 168 238Q168 190 196 158Q224 126 275 126ZM210 -234Q160 -234 119.5 -222Q79 -210 49 -191Q19 -172 0 -150Q-19 -128 -28 -108Q-36 -88 -29 -80.5Q-22 -73 -14 -68L54 -31Q71 -21 79 -28Q87 -35 92 -41Q100 -52 111 -63.5Q122 -75 138 -85Q154 -95 174.5 -101.5Q195 -108 221 -108Q250 -108 272.5 -99.5Q295 -91 311.5 -77Q328 -63 338 -44.5Q348 -26 352 -6L366 57Q349 37 314.5 21.5Q280 6 232 6Q188 6 150 22Q112 38 84 67.5Q56 97 40 137.5Q24 178 24 226Q24 288 44.5 338.5Q65 389 99 425Q133 461 178.5 481Q224 501 273 501Q327 501 368 480.5Q409 460 432 426L439 465Q441 476 448 481.5Q455 487 463 487H562Q571 487 576 480Q581 473 579 465L493 -7Q473 -116 401 -175Q329 -234 210 -234Z" glyph-name="gcircumflex" horiz-adv-x="582" unicode="ĝ" /><glyph d="M434 915Q430 890 443 874.5Q456 859 485 859Q511 859 530.5 873.5Q550 888 555 915L557 927Q559 935 563.5 940Q568 945 576 945H667Q675 945 679 940Q683 935 681 927L677 901Q666 829 613 786.5Q560 744 478 744Q437 744 404.5 756Q372 768 350.5 789Q329 810 320 839.5Q311 869 317 905L320 927Q321 935 327 940Q333 945 341 945H423Q431 945 434.5 940Q438 935 436 927ZM571 82Q533 37 479 11.5Q425 -14 356 -14Q288 -14 231 11Q174 36 132.5 79.5Q91 123 67.5 183Q44 243 44 312Q44 394 73 467Q102 540 154 595Q206 650 277 682Q348 714 433 714Q493 714 545 699Q597 684 638.5 657Q680 630 709.5 591.5Q739 553 754 506Q756 501 754 494Q752 487 741 483L647 449Q636 445 630.5 450.5Q625 456 623 461Q599 515 553.5 548Q508 581 436 581Q383 581 339 560Q295 539 263.5 503Q232 467 214.5 420Q197 373 197 321Q197 276 210.5 238.5Q224 201 249.5 174Q275 147 311 132Q347 117 393 117Q450 117 503 144.5Q556 172 598 238H410Q401 238 395.5 244.5Q390 251 392 261L405 336Q407 346 414.5 352.5Q422 359 431 359H731Q741 359 746.5 352.5Q752 346 750 336L695 23Q693 13 686 6.5Q679 0 668 0H581Q572 0 564.5 5.5Q557 11 560 28Z" glyph-name="Gbreve" horiz-adv-x="774" unicode="Ğ" /><glyph d="M295 702Q291 677 304 661.5Q317 646 346 646Q372 646 391.5 660.5Q411 675 416 702L418 714Q420 722 424.5 727Q429 732 437 732H528Q536 732 540 727Q544 722 542 714L538 688Q527 616 474 573.5Q421 531 339 531Q298 531 265.5 543Q233 555 211.5 576Q190 597 181 626.5Q172 656 178 692L181 714Q182 722 188 727Q194 732 202 732H284Q292 732 295.5 727Q299 722 297 714ZM275 126Q303 126 326.5 136.5Q350 147 367.5 166Q385 185 394.5 210Q404 235 404 264Q404 313 374.5 345Q345 377 294 377Q266 377 243 366Q220 355 203.5 336Q187 317 177.5 291.5Q168 266 168 238Q168 190 196 158Q224 126 275 126ZM210 -234Q160 -234 119.5 -222Q79 -210 49 -191Q19 -172 0 -150Q-19 -128 -28 -108Q-36 -88 -29 -80.5Q-22 -73 -14 -68L54 -31Q71 -21 79 -28Q87 -35 92 -41Q100 -52 111 -63.5Q122 -75 138 -85Q154 -95 174.5 -101.5Q195 -108 221 -108Q250 -108 272.5 -99.5Q295 -91 311.5 -77Q328 -63 338 -44.5Q348 -26 352 -6L366 57Q349 37 314.5 21.5Q280 6 232 6Q188 6 150 22Q112 38 84 67.5Q56 97 40 137.5Q24 178 24 226Q24 288 44.5 338.5Q65 389 99 425Q133 461 178.5 481Q224 501 273 501Q327 501 368 480.5Q409 460 432 426L439 465Q441 476 448 481.5Q455 487 463 487H562Q571 487 576 480Q581 473 579 465L493 -7Q473 -116 401 -175Q329 -234 210 -234Z" glyph-name="gbreve" horiz-adv-x="582" unicode="ğ" /><glyph d="M474 752Q454 752 436.5 760Q419 768 407 781.5Q395 795 389 812.5Q383 830 385 850Q387 870 396.5 888Q406 906 420 919.5Q434 933 452.5 940.5Q471 948 491 948Q532 948 558 919.5Q584 891 579 850Q578 830 568.5 812.5Q559 795 545 781.5Q531 768 512.5 760Q494 752 474 752ZM571 82Q533 37 479 11.5Q425 -14 356 -14Q288 -14 231 11Q174 36 132.5 79.5Q91 123 67.5 183Q44 243 44 312Q44 394 73 467Q102 540 154 595Q206 650 277 682Q348 714 433 714Q493 714 545 699Q597 684 638.5 657Q680 630 709.5 591.5Q739 553 754 506Q756 501 754 494Q752 487 741 483L647 449Q636 445 630.5 450.5Q625 456 623 461Q599 515 553.5 548Q508 581 436 581Q383 581 339 560Q295 539 263.5 503Q232 467 214.5 420Q197 373 197 321Q197 276 210.5 238.5Q224 201 249.5 174Q275 147 311 132Q347 117 393 117Q450 117 503 144.5Q556 172 598 238H410Q401 238 395.5 244.5Q390 251 392 261L405 336Q407 346 414.5 352.5Q422 359 431 359H731Q741 359 746.5 352.5Q752 346 750 336L695 23Q693 13 686 6.5Q679 0 668 0H581Q572 0 564.5 5.5Q557 11 560 28Z" glyph-name="Gdotaccent" horiz-adv-x="774" unicode="Ġ" /><glyph d="M335 538Q315 538 297.5 546Q280 554 268 567.5Q256 581 250 598.5Q244 616 246 636Q248 656 257.5 674Q267 692 281 705.5Q295 719 313.5 726.5Q332 734 352 734Q393 734 419 705.5Q445 677 440 636Q439 616 429.5 598.5Q420 581 406 567.5Q392 554 373.5 546Q355 538 335 538ZM275 126Q303 126 326.5 136.5Q350 147 367.5 166Q385 185 394.5 210Q404 235 404 264Q404 313 374.5 345Q345 377 294 377Q266 377 243 366Q220 355 203.5 336Q187 317 177.5 291.5Q168 266 168 238Q168 190 196 158Q224 126 275 126ZM210 -234Q160 -234 119.5 -222Q79 -210 49 -191Q19 -172 0 -150Q-19 -128 -28 -108Q-36 -88 -29 -80.5Q-22 -73 -14 -68L54 -31Q71 -21 79 -28Q87 -35 92 -41Q100 -52 111 -63.5Q122 -75 138 -85Q154 -95 174.5 -101.5Q195 -108 221 -108Q250 -108 272.5 -99.5Q295 -91 311.5 -77Q328 -63 338 -44.5Q348 -26 352 -6L366 57Q349 37 314.5 21.5Q280 6 232 6Q188 6 150 22Q112 38 84 67.5Q56 97 40 137.5Q24 178 24 226Q24 288 44.5 338.5Q65 389 99 425Q133 461 178.5 481Q224 501 273 501Q327 501 368 480.5Q409 460 432 426L439 465Q441 476 448 481.5Q455 487 463 487H562Q571 487 576 480Q581 473 579 465L493 -7Q473 -116 401 -175Q329 -234 210 -234Z" glyph-name="gdotaccent" horiz-adv-x="582" unicode="ġ" /><glyph d="M571 82Q533 37 479 11.5Q425 -14 356 -14Q288 -14 231 11Q174 36 132.5 79.5Q91 123 67.5 183Q44 243 44 312Q44 394 73 467Q102 540 154 595Q206 650 277 682Q348 714 433 714Q493 714 545 699Q597 684 638.5 657Q680 630 709.5 591.5Q739 553 754 506Q756 501 754 494Q752 487 741 483L647 449Q636 445 630.5 450.5Q625 456 623 461Q599 515 553.5 548Q508 581 436 581Q383 581 339 560Q295 539 263.5 503Q232 467 214.5 420Q197 373 197 321Q197 276 210.5 238.5Q224 201 249.5 174Q275 147 311 132Q347 117 393 117Q450 117 503 144.5Q556 172 598 238H410Q401 238 395.5 244.5Q390 251 392 261L405 336Q407 346 414.5 352.5Q422 359 431 359H731Q741 359 746.5 352.5Q752 346 750 336L695 23Q693 13 686 6.5Q679 0 668 0H581Q572 0 564.5 5.5Q557 11 560 28ZM290 -208Q269 -198 257 -178Q245 -158 247 -133Q251 -97 275.5 -73.5Q300 -50 337 -50Q354 -50 370 -57Q386 -64 397.5 -77Q409 -90 415.5 -107Q422 -124 420 -145Q417 -174 404.5 -198Q392 -222 375 -241.5Q358 -261 339 -276Q320 -291 304 -301Q291 -310 278 -313Q265 -316 254 -308L243 -301Q233 -293 233.5 -284.5Q234 -276 240 -268Z" glyph-name="Gcommaaccent" horiz-adv-x="774" unicode="Ģ" /><glyph d="M368 717Q391 706 404.5 682Q418 658 416 630Q412 592 385.5 566Q359 540 318 540Q299 540 281.5 548Q264 556 251 570Q238 584 231 603.5Q224 623 226 646Q229 678 244 705Q259 732 279 754Q299 776 321 793Q343 810 360 822Q374 832 388.5 835Q403 838 415 830L426 821Q437 813 437.5 803.5Q438 794 430 786ZM275 126Q303 126 326.5 136.5Q350 147 367.5 166Q385 185 394.5 210Q404 235 404 264Q404 313 374.5 345Q345 377 294 377Q266 377 243 366Q220 355 203.5 336Q187 317 177.5 291.5Q168 266 168 238Q168 190 196 158Q224 126 275 126ZM210 -234Q160 -234 119.5 -222Q79 -210 49 -191Q19 -172 0 -150Q-19 -128 -28 -108Q-36 -88 -29 -80.5Q-22 -73 -14 -68L54 -31Q71 -21 79 -28Q87 -35 92 -41Q100 -52 111 -63.5Q122 -75 138 -85Q154 -95 174.5 -101.5Q195 -108 221 -108Q250 -108 272.5 -99.5Q295 -91 311.5 -77Q328 -63 338 -44.5Q348 -26 352 -6L366 57Q349 37 314.5 21.5Q280 6 232 6Q188 6 150 22Q112 38 84 67.5Q56 97 40 137.5Q24 178 24 226Q24 288 44.5 338.5Q65 389 99 425Q133 461 178.5 481Q224 501 273 501Q327 501 368 480.5Q409 460 432 426L439 465Q441 476 448 481.5Q455 487 463 487H562Q571 487 576 480Q581 473 579 465L493 -7Q473 -116 401 -175Q329 -234 210 -234Z" glyph-name="gcommaaccent" horiz-adv-x="582" unicode="ģ" /><glyph d="M543 954Q560 954 570 933L635 781Q641 767 634 758Q627 749 616 749H539Q527 749 522 753Q517 757 512 766L469 844L398 766Q390 757 383.5 753Q377 749 366 749H273Q264 749 258.5 758Q253 767 264 781L382 933Q399 954 417 954ZM637 23Q635 13 627.5 6.5Q620 0 611 0H507Q499 0 493 6.5Q487 13 489 23L535 284H216L169 23Q167 13 160 6.5Q153 0 144 0H40Q31 0 25 6.5Q19 13 21 23L137 678Q139 687 146 693.5Q153 700 163 700H266Q276 700 281.5 693.5Q287 687 285 678L239 418H560L605 678Q607 687 614 693.5Q621 700 631 700H734Q743 700 748.5 693.5Q754 687 752 678Z" glyph-name="Hcircumflex" horiz-adv-x="734" unicode="Ĥ" /><glyph d="M465 954Q482 954 492 933L557 781Q563 767 556 758Q549 749 538 749H461Q449 749 444 753Q439 757 434 766L391 844L320 766Q312 757 305.5 753Q299 749 288 749H195Q186 749 180.5 758Q175 767 186 781L304 933Q321 954 339 954ZM148 20Q146 11 138 5.5Q130 0 122 0H23Q15 0 9.5 6Q4 12 6 21L122 679Q124 688 131 694Q138 700 146 700H247Q255 700 261 694.5Q267 689 265 680L221 440Q245 465 282 483Q319 501 364 501Q409 501 446 485.5Q483 470 508 440Q533 410 543.5 366.5Q554 323 544 267L500 20Q498 11 490.5 5.5Q483 0 475 0H377Q368 0 362.5 5.5Q357 11 359 20L399 251Q409 305 389.5 336.5Q370 368 316 368Q266 368 231.5 332Q197 296 185 232Z" glyph-name="hcircumflex" horiz-adv-x="576" unicode="ĥ" /><glyph d="M565 418 580 503H259L244 418ZM175 23Q173 13 166 6.5Q159 0 149 0H46Q36 0 30.5 6.5Q25 13 27 23L111 503H76Q66 503 61 510Q56 517 57 526L67 586Q69 595 77 602Q85 609 95 609H130L142 678Q144 687 151 693.5Q158 700 169 700H271Q281 700 286.5 693.5Q292 687 290 678L278 609H599L610 678Q612 687 619 693.5Q626 700 637 700H739Q749 700 754.5 693.5Q760 687 758 678L746 609H777Q787 609 792 602Q797 595 795 586L785 526Q783 517 775.5 510Q768 503 759 503H727L643 23Q641 13 633 6.5Q625 0 617 0H513Q504 0 498.5 6.5Q493 13 495 23L541 284H221Z" glyph-name="Hbar" horiz-adv-x="744" unicode="Ħ" /><glyph d="M148 20Q146 11 138 5.5Q130 0 122 0H23Q15 0 9.5 6Q4 12 6 21L98 540H55Q45 540 39.5 546.5Q34 553 36 563L44 610Q46 621 54 627Q62 633 71 633H115L122 679Q124 688 131 694Q138 700 146 700H247Q255 700 261 694.5Q267 689 265 680L256 633H362Q371 633 376.5 626.5Q382 620 380 610L372 563Q370 552 362.5 546Q355 540 345 540H239L221 440Q245 465 282 483Q319 501 364 501Q409 501 446 485.5Q483 470 508 440Q533 410 543.5 366.5Q554 323 544 267L500 20Q498 11 490.5 5.5Q483 0 475 0H377Q368 0 362.5 5.5Q357 11 359 20L399 251Q409 305 389.5 336.5Q370 368 316 368Q266 368 231.5 332Q197 296 185 232Z" glyph-name="hbar" horiz-adv-x="576" unicode="ħ" /><glyph d="M143 927Q161 927 183.5 922Q206 917 227.5 910.5Q249 904 268 899Q287 894 298 894Q313 894 323 898.5Q333 903 341 908Q349 913 355.5 918.5Q362 924 370 925Q386 930 395 912L416 868Q424 850 420 838Q417 826 406.5 812.5Q396 799 379 788Q362 777 341 769.5Q320 762 296 762Q277 762 254 767Q231 772 209.5 778Q188 784 169.5 789Q151 794 141 794Q126 794 116 790Q106 786 98.5 780.5Q91 775 85 770Q79 765 71 763Q53 759 45 776L22 821Q15 835 18 850Q21 862 32 875.5Q43 889 60 900.5Q77 912 98.5 919.5Q120 927 143 927ZM40 0Q30 0 24.5 6.5Q19 13 21 23L137 678Q139 687 146 693.5Q153 700 163 700H266Q275 700 280.5 693.5Q286 687 284 678L168 23Q166 13 159.5 6.5Q153 0 143 0Z" glyph-name="Itilde" horiz-adv-x="266" unicode="Ĩ" /><glyph d="M87 714Q105 714 127.5 709Q150 704 171.5 697.5Q193 691 212 686Q231 681 242 681Q257 681 267 685.5Q277 690 285 695Q293 700 299.5 705.5Q306 711 314 712Q330 717 339 699L360 655Q368 637 364 625Q361 613 350.5 599.5Q340 586 323 575Q306 564 285 556.5Q264 549 240 549Q221 549 198 554Q175 559 153.5 565Q132 571 113.5 576Q95 581 85 581Q70 581 60 577Q50 573 42.5 567.5Q35 562 29 557Q23 552 15 550Q-3 546 -11 563L-34 608Q-41 622 -38 637Q-35 649 -24 662.5Q-13 676 4 687.5Q21 699 42.5 706.5Q64 714 87 714ZM23 0Q15 0 9.5 6.5Q4 13 6 22L84 465Q86 474 93 480.5Q100 487 109 487H209Q217 487 222 480.5Q227 474 225 465L147 22Q146 13 138.5 6.5Q131 0 123 0Z" glyph-name="itilde" horiz-adv-x="229" unicode="ĩ" /><glyph d="M65 766Q56 766 50.5 772.5Q45 779 47 789L60 865Q62 875 70 881Q78 887 88 887H402Q411 887 416.5 881Q422 875 420 865L408 789Q406 779 398 772.5Q390 766 380 766ZM40 0Q30 0 24.5 6.5Q19 13 21 23L137 678Q139 687 146 693.5Q153 700 163 700H266Q275 700 280.5 693.5Q286 687 284 678L168 23Q166 13 159.5 6.5Q153 0 143 0Z" glyph-name="Imacron" horiz-adv-x="266" unicode="Ī" /><glyph d="M9 553Q0 553 -5.5 559.5Q-11 566 -9 576L4 652Q6 662 14 668Q22 674 32 674H346Q355 674 360.5 668Q366 662 364 652L352 576Q350 566 342 559.5Q334 553 324 553ZM23 0Q15 0 9.5 6.5Q4 13 6 22L84 465Q86 474 93 480.5Q100 487 109 487H209Q217 487 222 480.5Q227 474 225 465L147 22Q146 13 138.5 6.5Q131 0 123 0Z" glyph-name="imacron" horiz-adv-x="229" unicode="ī" /><glyph d="M181 915Q177 890 190 874.5Q203 859 232 859Q258 859 277.5 873.5Q297 888 302 915L304 927Q306 935 310.5 940Q315 945 323 945H414Q422 945 426 940Q430 935 428 927L424 901Q413 829 360 786.5Q307 744 225 744Q184 744 151.5 756Q119 768 97.5 789Q76 810 67 839.5Q58 869 64 905L67 927Q68 935 74 940Q80 945 88 945H170Q178 945 181.5 940Q185 935 183 927ZM40 0Q30 0 24.5 6.5Q19 13 21 23L137 678Q139 687 146 693.5Q153 700 163 700H266Q275 700 280.5 693.5Q286 687 284 678L168 23Q166 13 159.5 6.5Q153 0 143 0Z" glyph-name="Ibreve" horiz-adv-x="266" unicode="Ĭ" /><glyph d="M125 702Q121 677 134 661.5Q147 646 176 646Q202 646 221.5 660.5Q241 675 246 702L248 714Q250 722 254.5 727Q259 732 267 732H358Q366 732 370 727Q374 722 372 714L368 688Q357 616 304 573.5Q251 531 169 531Q128 531 95.5 543Q63 555 41.5 576Q20 597 11 626.5Q2 656 8 692L11 714Q12 722 18 727Q24 732 32 732H114Q122 732 125.5 727Q129 722 127 714ZM23 0Q15 0 9.5 6.5Q4 13 6 22L84 465Q86 474 93 480.5Q100 487 109 487H209Q217 487 222 480.5Q227 474 225 465L147 22Q146 13 138.5 6.5Q131 0 123 0Z" glyph-name="ibreve" horiz-adv-x="229" unicode="ĭ" /><glyph d="M160 -184Q159 -193 148 -200Q137 -207 121 -211.5Q105 -216 87 -218.5Q69 -221 54 -221Q10 -221 -17.5 -201Q-45 -181 -45 -140Q-45 -121 -36.5 -102Q-28 -83 -14.5 -65Q-1 -47 17 -30.5Q35 -14 54 0H40Q30 0 24.5 6.5Q19 13 21 23L137 678Q139 687 146 693.5Q153 700 163 700H266Q275 700 280.5 693.5Q286 687 284 678L168 23Q166 13 159.5 6.5Q153 0 143 0H136Q108 -30 92 -57Q76 -84 76 -99Q76 -112 84 -121Q92 -130 112 -130Q126 -130 136 -127.5Q146 -125 152 -125Q159 -125 163.5 -130.5Q168 -136 166 -148Z" glyph-name="Iogonek" horiz-adv-x="266" unicode="Į" /><glyph d="M176 539Q141 539 118 565Q95 591 98 626Q101 662 128.5 688Q156 714 191 714Q226 714 249.5 688Q273 662 269 626Q266 591 238.5 565Q211 539 176 539ZM122 -184Q121 -193 110 -200Q99 -207 83 -211.5Q67 -216 49 -218.5Q31 -221 16 -221Q-28 -221 -55.5 -201Q-83 -181 -83 -140Q-83 -101 -52.5 -64.5Q-22 -28 17 1Q11 3 7 8.5Q3 14 5 22L84 465Q86 474 93 480.5Q100 487 109 487H209Q217 487 222 480.5Q227 474 225 465L147 22Q146 13 138.5 6.5Q131 0 123 0H98Q70 -30 54 -57Q38 -84 38 -99Q38 -112 46 -121Q54 -130 74 -130Q88 -130 98 -127.5Q108 -125 114 -125Q121 -125 125.5 -130.5Q130 -136 128 -148Z" glyph-name="iogonek" horiz-adv-x="229" unicode="į" /><glyph d="M222 752Q202 752 184.5 760Q167 768 155 781.5Q143 795 137 812.5Q131 830 133 850Q135 870 144.5 888Q154 906 168 919.5Q182 933 200.5 940.5Q219 948 239 948Q280 948 306 919.5Q332 891 327 850Q326 830 316.5 812.5Q307 795 293 781.5Q279 768 260.5 760Q242 752 222 752ZM40 0Q30 0 24.5 6.5Q19 13 21 23L137 678Q139 687 146 693.5Q153 700 163 700H266Q275 700 280.5 693.5Q286 687 284 678L168 23Q166 13 159.5 6.5Q153 0 143 0Z" glyph-name="Idotaccent" horiz-adv-x="266" unicode="İ" /><glyph d="M23 0Q15 0 9.5 6.5Q4 13 6 22L84 465Q86 474 93 480.5Q100 487 109 487H209Q217 487 222 480.5Q227 474 225 465L147 22Q146 13 138.5 6.5Q131 0 123 0Z" glyph-name="dotlessi" horiz-adv-x="229" unicode="ı" /><glyph d="M40 0Q30 0 24.5 6.5Q19 13 21 23L137 678Q139 687 146 693.5Q153 700 163 700H266Q275 700 280.5 693.5Q286 687 284 678L168 23Q166 13 159.5 6.5Q153 0 143 0ZM806 225Q786 106 712.5 46Q639 -14 528 -14Q475 -14 427.5 2.5Q380 19 346 52Q312 85 296 133Q280 181 290 244L295 278Q297 287 304 293.5Q311 300 322 300H421Q430 300 435.5 293.5Q441 287 439 278L431 236Q422 183 451 150.5Q480 118 535 118Q565 118 587 128Q609 138 624 154.5Q639 171 648 193.5Q657 216 661 241L738 678Q740 687 747.5 693.5Q755 700 765 700H867Q877 700 882.5 693.5Q888 687 887 678Z" glyph-name="IJ" horiz-adv-x="863" unicode="Ĳ" /><glyph d="M406 539Q371 539 347.5 565Q324 591 327 626Q331 662 358 688Q385 714 420 714Q455 714 478.5 688Q502 662 499 626Q498 608 489.5 592.5Q481 577 468.5 565Q456 553 439.5 546Q423 539 406 539ZM176 539Q141 539 118 565Q95 591 98 626Q101 662 128.5 688Q156 714 191 714Q226 714 249.5 688Q273 662 269 626Q266 591 238.5 565Q211 539 176 539ZM22 0Q14 0 8.5 6.5Q3 13 5 22L84 465Q86 474 93 480.5Q100 487 109 487H209Q217 487 222 480.5Q227 474 225 465L147 22Q146 13 138.5 6.5Q131 0 123 0ZM314 465Q316 473 323 480Q330 487 339 487H438Q446 487 452 480Q458 473 456 465L363 -61Q347 -153 293.5 -193.5Q240 -234 168 -234Q133 -234 96.5 -222Q60 -210 37 -187Q23 -172 38 -151L83 -90Q94 -75 105 -79Q116 -83 124 -88Q146 -103 166 -103Q184 -103 200.5 -92.5Q217 -82 223 -47Z" glyph-name="ij" horiz-adv-x="460" unicode="ĳ" /><glyph d="M638 954Q655 954 665 933L730 781Q736 767 729 758Q722 749 711 749H634Q622 749 617 753Q612 757 607 766L564 844L493 766Q485 757 478.5 753Q472 749 461 749H368Q359 749 353.5 758Q348 767 359 781L477 933Q494 954 512 954ZM532 225Q512 106 438.5 46Q365 -14 254 -14Q201 -14 153.5 2.5Q106 19 72 52Q38 85 22 133Q6 181 16 244L21 278Q23 287 30 293.5Q37 300 48 300H147Q156 300 161.5 293.5Q167 287 165 278L157 236Q148 183 177 150.5Q206 118 261 118Q291 118 313 128Q335 138 350 154.5Q365 171 374 193.5Q383 216 387 241L464 678Q466 687 473.5 693.5Q481 700 491 700H593Q603 700 608.5 693.5Q614 687 613 678Z" glyph-name="Jcircumflex" horiz-adv-x="590" unicode="Ĵ" /><glyph d="M253 741Q270 741 280 720L345 568Q351 554 344 545Q337 536 326 536H249Q237 536 232 540Q227 544 222 553L179 631L108 553Q100 544 93.5 540Q87 536 76 536H-17Q-26 536 -31.5 545Q-37 554 -26 568L92 720Q109 741 127 741ZM84 465Q86 473 93 480Q100 487 109 487H208Q216 487 222 480Q228 473 226 465L133 -61Q117 -153 63.5 -193.5Q10 -234 -62 -234Q-97 -234 -133.5 -222Q-170 -210 -193 -187Q-207 -172 -192 -151L-147 -90Q-136 -75 -125 -79Q-114 -83 -106 -88Q-84 -103 -64 -103Q-46 -103 -29.5 -92.5Q-13 -82 -7 -47Z" glyph-name="jcircumflex" horiz-adv-x="230" unicode="ĵ" /><glyph d="M168 23Q166 13 159.5 6.5Q153 0 143 0H40Q30 0 24.5 6.5Q19 13 21 23L137 678Q138 687 145.5 693.5Q153 700 163 700H266Q276 700 280.5 693.5Q285 687 284 678L238 420H313L543 681Q553 692 561.5 696Q570 700 586 700H706Q719 700 722 691.5Q725 683 716 673L430 361L625 28Q631 17 625 8.5Q619 0 610 0H496Q482 0 475 3.5Q468 7 462 18L307 293H216ZM238 -208Q217 -198 205 -178Q193 -158 195 -133Q199 -97 223.5 -73.5Q248 -50 285 -50Q302 -50 318 -57Q334 -64 345.5 -77Q357 -90 363.5 -107Q370 -124 368 -145Q365 -174 352.5 -198Q340 -222 323 -241.5Q306 -261 287 -276Q268 -291 252 -301Q239 -310 226 -313Q213 -316 202 -308L191 -301Q181 -293 181.5 -284.5Q182 -276 188 -268Z" glyph-name="Kcommaaccent" horiz-adv-x="655" unicode="Ķ" /><glyph d="M148 21Q147 12 140 6Q133 0 124 0H24Q15 0 9.5 6Q4 12 6 21L122 679Q124 688 131.5 694Q139 700 147 700H247Q256 700 261 694Q266 688 264 679L200 317H237L374 471Q389 487 406 487H516Q531 487 535 476Q539 465 528 452L347 260L484 36Q492 23 485.5 11.5Q479 0 462 0H365Q351 0 345 4Q339 8 334 18L227 203H180ZM156 -208Q135 -198 123 -178Q111 -158 113 -133Q117 -97 141.5 -73.5Q166 -50 203 -50Q220 -50 236 -57Q252 -64 263.5 -77Q275 -90 281.5 -107Q288 -124 286 -145Q283 -174 270.5 -198Q258 -222 241 -241.5Q224 -261 205 -276Q186 -291 170 -301Q157 -310 144 -313Q131 -316 120 -308L109 -301Q99 -293 99.5 -284.5Q100 -276 106 -268Z" glyph-name="kcommaaccent" horiz-adv-x="517" unicode="ķ" /><glyph d="M148 21Q146 12 139 6Q132 0 123 0H24Q15 0 9.5 6Q4 12 6 21L84 465Q86 474 93.5 480.5Q101 487 109 487H210Q218 487 223 480.5Q228 474 226 465L200 314H235L374 471Q389 487 406 487H516Q531 487 535 476Q539 465 528 452L349 261L484 36Q492 23 485.5 11.5Q479 0 462 0H365Q351 0 345 4Q339 8 334 18L226 208H181Z" glyph-name="kgreenlandic" horiz-adv-x="518" unicode="ĸ" /><glyph d="M383 954Q400 954 405.5 942Q411 930 403 920L282 765Q275 757 270 753Q265 749 255 749H189Q174 749 166 758Q158 767 163 781L232 935Q240 954 259 954ZM512 23Q511 13 503.5 6.5Q496 0 486 0H40Q31 0 25 6.5Q19 13 21 22L137 677Q138 687 146 693.5Q154 700 163 700H266Q275 700 280.5 693.5Q286 687 284 677L189 138H510Q520 138 525.5 131.5Q531 125 529 116Z" glyph-name="Lacute" horiz-adv-x="556" unicode="Ĺ" /><glyph d="M362 954Q379 954 384.5 942Q390 930 382 920L261 765Q254 757 249 753Q244 749 234 749H168Q153 749 145 758Q137 767 142 781L211 935Q219 954 238 954ZM133 0Q67 0 39.5 34Q12 68 22 122L120 678Q122 687 129 693.5Q136 700 145 700H245Q254 700 259 693.5Q264 687 262 678L169 151Q167 137 172.5 128.5Q178 120 191 120H223Q231 120 236.5 115.5Q242 111 240 100L227 26Q224 9 213.5 4.5Q203 0 194 0Z" glyph-name="lacute" horiz-adv-x="274" unicode="ĺ" /><glyph d="M512 23Q511 13 503.5 6.5Q496 0 486 0H40Q31 0 25 6.5Q19 13 21 22L137 677Q138 687 146 693.5Q154 700 163 700H266Q275 700 280.5 693.5Q286 687 284 677L189 138H510Q520 138 525.5 131.5Q531 125 529 116ZM203 -208Q182 -198 170 -178Q158 -158 160 -133Q164 -97 188.5 -73.5Q213 -50 250 -50Q267 -50 283 -57Q299 -64 310.5 -77Q322 -90 328.5 -107Q335 -124 333 -145Q330 -174 317.5 -198Q305 -222 288 -241.5Q271 -261 252 -276Q233 -291 217 -301Q204 -310 191 -313Q178 -316 167 -308L156 -301Q146 -293 146.5 -284.5Q147 -276 153 -268Z" glyph-name="Lcommaaccent" horiz-adv-x="556" unicode="Ļ" /><glyph d="M133 0Q67 0 39.5 34Q12 68 22 122L120 678Q122 687 129 693.5Q136 700 145 700H245Q254 700 259 693.5Q264 687 262 678L169 151Q167 137 172.5 128.5Q178 120 191 120H223Q231 120 236.5 115.5Q242 111 240 100L227 26Q224 9 213.5 4.5Q203 0 194 0ZM49 -208Q28 -198 16 -178Q4 -158 6 -133Q10 -97 34.5 -73.5Q59 -50 96 -50Q113 -50 129 -57Q145 -64 156.5 -77Q168 -90 174.5 -107Q181 -124 179 -145Q176 -174 163.5 -198Q151 -222 134 -241.5Q117 -261 98 -276Q79 -291 63 -301Q50 -310 37 -313Q24 -316 13 -308L2 -301Q-8 -293 -7.5 -284.5Q-7 -276 -1 -268Z" glyph-name="lcommaaccent" horiz-adv-x="274" unicode="ļ" /><glyph d="M424 549Q404 558 391 580Q378 602 380 627Q384 662 409 685.5Q434 709 471 709Q489 709 505 702Q521 695 533 683Q545 671 551.5 653.5Q558 636 556 615Q554 590 541.5 565.5Q529 541 512 519.5Q495 498 476 480.5Q457 463 442 452Q427 442 414.5 439.5Q402 437 391 445L380 453Q361 466 377 486ZM512 23Q511 13 503.5 6.5Q496 0 486 0H40Q31 0 25 6.5Q19 13 21 22L137 677Q138 687 146 693.5Q154 700 163 700H266Q275 700 280.5 693.5Q286 687 284 677L189 138H510Q520 138 525.5 131.5Q531 125 529 116Z" glyph-name="Lcaron" horiz-adv-x="559" unicode="Ľ" /><glyph d="M335 549Q315 558 302 580Q289 602 291 627Q295 662 320 685.5Q345 709 382 709Q400 709 416 702Q432 695 444 683Q456 671 462.5 653.5Q469 636 467 615Q465 590 452.5 565.5Q440 541 423 519.5Q406 498 387 480.5Q368 463 353 452Q338 442 325.5 439.5Q313 437 302 445L291 453Q272 466 288 486ZM133 0Q67 0 39.5 34Q12 68 22 122L120 678Q122 687 129 693.5Q136 700 145 700H245Q254 700 259 693.5Q264 687 262 678L169 151Q167 137 172.5 128.5Q178 120 191 120H223Q231 120 236.5 115.5Q242 111 240 100L227 26Q224 9 213.5 4.5Q203 0 194 0Z" glyph-name="lcaron" horiz-adv-x="332" unicode="ľ" /><glyph d="M512 23Q511 13 503.5 6.5Q496 0 486 0H40Q31 0 25 6.5Q19 13 21 22L137 677Q138 687 146 693.5Q154 700 163 700H266Q275 700 280.5 693.5Q286 687 284 677L189 138H510Q520 138 525.5 131.5Q531 125 529 116ZM412 277Q371 277 344.5 306Q318 335 321 377Q323 397 332.5 415Q342 433 356.5 446.5Q371 460 390 468Q409 476 429 476Q449 476 466.5 468Q484 460 496 446.5Q508 433 514.5 415Q521 397 519 377Q517 356 507.5 338Q498 320 483.5 306.5Q469 293 450.5 285Q432 277 412 277Z" glyph-name="Ldot" horiz-adv-x="564" unicode="Ŀ" /><glyph d="M133 0Q67 0 39.5 34Q12 68 22 122L120 678Q122 687 129 693.5Q136 700 145 700H245Q254 700 259 693.5Q264 687 262 678L169 151Q167 137 172.5 128.5Q178 120 191 120H223Q231 120 236.5 115.5Q242 111 240 100L227 26Q224 9 213.5 4.5Q203 0 194 0ZM315 204Q278 204 254.5 229.5Q231 255 234 292Q237 328 265 354Q293 380 330 380Q366 380 389.5 354Q413 328 410 292Q407 255 379 229.5Q351 204 315 204Z" glyph-name="ldot" horiz-adv-x="398" unicode="ŀ" /><glyph d="M62 0Q53 0 47 6.5Q41 13 43 22L83 247L27 234Q15 231 9.5 236.5Q4 242 6 253L19 327Q22 347 40 352L104 368L159 677Q160 687 168 693.5Q176 700 185 700H288Q297 700 302.5 693.5Q308 687 306 677L258 403L409 439Q421 442 427 436.5Q433 431 431 420L418 345Q415 326 396 320L236 283L211 138H532Q542 138 547.5 131.5Q553 125 551 116L534 23Q533 13 525.5 6.5Q518 0 508 0Z" glyph-name="Lslash" horiz-adv-x="579" unicode="Ł" /><glyph d="M143 0Q77 0 50 34Q23 68 33 122L53 235L35 228Q24 224 17 228Q10 232 12 243L24 307Q26 318 31 322Q36 326 46 330L71 340L131 678Q133 687 140 693.5Q147 700 155 700H256Q264 700 269 693.5Q274 687 272 678L223 397L260 411Q272 415 278.5 411Q285 407 283 396L271 332Q269 322 264 317.5Q259 313 250 310L205 293L180 151Q177 137 182.5 128.5Q188 120 202 120H234Q242 120 247.5 115.5Q253 111 251 100L238 26Q235 9 224.5 4.5Q214 0 205 0Z" glyph-name="lslash" horiz-adv-x="289" unicode="ł" /><glyph d="M609 954Q626 954 631.5 942Q637 930 629 920L508 765Q501 757 496 753Q491 749 481 749H415Q400 749 392 758Q384 767 389 781L458 935Q466 954 485 954ZM248 486 168 22Q165 0 143 0H40Q31 0 25 6Q19 12 21 22L137 678Q138 687 145.5 693.5Q153 700 163 700H288Q308 700 316 682L510 227L589 678Q591 687 598.5 693.5Q606 700 615 700H718Q727 700 732.5 693.5Q738 687 736 678L620 22Q618 12 611 6Q604 0 595 0H492Q459 0 451 22Z" glyph-name="Nacute" horiz-adv-x="718" unicode="Ń" /><glyph d="M503 741Q520 741 525.5 729Q531 717 523 707L402 552Q395 544 390 540Q385 536 375 536H309Q294 536 286 545Q278 554 283 568L352 722Q360 741 379 741ZM398 251Q408 305 388 336.5Q368 368 315 368Q264 368 230 332Q196 296 184 232L147 20Q145 11 137 5.5Q129 0 121 0H22Q14 0 8.5 6Q3 12 5 21L84 465Q86 474 92.5 480.5Q99 487 108 487H204Q212 487 218 481Q224 475 222 467L216 436Q235 459 273.5 480Q312 501 363 501Q408 501 445 485.5Q482 470 507 440Q532 410 542.5 366.5Q553 323 543 267L499 20Q497 11 489.5 5.5Q482 0 474 0H376Q367 0 361.5 5.5Q356 11 358 20Z" glyph-name="nacute" horiz-adv-x="575" unicode="ń" /><glyph d="M248 486 168 22Q165 0 143 0H40Q31 0 25 6Q19 12 21 22L137 678Q138 687 145.5 693.5Q153 700 163 700H288Q308 700 316 682L510 227L589 678Q591 687 598.5 693.5Q606 700 615 700H718Q727 700 732.5 693.5Q738 687 736 678L620 22Q618 12 611 6Q604 0 595 0H492Q459 0 451 22ZM262 -208Q241 -198 229 -178Q217 -158 219 -133Q223 -97 247.5 -73.5Q272 -50 309 -50Q326 -50 342 -57Q358 -64 369.5 -77Q381 -90 387.5 -107Q394 -124 392 -145Q389 -174 376.5 -198Q364 -222 347 -241.5Q330 -261 311 -276Q292 -291 276 -301Q263 -310 250 -313Q237 -316 226 -308L215 -301Q205 -293 205.5 -284.5Q206 -276 212 -268Z" glyph-name="Ncommaaccent" horiz-adv-x="718" unicode="Ņ" /><glyph d="M398 251Q408 305 388 336.5Q368 368 315 368Q264 368 230 332Q196 296 184 232L147 20Q145 11 137 5.5Q129 0 121 0H22Q14 0 8.5 6Q3 12 5 21L84 465Q86 474 92.5 480.5Q99 487 108 487H204Q212 487 218 481Q224 475 222 467L216 436Q235 459 273.5 480Q312 501 363 501Q408 501 445 485.5Q482 470 507 440Q532 410 542.5 366.5Q553 323 543 267L499 20Q497 11 489.5 5.5Q482 0 474 0H376Q367 0 361.5 5.5Q356 11 358 20ZM194 -208Q173 -198 161 -178Q149 -158 151 -133Q155 -97 179.5 -73.5Q204 -50 241 -50Q258 -50 274 -57Q290 -64 301.5 -77Q313 -90 319.5 -107Q326 -124 324 -145Q321 -174 308.5 -198Q296 -222 279 -241.5Q262 -261 243 -276Q224 -291 208 -301Q195 -310 182 -313Q169 -316 158 -308L147 -301Q137 -293 137.5 -284.5Q138 -276 144 -268Z" glyph-name="ncommaaccent" horiz-adv-x="575" unicode="ņ" /><glyph d="M373 749Q356 749 346 771L281 922Q276 936 283.5 945Q291 954 300 954H378Q390 954 395 950Q400 946 405 937L447 859L519 937Q527 946 533 950Q539 954 551 954H643Q652 954 658 945Q664 936 653 922L534 771Q516 749 499 749ZM248 486 168 22Q165 0 143 0H40Q31 0 25 6Q19 12 21 22L137 678Q138 687 145.5 693.5Q153 700 163 700H288Q308 700 316 682L510 227L589 678Q591 687 598.5 693.5Q606 700 615 700H718Q727 700 732.5 693.5Q738 687 736 678L620 22Q618 12 611 6Q604 0 595 0H492Q459 0 451 22Z" glyph-name="Ncaron" horiz-adv-x="718" unicode="Ň" /><glyph d="M267 536Q250 536 240 558L175 709Q170 723 177.5 732Q185 741 194 741H272Q284 741 289 737Q294 733 299 724L341 646L413 724Q421 733 427 737Q433 741 445 741H537Q546 741 552 732Q558 723 547 709L428 558Q410 536 393 536ZM398 251Q408 305 388 336.5Q368 368 315 368Q264 368 230 332Q196 296 184 232L147 20Q145 11 137 5.5Q129 0 121 0H22Q14 0 8.5 6Q3 12 5 21L84 465Q86 474 92.5 480.5Q99 487 108 487H204Q212 487 218 481Q224 475 222 467L216 436Q235 459 273.5 480Q312 501 363 501Q408 501 445 485.5Q482 470 507 440Q532 410 542.5 366.5Q553 323 543 267L499 20Q497 11 489.5 5.5Q482 0 474 0H376Q367 0 361.5 5.5Q356 11 358 20Z" glyph-name="ncaron" horiz-adv-x="575" unicode="ň" /><glyph d="M133 668Q113 677 100 699Q87 721 89 746Q93 781 118 804.5Q143 828 180 828Q198 828 214 821Q230 814 242 802Q254 790 260.5 772.5Q267 755 265 734Q263 709 250.5 684.5Q238 660 221 638.5Q204 617 185 599.5Q166 582 151 571Q136 561 123.5 558.5Q111 556 100 564L89 572Q70 585 86 605ZM398 251Q408 305 388 336.5Q368 368 315 368Q264 368 230 332Q196 296 184 232L147 20Q145 11 137 5.5Q129 0 121 0H22Q14 0 8.5 6Q3 12 5 21L84 465Q86 474 92.5 480.5Q99 487 108 487H204Q212 487 218 481Q224 475 222 467L216 436Q235 459 273.5 480Q312 501 363 501Q408 501 445 485.5Q482 470 507 440Q532 410 542.5 366.5Q553 323 543 267L499 20Q497 11 489.5 5.5Q482 0 474 0H376Q367 0 361.5 5.5Q356 11 358 20Z" glyph-name="napostrophe" horiz-adv-x="575" unicode="ŉ" /><glyph d="M415 -234Q371 -234 334.5 -219Q298 -204 280 -184Q266 -168 282 -148L324 -94Q335 -80 346.5 -81.5Q358 -83 366 -88Q377 -96 388 -99.5Q399 -103 407 -103Q421 -103 439 -92Q457 -81 465 -46L475 2Q458 6 451 22L246 470L168 22Q165 0 143 0H40Q31 0 25 6Q19 12 21 22L137 678Q138 687 145.5 693.5Q153 700 163 700H288Q308 700 316 682L513 243L589 678Q591 687 598.5 693.5Q606 700 615 700H718Q727 700 732.5 693.5Q738 687 736 678L607 -48Q589 -149 537.5 -191.5Q486 -234 415 -234Z" glyph-name="Eng" horiz-adv-x="717" unicode="Ŋ" /><glyph d="M398 251Q408 305 388 336.5Q368 368 315 368Q264 368 230 332Q196 296 184 232L147 20Q145 11 137 5.5Q129 0 121 0H22Q14 0 8.5 6Q3 12 5 21L84 465Q86 474 92.5 480.5Q99 487 108 487H204Q212 487 218 481Q224 475 222 467L216 436Q235 459 273.5 480Q312 501 363 501Q408 501 445.5 485.5Q483 470 508 440Q533 410 543 366.5Q553 323 543 267L486 -55Q469 -151 416.5 -192.5Q364 -234 292 -234Q254 -234 218 -220.5Q182 -207 159 -186Q144 -171 160 -151L205 -91Q216 -77 227 -80.5Q238 -84 246 -89Q257 -97 268 -100Q279 -103 287 -103Q303 -103 320.5 -93.5Q338 -84 345 -47Z" glyph-name="eng" horiz-adv-x="575" unicode="ŋ" /><glyph d="M293 769Q284 769 278.5 775.5Q273 782 275 792L288 868Q290 878 298 884Q306 890 316 890H630Q639 890 644.5 884Q650 878 648 868L636 792Q634 782 626 775.5Q618 769 608 769ZM423 714Q502 714 565.5 687.5Q629 661 674 615Q719 569 743 506.5Q767 444 767 373Q767 293 739 222.5Q711 152 660.5 99.5Q610 47 541 16.5Q472 -14 390 -14Q312 -14 248.5 12.5Q185 39 140 85Q95 131 71 193.5Q47 256 47 327Q47 407 75 477.5Q103 548 153 600.5Q203 653 272 683.5Q341 714 423 714ZM421 581Q374 581 333 561Q292 541 262 506.5Q232 472 215 426Q198 380 198 327Q198 281 213 242.5Q228 204 254 176.5Q280 149 315.5 134Q351 119 393 119Q441 119 481.5 139Q522 159 552 193.5Q582 228 599 274.5Q616 321 616 373Q616 420 601 458Q586 496 560 523.5Q534 551 498.5 566Q463 581 421 581Z" glyph-name="Omacron" horiz-adv-x="774" unicode="Ō" /><glyph d="M165 553Q156 553 150.5 559.5Q145 566 147 576L160 652Q162 662 170 668Q178 674 188 674H502Q511 674 516.5 668Q522 662 520 652L508 576Q506 566 498 559.5Q490 553 480 553ZM296 501Q349 501 394 483Q439 465 471.5 432.5Q504 400 522.5 356Q541 312 541 261Q541 203 520.5 153Q500 103 463.5 66Q427 29 377 7.5Q327 -14 269 -14Q216 -14 171 4Q126 22 93.5 54.5Q61 87 42.5 131Q24 175 24 226Q24 284 44.5 334Q65 384 101.5 421Q138 458 188 479.5Q238 501 296 501ZM291 373Q264 373 240.5 362Q217 351 200.5 331.5Q184 312 174.5 286Q165 260 165 231Q165 204 174 182Q183 160 198 144.5Q213 129 232.5 121Q252 113 274 113Q301 113 324.5 124.5Q348 136 364.5 155.5Q381 175 390.5 200.5Q400 226 400 255Q400 311 368 342Q336 373 291 373Z" glyph-name="omacron" horiz-adv-x="563" unicode="ō" /><glyph d="M409 918Q405 893 418 877.5Q431 862 460 862Q486 862 505.5 876.5Q525 891 530 918L532 930Q534 938 538.5 943Q543 948 551 948H642Q650 948 654 943Q658 938 656 930L652 904Q641 832 588 789.5Q535 747 453 747Q412 747 379.5 759Q347 771 325.5 792Q304 813 295 842.5Q286 872 292 908L295 930Q296 938 302 943Q308 948 316 948H398Q406 948 409.5 943Q413 938 411 930ZM423 714Q502 714 565.5 687.5Q629 661 674 615Q719 569 743 506.5Q767 444 767 373Q767 293 739 222.5Q711 152 660.5 99.5Q610 47 541 16.5Q472 -14 390 -14Q312 -14 248.5 12.5Q185 39 140 85Q95 131 71 193.5Q47 256 47 327Q47 407 75 477.5Q103 548 153 600.5Q203 653 272 683.5Q341 714 423 714ZM421 581Q374 581 333 561Q292 541 262 506.5Q232 472 215 426Q198 380 198 327Q198 281 213 242.5Q228 204 254 176.5Q280 149 315.5 134Q351 119 393 119Q441 119 481.5 139Q522 159 552 193.5Q582 228 599 274.5Q616 321 616 373Q616 420 601 458Q586 496 560 523.5Q534 551 498.5 566Q463 581 421 581Z" glyph-name="Obreve" horiz-adv-x="774" unicode="Ŏ" /><glyph d="M281 702Q277 677 290 661.5Q303 646 332 646Q358 646 377.5 660.5Q397 675 402 702L404 714Q406 722 410.5 727Q415 732 423 732H514Q522 732 526 727Q530 722 528 714L524 688Q513 616 460 573.5Q407 531 325 531Q284 531 251.5 543Q219 555 197.5 576Q176 597 167 626.5Q158 656 164 692L167 714Q168 722 174 727Q180 732 188 732H270Q278 732 281.5 727Q285 722 283 714ZM296 501Q349 501 394 483Q439 465 471.5 432.5Q504 400 522.5 356Q541 312 541 261Q541 203 520.5 153Q500 103 463.5 66Q427 29 377 7.5Q327 -14 269 -14Q216 -14 171 4Q126 22 93.5 54.5Q61 87 42.5 131Q24 175 24 226Q24 284 44.5 334Q65 384 101.5 421Q138 458 188 479.5Q238 501 296 501ZM291 373Q264 373 240.5 362Q217 351 200.5 331.5Q184 312 174.5 286Q165 260 165 231Q165 204 174 182Q183 160 198 144.5Q213 129 232.5 121Q252 113 274 113Q301 113 324.5 124.5Q348 136 364.5 155.5Q381 175 390.5 200.5Q400 226 400 255Q400 311 368 342Q336 373 291 373Z" glyph-name="obreve" horiz-adv-x="563" unicode="ŏ" /><glyph d="M497 957Q514 957 520 945.5Q526 934 518 923L405 768Q398 760 392.5 756Q387 752 378 752H312Q297 752 289 761Q281 770 286 784L347 938Q355 957 374 957ZM719 957Q736 957 742 945.5Q748 934 740 923L626 768Q620 760 614.5 756Q609 752 600 752H534Q519 752 511 761Q503 770 508 784L569 938Q575 957 596 957ZM423 714Q502 714 565.5 687.5Q629 661 674 615Q719 569 743 506.5Q767 444 767 373Q767 293 739 222.5Q711 152 660.5 99.5Q610 47 541 16.5Q472 -14 390 -14Q312 -14 248.5 12.5Q185 39 140 85Q95 131 71 193.5Q47 256 47 327Q47 407 75 477.5Q103 548 153 600.5Q203 653 272 683.5Q341 714 423 714ZM421 581Q374 581 333 561Q292 541 262 506.5Q232 472 215 426Q198 380 198 327Q198 281 213 242.5Q228 204 254 176.5Q280 149 315.5 134Q351 119 393 119Q441 119 481.5 139Q522 159 552 193.5Q582 228 599 274.5Q616 321 616 373Q616 420 601 458Q586 496 560 523.5Q534 551 498.5 566Q463 581 421 581Z" glyph-name="Ohungarumlaut" horiz-adv-x="774" unicode="Ő" /><glyph d="M368 741Q385 741 391 729.5Q397 718 389 707L276 552Q269 544 263.5 540Q258 536 249 536H183Q168 536 160 545Q152 554 157 568L218 722Q226 741 245 741ZM590 741Q607 741 613 729.5Q619 718 611 707L497 552Q491 544 485.5 540Q480 536 471 536H405Q390 536 382 545Q374 554 379 568L440 722Q446 741 467 741ZM296 501Q349 501 394 483Q439 465 471.5 432.5Q504 400 522.5 356Q541 312 541 261Q541 203 520.5 153Q500 103 463.5 66Q427 29 377 7.5Q327 -14 269 -14Q216 -14 171 4Q126 22 93.5 54.5Q61 87 42.5 131Q24 175 24 226Q24 284 44.5 334Q65 384 101.5 421Q138 458 188 479.5Q238 501 296 501ZM291 373Q264 373 240.5 362Q217 351 200.5 331.5Q184 312 174.5 286Q165 260 165 231Q165 204 174 182Q183 160 198 144.5Q213 129 232.5 121Q252 113 274 113Q301 113 324.5 124.5Q348 136 364.5 155.5Q381 175 390.5 200.5Q400 226 400 255Q400 311 368 342Q336 373 291 373Z" glyph-name="ohungarumlaut" horiz-adv-x="563" unicode="ő" /><glyph d="M422 581Q375 581 334 561Q293 541 263 506.5Q233 472 216 426Q199 380 199 327Q199 281 214 242.5Q229 204 255 176.5Q281 149 316.5 134Q352 119 394 119Q441 119 481.5 139Q522 159 552 193.5Q582 228 599 274.5Q616 321 616 373Q616 420 601.5 458Q587 496 561 523.5Q535 551 499.5 566Q464 581 422 581ZM562 63Q523 24 473 5Q423 -14 370 -14Q299 -14 239.5 12Q180 38 137 83Q94 128 70 189Q46 250 46 320Q46 402 73.5 474Q101 546 150 599Q199 652 266.5 683Q334 714 413 714Q492 714 557.5 681.5Q623 649 654 589L670 678Q672 687 679.5 693.5Q687 700 697 700H1189Q1198 700 1203.5 693.5Q1209 687 1207 677L1190 584Q1189 575 1181.5 568.5Q1174 562 1165 562H798L772 418H963Q973 418 978.5 411.5Q984 405 982 395L966 307Q964 298 957 291Q950 284 940 284H749L723 138H1097Q1107 138 1112 131.5Q1117 125 1115 116L1099 23Q1097 13 1090 6.5Q1083 0 1073 0H574Q564 0 558.5 6.5Q553 13 555 23Z" glyph-name="OE" horiz-adv-x="1159" unicode="Œ" /><glyph d="M641 -14Q577 -14 529.5 8Q482 30 452 69Q418 31 370.5 8.5Q323 -14 263 -14Q210 -14 166 4Q122 22 90.5 54.5Q59 87 41.5 131Q24 175 24 226Q24 284 43.5 334Q63 384 97.5 421Q132 458 181 479.5Q230 501 288 501Q349 501 397 476.5Q445 452 475 410Q510 452 561.5 476.5Q613 501 676 501Q736 501 780.5 480Q825 459 853.5 425Q882 391 894.5 348.5Q907 306 904 263L901 233Q900 222 893.5 215Q887 208 872 208H540V205Q540 160 569 134Q598 108 640 108Q675 108 701 121Q727 134 747 154Q753 160 760.5 162.5Q768 165 776 160L851 111Q859 105 859 96Q859 87 855 82Q825 44 773 15Q721 -14 641 -14ZM670 389Q633 389 599.5 364.5Q566 340 552 292H766Q766 318 757.5 336Q749 354 735.5 366Q722 378 705 383.5Q688 389 670 389ZM292 374Q265 374 241.5 362.5Q218 351 201.5 331.5Q185 312 175.5 286Q166 260 166 231Q166 176 198.5 144.5Q231 113 276 113Q303 113 326.5 124.5Q350 136 367 155.5Q384 175 393.5 200.5Q403 226 403 255Q403 311 370 342.5Q337 374 292 374Z" glyph-name="oe" horiz-adv-x="915" unicode="œ" /><glyph d="M571 954Q588 954 593.5 942Q599 930 591 920L470 765Q463 757 458 753Q453 749 443 749H377Q362 749 354 758Q346 767 351 781L420 935Q428 954 447 954ZM389 382Q452 382 482.5 413.5Q513 445 513 485Q513 524 487.5 546.5Q462 569 421 569H265L232 382ZM169 23Q167 13 160.5 6.5Q154 0 143 0H40Q31 0 25 6.5Q19 13 21 22L137 678Q138 686 145 693Q152 700 163 700H449Q500 700 541 685Q582 670 610.5 644Q639 618 654 582Q669 546 669 505Q669 481 662 448.5Q655 416 634.5 384.5Q614 353 578 325.5Q542 298 484 283L621 30Q626 21 620 10.5Q614 0 600 0H494Q480 0 474 5Q468 10 461 23L337 261H211Z" glyph-name="Racute" horiz-adv-x="671" unicode="Ŕ" /><glyph d="M395 741Q412 741 417.5 729Q423 717 415 707L294 552Q287 544 282 540Q277 536 267 536H201Q186 536 178 545Q170 554 175 568L244 722Q252 741 271 741ZM360 494Q368 494 375.5 489Q383 484 381 468L362 366Q359 349 348.5 344.5Q338 340 331 340H299Q253 340 224 315Q195 290 184 234L147 20Q145 11 138 5.5Q131 0 122 0H22Q13 0 8 6Q3 12 5 21L84 465Q86 474 92.5 480.5Q99 487 108 487H197Q206 487 211.5 481Q217 475 216 467L205 410Q228 452 264.5 473Q301 494 342 494Z" glyph-name="racute" horiz-adv-x="352" unicode="ŕ" /><glyph d="M389 382Q452 382 482.5 413.5Q513 445 513 485Q513 524 487.5 546.5Q462 569 421 569H265L232 382ZM169 23Q167 13 160.5 6.5Q154 0 143 0H40Q31 0 25 6.5Q19 13 21 22L137 678Q138 686 145 693Q152 700 163 700H449Q500 700 541 685Q582 670 610.5 644Q639 618 654 582Q669 546 669 505Q669 481 662 448.5Q655 416 634.5 384.5Q614 353 578 325.5Q542 298 484 283L621 30Q626 21 620 10.5Q614 0 600 0H494Q480 0 474 5Q468 10 461 23L337 261H211ZM240 -208Q219 -198 207 -178Q195 -158 197 -133Q201 -97 225.5 -73.5Q250 -50 287 -50Q304 -50 320 -57Q336 -64 347.5 -77Q359 -90 365.5 -107Q372 -124 370 -145Q367 -174 354.5 -198Q342 -222 325 -241.5Q308 -261 289 -276Q270 -291 254 -301Q241 -310 228 -313Q215 -316 204 -308L193 -301Q183 -293 183.5 -284.5Q184 -276 190 -268Z" glyph-name="Rcommaaccent" horiz-adv-x="671" unicode="Ŗ" /><glyph d="M360 494Q368 494 375.5 489Q383 484 381 468L362 366Q359 349 348.5 344.5Q338 340 331 340H299Q253 340 224 315Q195 290 184 234L147 20Q145 11 138 5.5Q131 0 122 0H22Q13 0 8 6Q3 12 5 21L84 465Q86 474 92.5 480.5Q99 487 108 487H197Q206 487 211.5 481Q217 475 216 467L205 410Q228 452 264.5 473Q301 494 342 494ZM17 -208Q-4 -198 -16 -178Q-28 -158 -26 -133Q-22 -97 2.5 -73.5Q27 -50 64 -50Q81 -50 97 -57Q113 -64 124.5 -77Q136 -90 142.5 -107Q149 -124 147 -145Q144 -174 131.5 -198Q119 -222 102 -241.5Q85 -261 66 -276Q47 -291 31 -301Q18 -310 5 -313Q-8 -316 -19 -308L-30 -301Q-40 -293 -39.5 -284.5Q-39 -276 -33 -268Z" glyph-name="rcommaaccent" horiz-adv-x="352" unicode="ŗ" /><glyph d="M335 749Q318 749 308 771L243 922Q238 936 245.5 945Q253 954 262 954H340Q352 954 357 950Q362 946 367 937L409 859L481 937Q489 946 495 950Q501 954 513 954H605Q614 954 620 945Q626 936 615 922L496 771Q478 749 461 749ZM389 382Q452 382 482.5 413.5Q513 445 513 485Q513 524 487.5 546.5Q462 569 421 569H265L232 382ZM169 23Q167 13 160.5 6.5Q154 0 143 0H40Q31 0 25 6.5Q19 13 21 22L137 678Q138 686 145 693Q152 700 163 700H449Q500 700 541 685Q582 670 610.5 644Q639 618 654 582Q669 546 669 505Q669 481 662 448.5Q655 416 634.5 384.5Q614 353 578 325.5Q542 298 484 283L621 30Q626 21 620 10.5Q614 0 600 0H494Q480 0 474 5Q468 10 461 23L337 261H211Z" glyph-name="Rcaron" horiz-adv-x="671" unicode="Ř" /><glyph d="M159 536Q142 536 132 558L67 709Q62 723 69.5 732Q77 741 86 741H164Q176 741 181 737Q186 733 191 724L233 646L305 724Q313 733 319 737Q325 741 337 741H429Q438 741 444 732Q450 723 439 709L320 558Q302 536 285 536ZM360 494Q368 494 375.5 489Q383 484 381 468L362 366Q359 349 348.5 344.5Q338 340 331 340H299Q253 340 224 315Q195 290 184 234L147 20Q145 11 138 5.5Q131 0 122 0H22Q13 0 8 6Q3 12 5 21L84 465Q86 474 92.5 480.5Q99 487 108 487H197Q206 487 211.5 481Q217 475 216 467L205 410Q228 452 264.5 473Q301 494 342 494Z" glyph-name="rcaron" horiz-adv-x="352" unicode="ř" /><glyph d="M545 951Q562 951 567.5 939Q573 927 565 917L444 762Q437 754 432 750Q427 746 417 746H351Q336 746 328 755Q320 764 325 778L394 932Q402 951 421 951ZM352 714Q404 714 446.5 703.5Q489 693 522 676.5Q555 660 579 641Q603 622 617 604Q635 584 628.5 570.5Q622 557 612 549L560 506Q544 493 532 498Q520 503 509 514Q476 546 436 565Q396 584 345 584Q294 584 266 563Q238 542 238 510Q238 493 250.5 476.5Q263 460 296 448L420 403Q455 390 485 372.5Q515 355 537.5 332Q560 309 573 278.5Q586 248 586 210Q586 175 571 135.5Q556 96 523 63Q490 30 436.5 8Q383 -14 306 -14Q251 -14 205 -3Q159 8 123 26Q87 44 60.5 66Q34 88 17 109Q-8 142 28 172L72 211Q90 226 104 221Q118 216 132 202Q147 186 164 170.5Q181 155 202.5 143Q224 131 250 123.5Q276 116 308 116Q340 116 362 123.5Q384 131 398 142.5Q412 154 418.5 168.5Q425 183 425 197Q425 223 403 241.5Q381 260 339 274L226 314Q158 337 118 383.5Q78 430 78 490Q78 535 95 575.5Q112 616 146.5 646.5Q181 677 232.5 695.5Q284 714 352 714Z" glyph-name="Sacute" horiz-adv-x="614" unicode="Ś" /><glyph d="M441 741Q458 741 463.5 729Q469 717 461 707L340 552Q333 544 328 540Q323 536 313 536H247Q232 536 224 545Q216 554 221 568L290 722Q298 741 317 741ZM41 339Q41 374 55 403.5Q69 433 96 455Q123 477 161.5 489Q200 501 247 501Q311 501 363.5 482.5Q416 464 449 435Q472 415 446 387L410 351Q399 339 387.5 339Q376 339 362 349Q336 366 307 378Q278 390 246 390Q218 390 201 380Q184 370 184 354Q184 340 194.5 331.5Q205 323 231 315L300 294Q362 276 399 242Q436 208 437 154Q437 120 423.5 89.5Q410 59 383 36Q356 13 316 -0.5Q276 -14 223 -14Q162 -14 110 5Q58 24 28 48Q2 69 1 85.5Q0 102 17 119L46 149Q60 164 74.5 161.5Q89 159 101 149Q129 126 162 111.5Q195 97 230 97Q260 97 277.5 108.5Q295 120 295 137Q295 157 276.5 166.5Q258 176 227 185L159 205Q108 220 75 252.5Q42 285 41 339Z" glyph-name="sacute" horiz-adv-x="471" unicode="ś" /><glyph d="M471 951Q488 951 498 930L563 778Q569 764 562 755Q555 746 544 746H467Q455 746 450 750Q445 754 440 763L397 841L326 763Q318 754 311.5 750Q305 746 294 746H201Q192 746 186.5 755Q181 764 192 778L310 930Q327 951 345 951ZM352 714Q404 714 446.5 703.5Q489 693 522 676.5Q555 660 579 641Q603 622 617 604Q635 584 628.5 570.5Q622 557 612 549L560 506Q544 493 532 498Q520 503 509 514Q476 546 436 565Q396 584 345 584Q294 584 266 563Q238 542 238 510Q238 493 250.5 476.5Q263 460 296 448L420 403Q455 390 485 372.5Q515 355 537.5 332Q560 309 573 278.5Q586 248 586 210Q586 175 571 135.5Q556 96 523 63Q490 30 436.5 8Q383 -14 306 -14Q251 -14 205 -3Q159 8 123 26Q87 44 60.5 66Q34 88 17 109Q-8 142 28 172L72 211Q90 226 104 221Q118 216 132 202Q147 186 164 170.5Q181 155 202.5 143Q224 131 250 123.5Q276 116 308 116Q340 116 362 123.5Q384 131 398 142.5Q412 154 418.5 168.5Q425 183 425 197Q425 223 403 241.5Q381 260 339 274L226 314Q158 337 118 383.5Q78 430 78 490Q78 535 95 575.5Q112 616 146.5 646.5Q181 677 232.5 695.5Q284 714 352 714Z" glyph-name="Scircumflex" horiz-adv-x="614" unicode="Ŝ" /><glyph d="M367 741Q384 741 394 720L459 568Q465 554 458 545Q451 536 440 536H363Q351 536 346 540Q341 544 336 553L293 631L222 553Q214 544 207.5 540Q201 536 190 536H97Q88 536 82.5 545Q77 554 88 568L206 720Q223 741 241 741ZM41 339Q41 374 55 403.5Q69 433 96 455Q123 477 161.5 489Q200 501 247 501Q311 501 363.5 482.5Q416 464 449 435Q472 415 446 387L410 351Q399 339 387.5 339Q376 339 362 349Q336 366 307 378Q278 390 246 390Q218 390 201 380Q184 370 184 354Q184 340 194.5 331.5Q205 323 231 315L300 294Q362 276 399 242Q436 208 437 154Q437 120 423.5 89.5Q410 59 383 36Q356 13 316 -0.5Q276 -14 223 -14Q162 -14 110 5Q58 24 28 48Q2 69 1 85.5Q0 102 17 119L46 149Q60 164 74.5 161.5Q89 159 101 149Q129 126 162 111.5Q195 97 230 97Q260 97 277.5 108.5Q295 120 295 137Q295 157 276.5 166.5Q258 176 227 185L159 205Q108 220 75 252.5Q42 285 41 339Z" glyph-name="scircumflex" horiz-adv-x="471" unicode="ŝ" /><glyph d="M159 -160Q147 -160 140.5 -152Q134 -144 140 -132L206 -3Q137 13 90 45Q43 77 17 109Q-8 142 28 172L72 211Q90 226 104 221Q118 216 132 202Q147 186 164 170.5Q181 155 202.5 143Q224 131 250 123.5Q276 116 308 116Q340 116 362 123.5Q384 131 398 142.5Q412 154 418.5 168.5Q425 183 425 197Q425 223 403 241.5Q381 260 339 274L226 314Q158 337 118 383.5Q78 430 78 490Q78 535 95 575.5Q112 616 146.5 646.5Q181 677 232.5 695.5Q284 714 352 714Q404 714 446.5 703.5Q489 693 522 676.5Q555 660 579 641Q603 622 617 604Q635 584 628.5 570.5Q622 557 612 549L560 506Q544 493 532 498Q520 503 509 514Q476 546 436 565Q396 584 345 584Q294 584 266 563Q238 542 238 510Q238 493 250.5 476.5Q263 460 296 448L420 403Q455 390 485 372.5Q515 355 537.5 332Q560 309 573 278.5Q586 248 586 210Q586 178 573.5 142Q561 106 534 74.5Q507 43 463.5 19.5Q420 -4 357 -11L266 -146Q259 -156 252 -158Q245 -160 236 -160Z" glyph-name="Scedilla" horiz-adv-x="614" unicode="Ş" /><glyph d="M87 -163Q75 -163 68.5 -155Q62 -147 68 -135L135 -3Q102 6 74.5 19.5Q47 33 28 48Q2 69 1 85.5Q0 102 17 119L46 149Q60 164 74.5 161.5Q89 159 101 149Q129 126 162 111.5Q195 97 230 97Q260 97 277.5 108.5Q295 120 295 137Q295 157 276.5 166.5Q258 176 227 185L159 205Q108 220 75 252.5Q42 285 41 339Q41 374 55 403.5Q69 433 96 455Q123 477 161.5 489Q200 501 247 501Q311 501 363.5 482.5Q416 464 449 435Q472 415 446 387L410 351Q399 339 387.5 339Q376 339 362 349Q336 366 307 378Q278 390 246 390Q218 390 201 380Q184 370 184 354Q184 340 194.5 331.5Q205 323 231 315L300 294Q362 276 399 242Q436 208 437 154Q438 98 400.5 53Q363 8 290 -7L194 -149Q187 -159 180 -161Q173 -163 164 -163Z" glyph-name="scedilla" horiz-adv-x="471" unicode="ş" /><glyph d="M309 746Q292 746 282 768L217 919Q212 933 219.5 942Q227 951 236 951H314Q326 951 331 947Q336 943 341 934L383 856L455 934Q463 943 469 947Q475 951 487 951H579Q588 951 594 942Q600 933 589 919L470 768Q452 746 435 746ZM352 714Q404 714 446.5 703.5Q489 693 522 676.5Q555 660 579 641Q603 622 617 604Q635 584 628.5 570.5Q622 557 612 549L560 506Q544 493 532 498Q520 503 509 514Q476 546 436 565Q396 584 345 584Q294 584 266 563Q238 542 238 510Q238 493 250.5 476.5Q263 460 296 448L420 403Q455 390 485 372.5Q515 355 537.5 332Q560 309 573 278.5Q586 248 586 210Q586 175 571 135.5Q556 96 523 63Q490 30 436.5 8Q383 -14 306 -14Q251 -14 205 -3Q159 8 123 26Q87 44 60.5 66Q34 88 17 109Q-8 142 28 172L72 211Q90 226 104 221Q118 216 132 202Q147 186 164 170.5Q181 155 202.5 143Q224 131 250 123.5Q276 116 308 116Q340 116 362 123.5Q384 131 398 142.5Q412 154 418.5 168.5Q425 183 425 197Q425 223 403 241.5Q381 260 339 274L226 314Q158 337 118 383.5Q78 430 78 490Q78 535 95 575.5Q112 616 146.5 646.5Q181 677 232.5 695.5Q284 714 352 714Z" glyph-name="Scaron" horiz-adv-x="614" unicode="Š" /><glyph d="M205 536Q188 536 178 558L113 709Q108 723 115.5 732Q123 741 132 741H210Q222 741 227 737Q232 733 237 724L279 646L351 724Q359 733 365 737Q371 741 383 741H475Q484 741 490 732Q496 723 485 709L366 558Q348 536 331 536ZM41 339Q41 374 55 403.5Q69 433 96 455Q123 477 161.5 489Q200 501 247 501Q311 501 363.5 482.5Q416 464 449 435Q472 415 446 387L410 351Q399 339 387.5 339Q376 339 362 349Q336 366 307 378Q278 390 246 390Q218 390 201 380Q184 370 184 354Q184 340 194.5 331.5Q205 323 231 315L300 294Q362 276 399 242Q436 208 437 154Q437 120 423.5 89.5Q410 59 383 36Q356 13 316 -0.5Q276 -14 223 -14Q162 -14 110 5Q58 24 28 48Q2 69 1 85.5Q0 102 17 119L46 149Q60 164 74.5 161.5Q89 159 101 149Q129 126 162 111.5Q195 97 230 97Q260 97 277.5 108.5Q295 120 295 137Q295 157 276.5 166.5Q258 176 227 185L159 205Q108 220 75 252.5Q42 285 41 339Z" glyph-name="scaron" horiz-adv-x="471" unicode="š" /><glyph d="M88 677Q89 687 96.5 693.5Q104 700 112 700H656Q666 700 671.5 693.5Q677 687 675 677L659 584Q657 574 649.5 568Q642 562 632 562H436L341 23Q339 13 332 6.5Q325 0 315 0H208Q198 0 193 6.5Q188 13 190 23L285 562H89Q80 562 75 568.5Q70 575 72 584ZM200 -208Q179 -198 167 -178Q155 -158 157 -133Q161 -97 185.5 -73.5Q210 -50 247 -50Q264 -50 280 -57Q296 -64 307.5 -77Q319 -90 325.5 -107Q332 -124 330 -145Q327 -174 314.5 -198Q302 -222 285 -241.5Q268 -261 249 -276Q230 -291 214 -301Q201 -310 188 -313Q175 -316 164 -308L153 -301Q143 -293 143.5 -284.5Q144 -276 150 -268Z" glyph-name="Tcommaaccent" horiz-adv-x="610" unicode="Ţ" /><glyph d="M358 65Q363 54 358.5 44Q354 34 344 28Q321 14 287 1Q253 -12 205 -12Q177 -12 149.5 -2.5Q122 7 102.5 27Q83 47 74 78Q65 109 73 153L111 366H49Q39 366 34 373Q29 380 31 388L45 465Q47 475 54 481Q61 487 70 487H132L155 616Q157 626 164.5 632Q172 638 181 638H280Q289 638 294.5 632Q300 626 298 616L274 487H398Q407 487 413 481Q419 475 417 465L403 388Q401 379 394 372.5Q387 366 378 366H253L220 179Q217 161 218.5 149.5Q220 138 225 131.5Q230 125 236.5 122.5Q243 120 249 120Q265 120 274.5 124Q284 128 300 136Q313 141 321 136Q329 131 334 120ZM114 -208Q93 -198 81 -178Q69 -158 71 -133Q75 -97 99.5 -73.5Q124 -50 161 -50Q178 -50 194 -57Q210 -64 221.5 -77Q233 -90 239.5 -107Q246 -124 244 -145Q241 -174 228.5 -198Q216 -222 199 -241.5Q182 -261 163 -276Q144 -291 128 -301Q115 -310 102 -313Q89 -316 78 -308L67 -301Q57 -293 57.5 -284.5Q58 -276 64 -268Z" glyph-name="tcommaaccent" horiz-adv-x="393" unicode="ţ" /><glyph d="M327 749Q310 749 300 771L235 922Q230 936 237.5 945Q245 954 254 954H332Q344 954 349 950Q354 946 359 937L401 859L473 937Q481 946 487 950Q493 954 505 954H597Q606 954 612 945Q618 936 607 922L488 771Q470 749 453 749ZM88 677Q89 687 96.5 693.5Q104 700 112 700H656Q666 700 671.5 693.5Q677 687 675 677L659 584Q657 574 649.5 568Q642 562 632 562H436L341 23Q339 13 332 6.5Q325 0 315 0H208Q198 0 193 6.5Q188 13 190 23L285 562H89Q80 562 75 568.5Q70 575 72 584Z" glyph-name="Tcaron" horiz-adv-x="610" unicode="Ť" /><glyph d="M383 669Q363 678 350 700Q337 722 339 747Q343 782 368 805.5Q393 829 430 829Q448 829 464 822Q480 815 492 803Q504 791 510.5 773.5Q517 756 515 735Q513 710 500.5 685.5Q488 661 471 639.5Q454 618 435 600.5Q416 583 401 572Q386 562 373.5 559.5Q361 557 350 565L339 573Q320 586 336 606ZM358 65Q363 54 358.5 44Q354 34 344 28Q321 14 287 1Q253 -12 205 -12Q177 -12 149.5 -2.5Q122 7 102.5 27Q83 47 74 78Q65 109 73 153L111 366H49Q39 366 34 373Q29 380 31 388L45 465Q47 475 54 481Q61 487 70 487H132L155 616Q157 626 164.5 632Q172 638 181 638H280Q289 638 294.5 632Q300 626 298 616L274 487H398Q407 487 413 481Q419 475 417 465L403 388Q401 379 394 372.5Q387 366 378 366H253L220 179Q217 161 218.5 149.5Q220 138 225 131.5Q230 125 236.5 122.5Q243 120 249 120Q265 120 274.5 124Q284 128 300 136Q313 141 321 136Q329 131 334 120Z" glyph-name="tcaron" horiz-adv-x="393" unicode="ť" /><glyph d="M345 23Q343 13 336 6.5Q329 0 319 0H212Q202 0 197 6.5Q192 13 194 23L238 274H140Q130 274 124.5 280.5Q119 287 121 296L132 366Q134 375 142 381.5Q150 388 160 388H258L289 562H93Q84 562 79 568.5Q74 575 76 584L92 677Q93 687 100.5 693.5Q108 700 116 700H660Q670 700 675.5 693.5Q681 687 679 677L663 584Q661 574 653.5 568Q646 562 636 562H440L410 388H511Q520 388 525.5 381.5Q531 375 528 366L517 297Q515 287 507.5 280.5Q500 274 490 274H390Z" glyph-name="Tbar" horiz-adv-x="619" unicode="Ŧ" /><glyph d="M347 28Q324 14 290 1Q256 -12 208 -12Q180 -12 152.5 -2.5Q125 7 105.5 27Q86 47 77 78Q68 109 76 153L89 226H29Q19 226 13.5 232.5Q8 239 10 249L17 288Q19 297 26 304Q33 311 43 311H104L114 366H52Q42 366 37 373Q32 380 34 388L48 465Q50 475 57 481Q64 487 73 487H135L158 616Q160 626 167.5 632Q175 638 184 638H283Q292 638 297.5 632Q303 626 301 616L277 487H401Q410 487 416 481Q422 475 420 465L406 388Q404 379 397 372.5Q390 366 381 366H256L247 311H367Q375 311 380.5 304Q386 297 384 288L378 249Q376 239 368.5 232.5Q361 226 353 226H231L223 179Q220 161 221.5 149.5Q223 138 228 131.5Q233 125 239.5 122.5Q246 120 252 120Q268 120 277.5 124Q287 128 303 136Q316 141 324 136Q332 131 337 120L361 65Q366 54 361.5 44Q357 34 347 28Z" glyph-name="tbar" horiz-adv-x="398" unicode="ŧ" /><glyph d="M357 927Q375 927 397.5 922Q420 917 441.5 910.5Q463 904 482 899Q501 894 512 894Q527 894 537 898.5Q547 903 555 908Q563 913 569.5 918.5Q576 924 584 925Q600 930 609 912L630 868Q638 850 634 838Q631 826 620.5 812.5Q610 799 593 788Q576 777 555 769.5Q534 762 510 762Q491 762 468 767Q445 772 423.5 778Q402 784 383.5 789Q365 794 355 794Q340 794 330 790Q320 786 312.5 780.5Q305 775 299 770Q293 765 285 763Q267 759 259 776L236 821Q229 835 232 850Q235 862 246 875.5Q257 889 274 900.5Q291 912 312.5 919.5Q334 927 357 927ZM643 252Q631 182 602 131.5Q573 81 530.5 49Q488 17 433.5 1.5Q379 -14 316 -14Q260 -14 207.5 2.5Q155 19 117.5 52.5Q80 86 61.5 136Q43 186 55 252L130 678Q132 687 139.5 693.5Q147 700 156 700H260Q270 700 275.5 693.5Q281 687 279 678L206 263Q194 198 228.5 160.5Q263 123 332 123Q400 123 441 160.5Q482 198 493 263L566 678Q568 687 575.5 693.5Q583 700 593 700H699Q709 700 714.5 693.5Q720 687 718 678Z" glyph-name="Utilde" horiz-adv-x="694" unicode="Ũ" /><glyph d="M250 714Q268 714 290.5 709Q313 704 334.5 697.5Q356 691 375 686Q394 681 405 681Q420 681 430 685.5Q440 690 448 695Q456 700 462.5 705.5Q469 711 477 712Q493 717 502 699L523 655Q531 637 527 625Q524 613 513.5 599.5Q503 586 486 575Q469 564 448 556.5Q427 549 403 549Q384 549 361 554Q338 559 316.5 565Q295 571 276.5 576Q258 581 248 581Q233 581 223 577Q213 573 205.5 567.5Q198 562 192 557Q186 552 178 550Q160 546 152 563L129 608Q122 622 125 637Q128 649 139 662.5Q150 676 167 687.5Q184 699 205.5 706.5Q227 714 250 714ZM177 216Q168 164 188.5 136Q209 108 257 108Q305 108 334 138.5Q363 169 371 217L416 467Q418 475 425.5 481Q433 487 441 487H540Q549 487 553.5 480.5Q558 474 556 465L479 21Q477 12 470 6Q463 0 455 0H357Q349 0 342.5 5.5Q336 11 338 20L345 51Q322 23 287.5 4.5Q253 -14 197 -14Q153 -14 118.5 2Q84 18 62.5 46.5Q41 75 33 114.5Q25 154 33 200L80 467Q82 475 89.5 481Q97 487 105 487H204Q212 487 218 481Q224 475 222 467Z" glyph-name="utilde" horiz-adv-x="559" unicode="ũ" /><glyph d="M279 766Q270 766 264.5 772.5Q259 779 261 789L274 865Q276 875 284 881Q292 887 302 887H616Q625 887 630.5 881Q636 875 634 865L622 789Q620 779 612 772.5Q604 766 594 766ZM643 252Q631 182 602 131.5Q573 81 530.5 49Q488 17 433.5 1.5Q379 -14 316 -14Q260 -14 207.5 2.5Q155 19 117.5 52.5Q80 86 61.5 136Q43 186 55 252L130 678Q132 687 139.5 693.5Q147 700 156 700H260Q270 700 275.5 693.5Q281 687 279 678L206 263Q194 198 228.5 160.5Q263 123 332 123Q400 123 441 160.5Q482 198 493 263L566 678Q568 687 575.5 693.5Q583 700 593 700H699Q709 700 714.5 693.5Q720 687 718 678Z" glyph-name="Umacron" horiz-adv-x="694" unicode="Ū" /><glyph d="M172 553Q163 553 157.5 559.5Q152 566 154 576L167 652Q169 662 177 668Q185 674 195 674H509Q518 674 523.5 668Q529 662 527 652L515 576Q513 566 505 559.5Q497 553 487 553ZM177 216Q168 164 188.5 136Q209 108 257 108Q305 108 334 138.5Q363 169 371 217L416 467Q418 475 425.5 481Q433 487 441 487H540Q549 487 553.5 480.5Q558 474 556 465L479 21Q477 12 470 6Q463 0 455 0H357Q349 0 342.5 5.5Q336 11 338 20L345 51Q322 23 287.5 4.5Q253 -14 197 -14Q153 -14 118.5 2Q84 18 62.5 46.5Q41 75 33 114.5Q25 154 33 200L80 467Q82 475 89.5 481Q97 487 105 487H204Q212 487 218 481Q224 475 222 467Z" glyph-name="umacron" horiz-adv-x="559" unicode="ū" /><glyph d="M395 915Q391 890 404 874.5Q417 859 446 859Q472 859 491.5 873.5Q511 888 516 915L518 927Q520 935 524.5 940Q529 945 537 945H628Q636 945 640 940Q644 935 642 927L638 901Q627 829 574 786.5Q521 744 439 744Q398 744 365.5 756Q333 768 311.5 789Q290 810 281 839.5Q272 869 278 905L281 927Q282 935 288 940Q294 945 302 945H384Q392 945 395.5 940Q399 935 397 927ZM643 252Q631 182 602 131.5Q573 81 530.5 49Q488 17 433.5 1.5Q379 -14 316 -14Q260 -14 207.5 2.5Q155 19 117.5 52.5Q80 86 61.5 136Q43 186 55 252L130 678Q132 687 139.5 693.5Q147 700 156 700H260Q270 700 275.5 693.5Q281 687 279 678L206 263Q194 198 228.5 160.5Q263 123 332 123Q400 123 441 160.5Q482 198 493 263L566 678Q568 687 575.5 693.5Q583 700 593 700H699Q709 700 714.5 693.5Q720 687 718 678Z" glyph-name="Ubreve" horiz-adv-x="694" unicode="Ŭ" /><glyph d="M288 702Q284 677 297 661.5Q310 646 339 646Q365 646 384.5 660.5Q404 675 409 702L411 714Q413 722 417.5 727Q422 732 430 732H521Q529 732 533 727Q537 722 535 714L531 688Q520 616 467 573.5Q414 531 332 531Q291 531 258.5 543Q226 555 204.5 576Q183 597 174 626.5Q165 656 171 692L174 714Q175 722 181 727Q187 732 195 732H277Q285 732 288.5 727Q292 722 290 714ZM177 216Q168 164 188.5 136Q209 108 257 108Q305 108 334 138.5Q363 169 371 217L416 467Q418 475 425.5 481Q433 487 441 487H540Q549 487 553.5 480.5Q558 474 556 465L479 21Q477 12 470 6Q463 0 455 0H357Q349 0 342.5 5.5Q336 11 338 20L345 51Q322 23 287.5 4.5Q253 -14 197 -14Q153 -14 118.5 2Q84 18 62.5 46.5Q41 75 33 114.5Q25 154 33 200L80 467Q82 475 89.5 481Q97 487 105 487H204Q212 487 218 481Q224 475 222 467Z" glyph-name="ubreve" horiz-adv-x="559" unicode="ŭ" /><glyph d="M450 1038Q479 1038 505 1029Q531 1020 550.5 1002.5Q570 985 582 960Q594 935 594 903Q594 870 582 841Q570 812 548 791Q526 770 496.5 757.5Q467 745 432 745Q404 745 377.5 754.5Q351 764 331.5 781Q312 798 300 823.5Q288 849 288 880Q288 913 300 941.5Q312 970 334 991.5Q356 1013 385.5 1025.5Q415 1038 450 1038ZM436 829Q465 829 483 851Q501 873 501 898Q501 921 486.5 937.5Q472 954 446 954Q416 954 398 932.5Q380 911 380 885Q380 862 395 845.5Q410 829 436 829ZM643 252Q631 182 602 131.5Q573 81 530.5 49Q488 17 433.5 1.5Q379 -14 316 -14Q260 -14 207.5 2.5Q155 19 117.5 52.5Q80 86 61.5 136Q43 186 55 252L130 678Q132 687 139.5 693.5Q147 700 156 700H260Q270 700 275.5 693.5Q281 687 279 678L206 263Q194 198 228.5 160.5Q263 123 332 123Q400 123 441 160.5Q482 198 493 263L566 678Q568 687 575.5 693.5Q583 700 593 700H699Q709 700 714.5 693.5Q720 687 718 678Z" glyph-name="Uring" horiz-adv-x="694" unicode="Ů" /><glyph d="M343 824Q372 824 398 815Q424 806 443.5 788.5Q463 771 475 746Q487 721 487 689Q487 656 475 627Q463 598 441 577Q419 556 389.5 543.5Q360 531 325 531Q297 531 270.5 540.5Q244 550 224.5 567Q205 584 193 609.5Q181 635 181 666Q181 699 193 727.5Q205 756 227 777.5Q249 799 278.5 811.5Q308 824 343 824ZM329 615Q358 615 376 637Q394 659 394 684Q394 707 379.5 723.5Q365 740 339 740Q309 740 291 718.5Q273 697 273 671Q273 648 288 631.5Q303 615 329 615ZM177 216Q168 164 188.5 136Q209 108 257 108Q305 108 334 138.5Q363 169 371 217L416 467Q418 475 425.5 481Q433 487 441 487H540Q549 487 553.5 480.5Q558 474 556 465L479 21Q477 12 470 6Q463 0 455 0H357Q349 0 342.5 5.5Q336 11 338 20L345 51Q322 23 287.5 4.5Q253 -14 197 -14Q153 -14 118.5 2Q84 18 62.5 46.5Q41 75 33 114.5Q25 154 33 200L80 467Q82 475 89.5 481Q97 487 105 487H204Q212 487 218 481Q224 475 222 467Z" glyph-name="uring" horiz-adv-x="559" unicode="ů" /><glyph d="M483 954Q500 954 506 942.5Q512 931 504 920L391 765Q384 757 378.5 753Q373 749 364 749H298Q283 749 275 758Q267 767 272 781L333 935Q341 954 360 954ZM705 954Q722 954 728 942.5Q734 931 726 920L612 765Q606 757 600.5 753Q595 749 586 749H520Q505 749 497 758Q489 767 494 781L555 935Q561 954 582 954ZM643 252Q631 182 602 131.5Q573 81 530.5 49Q488 17 433.5 1.5Q379 -14 316 -14Q260 -14 207.5 2.5Q155 19 117.5 52.5Q80 86 61.5 136Q43 186 55 252L130 678Q132 687 139.5 693.5Q147 700 156 700H260Q270 700 275.5 693.5Q281 687 279 678L206 263Q194 198 228.5 160.5Q263 123 332 123Q400 123 441 160.5Q482 198 493 263L566 678Q568 687 575.5 693.5Q583 700 593 700H699Q709 700 714.5 693.5Q720 687 718 678Z" glyph-name="Uhungarumlaut" horiz-adv-x="694" unicode="Ű" /><glyph d="M376 741Q393 741 399 729.5Q405 718 397 707L284 552Q277 544 271.5 540Q266 536 257 536H191Q176 536 168 545Q160 554 165 568L226 722Q234 741 253 741ZM598 741Q615 741 621 729.5Q627 718 619 707L505 552Q499 544 493.5 540Q488 536 479 536H413Q398 536 390 545Q382 554 387 568L448 722Q454 741 475 741ZM177 216Q168 164 188.5 136Q209 108 257 108Q305 108 334 138.5Q363 169 371 217L416 467Q418 475 425.5 481Q433 487 441 487H540Q549 487 553.5 480.5Q558 474 556 465L479 21Q477 12 470 6Q463 0 455 0H357Q349 0 342.5 5.5Q336 11 338 20L345 51Q322 23 287.5 4.5Q253 -14 197 -14Q153 -14 118.5 2Q84 18 62.5 46.5Q41 75 33 114.5Q25 154 33 200L80 467Q82 475 89.5 481Q97 487 105 487H204Q212 487 218 481Q224 475 222 467Z" glyph-name="uhungarumlaut" horiz-adv-x="559" unicode="ű" /><glyph d="M354 -193Q310 -193 282.5 -173Q255 -153 255 -112Q255 -86 269 -61.5Q283 -37 306 -14Q251 -13 201 4.5Q151 22 114.5 55.5Q78 89 61 138Q44 187 55 252L130 678Q132 687 139.5 693.5Q147 700 156 700H260Q270 700 275.5 693.5Q281 687 279 678L206 263Q194 198 228.5 160.5Q263 123 332 123Q400 123 441 160.5Q482 198 493 263L566 678Q568 687 575.5 693.5Q583 700 593 700H699Q709 700 714.5 693.5Q720 687 718 678L643 252Q623 138 561 76Q499 14 408 -5Q393 -25 384.5 -42.5Q376 -60 376 -71Q376 -84 384 -93Q392 -102 412 -102Q426 -102 436 -99.5Q446 -97 452 -97Q459 -97 463.5 -102.5Q468 -108 466 -120L460 -156Q459 -165 448 -172Q437 -179 421 -183.5Q405 -188 387 -190.5Q369 -193 354 -193Z" glyph-name="Uogonek" horiz-adv-x="694" unicode="Ų" /><glyph d="M458 -184Q457 -193 446 -200Q435 -207 419 -211.5Q403 -216 385 -218.5Q367 -221 352 -221Q308 -221 280.5 -201Q253 -181 253 -140Q253 -101 283.5 -65Q314 -29 353 0Q346 2 341 7Q336 12 338 20L345 51Q322 23 287.5 4.5Q253 -14 197 -14Q153 -14 118.5 2Q84 18 62.5 46.5Q41 75 33 114.5Q25 154 33 200L80 467Q82 475 89.5 481Q97 487 105 487H204Q212 487 218 481Q224 475 222 467L177 216Q168 164 188.5 136Q209 108 257 108Q305 108 334 138.5Q363 169 371 217L416 467Q418 475 425.5 481Q433 487 441 487H540Q549 487 553.5 480.5Q558 474 556 465L479 21Q477 12 470 6Q463 0 455 0H434Q406 -30 390 -57Q374 -84 374 -99Q374 -112 382 -121Q390 -130 410 -130Q424 -130 434 -127.5Q444 -125 450 -125Q457 -125 461.5 -130.5Q466 -136 464 -148Z" glyph-name="uogonek" horiz-adv-x="559" unicode="ų" /><glyph d="M676 954Q693 954 703 933L768 781Q774 767 767 758Q760 749 749 749H672Q660 749 655 753Q650 757 645 766L602 844L531 766Q523 757 516.5 753Q510 749 499 749H406Q397 749 391.5 758Q386 767 397 781L515 933Q532 954 550 954ZM360 22Q355 10 345.5 5Q336 0 328 0H165Q158 0 150 5Q142 10 141 22L86 665Q84 682 93.5 691Q103 700 115 700H226Q236 700 240.5 693Q245 686 246 678L278 172L484 680Q488 689 493 694.5Q498 700 509 700H634Q643 700 648.5 694Q654 688 655 680L703 177L897 678Q900 686 907.5 693Q915 700 924 700H1035Q1049 700 1055 692.5Q1061 685 1053 665L781 22Q776 10 764 5Q752 0 749 0H597Q589 0 581.5 5Q574 10 572 22L534 459Z" glyph-name="Wcircumflex" horiz-adv-x="993" unicode="Ŵ" /><glyph d="M521 741Q538 741 548 720L613 568Q619 554 612 545Q605 536 594 536H517Q505 536 500 540Q495 544 490 553L447 631L376 553Q368 544 361.5 540Q355 536 344 536H251Q242 536 236.5 545Q231 554 242 568L360 720Q377 741 395 741ZM280 22Q276 13 267.5 6.5Q259 0 248 0H135Q124 0 118.5 6.5Q113 13 111 22L44 455Q41 470 48.5 478.5Q56 487 70 487H170Q182 487 186.5 480.5Q191 474 192 465L224 174L355 466Q363 487 386 487H472Q492 487 494 465L524 174L653 465Q657 473 664 480Q671 487 683 487H776Q789 487 793.5 478.5Q798 470 791 455L581 22Q576 13 568.5 6.5Q561 0 550 0H439Q428 0 422.5 6.5Q417 13 416 22L388 268Z" glyph-name="wcircumflex" horiz-adv-x="762" unicode="ŵ" /><glyph d="M499 954Q516 954 526 933L591 781Q597 767 590 758Q583 749 572 749H495Q483 749 478 753Q473 757 468 766L425 844L354 766Q346 757 339.5 753Q333 749 322 749H229Q220 749 214.5 758Q209 767 220 781L338 933Q355 954 373 954ZM231 0Q222 0 216 6.5Q210 13 212 23L258 276L89 665Q83 678 90 689Q97 700 110 700H226Q244 700 250 683L354 424H356L544 683Q549 691 555.5 695.5Q562 700 572 700H701Q714 700 718.5 690Q723 680 711 665L404 272L360 23Q358 13 351 6.5Q344 0 335 0Z" glyph-name="Ycircumflex" horiz-adv-x="649" unicode="Ŷ" /><glyph d="M376 741Q393 741 403 720L468 568Q474 554 467 545Q460 536 449 536H372Q360 536 355 540Q350 544 345 553L302 631L231 553Q223 544 216.5 540Q210 536 199 536H106Q97 536 91.5 545Q86 554 97 568L215 720Q232 741 250 741ZM77 -234Q30 -234 -6.5 -218Q-43 -202 -63 -182Q-79 -166 -61 -142L-27 -95Q-16 -79 -4 -80.5Q8 -82 18 -88Q29 -95 44 -102.5Q59 -110 79 -110Q99 -110 117 -98Q135 -86 148 -63L180 0H127Q116 0 111.5 6Q107 12 105 21L45 453Q43 467 49.5 477Q56 487 74 487H181Q189 487 194 480.5Q199 474 200 465L233 125L381 465Q385 473 391.5 480Q398 487 411 487H526Q540 487 543.5 477.5Q547 468 540 453L285 -81Q253 -152 204 -193Q155 -234 77 -234Z" glyph-name="ycircumflex" horiz-adv-x="514" unicode="ŷ" /><glyph d="M225 834Q228 871 256 897Q284 923 319 923Q356 923 379.5 897Q403 871 399 834Q396 797 368 771Q340 745 304 745Q268 745 244.5 771Q221 797 225 834ZM443 834Q446 871 474 897Q502 923 538 923Q574 923 597.5 897Q621 871 618 834Q617 816 608.5 799.5Q600 783 586.5 771Q573 759 556.5 752Q540 745 522 745Q487 745 463.5 771Q440 797 443 834ZM231 0Q222 0 216 6.5Q210 13 212 23L258 276L89 665Q83 678 90 689Q97 700 110 700H226Q244 700 250 683L354 424H356L544 683Q549 691 555.5 695.5Q562 700 572 700H701Q714 700 718.5 690Q723 680 711 665L404 272L360 23Q358 13 351 6.5Q344 0 335 0Z" glyph-name="Ydieresis" horiz-adv-x="649" unicode="Ÿ" /><glyph d="M556 954Q573 954 578.5 942Q584 930 576 920L455 765Q448 757 443 753Q438 749 428 749H362Q347 749 339 758Q331 767 336 781L405 935Q413 954 432 954ZM-2 0Q-13 0 -18 6.5Q-23 13 -21 23L-8 92Q-6 103 -0.5 110.5Q5 118 11 124L428 567H118Q109 567 103.5 573.5Q98 580 100 589L115 677Q117 686 124.5 693Q132 700 141 700H623Q632 700 637 693Q642 686 640 677L626 595Q623 580 611 566L206 133H547Q555 133 561 127Q567 121 565 111L549 23Q547 13 539.5 6.5Q532 0 523 0Z" glyph-name="Zacute" horiz-adv-x="604" unicode="Ź" /><glyph d="M447 741Q464 741 469.5 729Q475 717 467 707L346 552Q339 544 334 540Q329 536 319 536H253Q238 536 230 545Q222 554 227 568L296 722Q304 741 323 741ZM193 124 410 124Q418 124 423.5 118Q429 112 427 103L412 20Q410 12 403 6Q396 0 387 0H1Q-8 0 -13.5 6.5Q-19 13 -17 22L-4 90Q-2 99 1 104.5Q4 110 10 115L272 362H75Q65 362 60 369Q55 376 57 385L71 465Q73 474 80 480.5Q87 487 96 487H461Q470 487 475.5 480Q481 473 479 465L467 397Q465 388 461 382.5Q457 377 452 372Z" glyph-name="zacute" horiz-adv-x="471" unicode="ź" /><glyph d="M395 752Q375 752 357.5 760Q340 768 328 781.5Q316 795 310 812.5Q304 830 306 850Q308 870 317.5 888Q327 906 341 919.5Q355 933 373.5 940.5Q392 948 412 948Q453 948 479 919.5Q505 891 500 850Q499 830 489.5 812.5Q480 795 466 781.5Q452 768 433.5 760Q415 752 395 752ZM-2 0Q-13 0 -18 6.5Q-23 13 -21 23L-8 92Q-6 103 -0.5 110.5Q5 118 11 124L428 567H118Q109 567 103.5 573.5Q98 580 100 589L115 677Q117 686 124.5 693Q132 700 141 700H623Q632 700 637 693Q642 686 640 677L626 595Q623 580 611 566L206 133H547Q555 133 561 127Q567 121 565 111L549 23Q547 13 539.5 6.5Q532 0 523 0Z" glyph-name="Zdotaccent" horiz-adv-x="604" unicode="Ż" /><glyph d="M286 538Q266 538 248.5 546Q231 554 219 567.5Q207 581 201 598.5Q195 616 197 636Q199 656 208.5 674Q218 692 232 705.5Q246 719 264.5 726.5Q283 734 303 734Q344 734 370 705.5Q396 677 391 636Q390 616 380.5 598.5Q371 581 357 567.5Q343 554 324.5 546Q306 538 286 538ZM193 124 410 124Q418 124 423.5 118Q429 112 427 103L412 20Q410 12 403 6Q396 0 387 0H1Q-8 0 -13.5 6.5Q-19 13 -17 22L-4 90Q-2 99 1 104.5Q4 110 10 115L272 362H75Q65 362 60 369Q55 376 57 385L71 465Q73 474 80 480.5Q87 487 96 487H461Q470 487 475.5 480Q481 473 479 465L467 397Q465 388 461 382.5Q457 377 452 372Z" glyph-name="zdotaccent" horiz-adv-x="471" unicode="ż" /></font>
</defs>
</svg>
